<svg width="21" height="21" viewBox="0 0 21 21" fill="none" xmlns="http://www.w3.org/2000/svg">
<path d="M18.4814 0.644531C18.9317 0.644574 19.2828 0.790587 19.5693 1.07715C19.8555 1.3635 20.0007 1.71416 20 2.16406V18.126C20 18.5765 19.8542 18.9274 19.5684 19.2139C19.2832 19.4996 18.9326 19.6452 18.4805 19.6445H2.51953C2.06823 19.6444 1.71785 19.4989 1.43262 19.2139C1.18287 18.9641 1.03917 18.6636 1.00684 18.2891L1 18.124V2.16406C1.0001 1.71297 1.14572 1.36251 1.43164 1.07715C1.68257 0.826764 1.98314 0.683612 2.35645 0.651367L2.52051 0.644531H18.4814Z" stroke="#A452D7"/>
</svg>
