<svg width="16" height="17" viewBox="0 0 16 17" fill="none" xmlns="http://www.w3.org/2000/svg">
<g clip-path="url(#clip0_2085_50)">
<path d="M14 11.4066L10.3344 10.741C10 10.0722 10 9.78158 10 9.40658C10.3344 9.0722 11 8.74096 11 8.40658C11.3344 7.40658 11.3344 6.74095 11.3344 6.74095C11.5063 6.49095 12 6.07533 12 5.40658C12 4.73783 11.3344 4.0722 11.3344 3.74095C11.3344 1.0722 9.975 0.0722046 8 0.0722046C6.10938 0.0722046 4.66563 1.0722 4.66563 3.73783C4.66563 4.0722 4 4.73783 4 5.40345C4 6.06908 4.475 6.5097 4.66563 6.73783C4.66563 6.73783 4.66563 7.40345 5 8.40345C5 8.73783 5.66563 9.06908 6 9.40345C6 9.73783 6 10.0691 5.66563 10.7378L2 11.4066C0.665625 11.7378 0 14.0722 0 16.0722H16C16 14.0722 15.3344 11.7378 14 11.4066Z" fill="#A452D7"/>
</g>
<defs>
<clipPath id="clip0_2085_50">
<rect width="16" height="16" fill="white" transform="translate(0 0.0722046)"/>
</clipPath>
</defs>
</svg>
