<svg width="62" height="62" viewBox="0 0 62 62" fill="none" xmlns="http://www.w3.org/2000/svg">
<path d="M52.7133 9.71669L36.4624 5.36227C30.5678 3.78281 26.2109 6.31465 24.6263 12.2286L19.2592 32.2587C17.6486 38.2696 20.1766 42.5631 26.0713 44.1426L42.3221 48.497C48.3118 50.1019 52.5509 47.6217 54.1615 41.6107L59.5286 21.5807C61.1132 15.6667 58.7029 11.3216 52.7133 9.71669Z" fill="url(#paint0_linear_370_9569)"/>
<g opacity="0.5" filter="url(#filter0_f_370_9569)">
<path d="M48.4673 15.2017L37.3954 12.235C33.3793 11.1589 30.4109 12.8839 29.3313 16.9131L25.6747 30.5598C24.5773 34.6551 26.2997 37.5803 30.3158 38.6564L41.3877 41.6231C45.4684 42.7166 48.3566 41.0268 49.4539 36.9314L53.1106 23.2848C54.1902 19.2555 52.548 16.2952 48.4673 15.2017Z" fill="#39B93A"/>
</g>
<g data-figma-bg-blur-radius="13.5752">
<mask id="path-3-outside-1_370_9569" maskUnits="userSpaceOnUse" x="1.03809" y="12.6102" width="48" height="48" fill="black">
<rect fill="white" x="1.03809" y="12.6102" width="48" height="48"/>
<path d="M35.1587 13.6102H15.1339C7.30412 13.6102 2.03809 19.1072 2.03809 27.2834V46.1534C2.03809 54.3065 7.30412 59.8035 15.1339 59.8035H35.1587C42.9884 59.8035 48.2314 54.3065 48.2314 46.1534V27.2834C48.2314 19.1072 42.9884 13.6102 35.1587 13.6102"/>
</mask>
<path d="M35.1587 13.6102H15.1339C7.30412 13.6102 2.03809 19.1072 2.03809 27.2834V46.1534C2.03809 54.3065 7.30412 59.8035 15.1339 59.8035H35.1587C42.9884 59.8035 48.2314 54.3065 48.2314 46.1534V27.2834C48.2314 19.1072 42.9884 13.6102 35.1587 13.6102" fill="#00B91C"/>
<path d="M35.1587 14.1758C35.471 14.1758 35.7243 13.9226 35.7243 13.6102C35.7243 13.2978 35.471 13.0446 35.1587 13.0446V13.6102V14.1758ZM35.1587 13.0446C34.8463 13.0446 34.593 13.2978 34.593 13.6102C34.593 13.9226 34.8463 14.1758 35.1587 14.1758V13.6102V13.0446ZM35.1587 13.6102V13.0446H15.1339V13.6102V14.1758H35.1587V13.6102ZM15.1339 13.6102V13.0446C11.0817 13.0446 7.65442 14.4702 5.24134 16.9895C2.83029 19.5067 1.47245 23.0727 1.47245 27.2834H2.03809H2.60372C2.60372 23.3179 3.8789 20.0473 6.0583 17.772C8.23568 15.4987 11.3563 14.1758 15.1339 14.1758V13.6102ZM2.03809 27.2834H1.47245V46.1534H2.03809H2.60372V27.2834H2.03809ZM2.03809 46.1534H1.47245C1.47245 50.3529 2.83054 53.9132 5.24158 56.4273C7.65459 58.9435 11.0817 60.3691 15.1339 60.3691V59.8035V59.2378C11.3563 59.2378 8.23551 57.9149 6.05807 55.6443C3.87865 53.3717 2.60372 50.1069 2.60372 46.1534H2.03809ZM15.1339 59.8035V60.3691H35.1587V59.8035V59.2378H15.1339V59.8035ZM35.1587 59.8035V60.3691C39.2109 60.3691 42.6326 58.9435 45.0399 56.4268C47.4451 53.9124 48.797 50.3522 48.797 46.1534H48.2314H47.6657C47.6657 50.1076 46.3961 53.3725 44.2224 55.6448C42.0509 57.915 38.9361 59.2378 35.1587 59.2378V59.8035ZM48.2314 46.1534H48.797V27.2834H48.2314H47.6657V46.1534H48.2314ZM48.2314 27.2834H48.797C48.797 23.0734 47.4454 19.5074 45.0401 16.99C42.6327 14.4702 39.211 13.0446 35.1587 13.0446V13.6102V14.1758C38.9361 14.1758 42.0507 15.4987 44.2222 17.7715C46.3959 20.0466 47.6657 23.3172 47.6657 27.2834H48.2314Z" fill="url(#paint1_linear_370_9569)" mask="url(#path-3-outside-1_370_9569)"/>
</g>
<g filter="url(#filter2_d_370_9569)" data-figma-bg-blur-radius="8.48448">
<mask id="path-5-inside-2_370_9569" fill="white">
<path d="M22.3931 44.2085C21.8757 44.2085 21.3583 44.0122 20.9634 43.6172L15.4826 38.1364C14.6927 37.3465 14.6927 36.0669 15.4826 35.2793C16.2725 34.4894 17.5497 34.4871 18.3396 35.277L22.3931 39.3305L31.9274 29.7962C32.7173 29.0063 33.9945 29.0063 34.7844 29.7962C35.5743 30.5861 35.5743 31.8656 34.7844 32.6555L23.8228 43.6172C23.4278 44.0122 22.9104 44.2085 22.3931 44.2085"/>
</mask>
<path d="M22.3931 44.2085C21.8757 44.2085 21.3583 44.0122 20.9634 43.6172L15.4826 38.1364C14.6927 37.3465 14.6927 36.0669 15.4826 35.2793C16.2725 34.4894 17.5497 34.4871 18.3396 35.277L22.3931 39.3305L31.9274 29.7962C32.7173 29.0063 33.9945 29.0063 34.7844 29.7962C35.5743 30.5861 35.5743 31.8656 34.7844 32.6555L23.8228 43.6172C23.4278 44.0122 22.9104 44.2085 22.3931 44.2085" fill="url(#paint2_linear_370_9569)"/>
<path d="M15.4826 35.2793L15.5624 35.3594L15.5626 35.3593L15.4826 35.2793ZM22.3931 39.3305L22.3131 39.4105L22.3931 39.4904L22.4731 39.4105L22.3931 39.3305ZM34.7844 32.6555L34.7044 32.5755L34.7044 32.5755L34.7844 32.6555ZM23.8228 43.6172L23.9028 43.6972L23.9028 43.6972L23.8228 43.6172ZM22.3931 44.2085V44.0953C21.9043 44.0953 21.4162 43.91 21.0434 43.5372L20.9634 43.6172L20.8834 43.6972C21.3005 44.1143 21.8471 44.3216 22.3931 44.3216V44.2085ZM20.9634 43.6172L21.0434 43.5372L15.5626 38.0564L15.4826 38.1364L15.4026 38.2164L20.8834 43.6972L20.9634 43.6172ZM15.4826 38.1364L15.5626 38.0564C14.8168 37.3106 14.8169 36.1027 15.5624 35.3594L15.4826 35.2793L15.4027 35.1992C14.5684 36.0311 14.5686 37.3823 15.4026 38.2164L15.4826 38.1364ZM15.4826 35.2793L15.5626 35.3593C16.3085 34.6134 17.5141 34.6114 18.2596 35.357L18.3396 35.277L18.4196 35.197C17.5854 34.3628 16.2365 34.3654 15.4026 35.1993L15.4826 35.2793ZM18.3396 35.277L18.2596 35.357L22.3131 39.4105L22.3931 39.3305L22.4731 39.2505L18.4196 35.197L18.3396 35.277ZM22.3931 39.3305L22.4731 39.4105L32.0074 29.8762L31.9274 29.7962L31.8474 29.7162L22.3131 39.2505L22.3931 39.3305ZM31.9274 29.7962L32.0074 29.8762C32.7531 29.1304 33.9587 29.1304 34.7044 29.8762L34.7844 29.7962L34.8644 29.7162C34.0303 28.8821 32.6815 28.8821 31.8474 29.7162L31.9274 29.7962ZM34.7844 29.7962L34.7044 29.8762C35.4502 30.6219 35.4502 31.8298 34.7044 32.5755L34.7844 32.6555L34.8644 32.7355C35.6985 31.9014 35.6985 30.5503 34.8644 29.7162L34.7844 29.7962ZM34.7844 32.6555L34.7044 32.5755L23.7428 43.5372L23.8228 43.6172L23.9028 43.6972L34.8644 32.7355L34.7844 32.6555ZM23.8228 43.6172L23.7428 43.5372C23.37 43.91 22.8818 44.0953 22.3931 44.0953V44.2085V44.3216C22.9391 44.3216 23.4856 44.1143 23.9028 43.6972L23.8228 43.6172Z" fill="url(#paint3_linear_370_9569)" fill-opacity="0.5" mask="url(#path-5-inside-2_370_9569)"/>
</g>
<defs>
<filter id="filter0_f_370_9569" x="17.4317" y="4.00249" width="43.9212" height="45.8646" filterUnits="userSpaceOnUse" color-interpolation-filters="sRGB">
<feFlood flood-opacity="0" result="BackgroundImageFix"/>
<feBlend mode="normal" in="SourceGraphic" in2="BackgroundImageFix" result="shape"/>
<feGaussianBlur stdDeviation="3.95942" result="effect1_foregroundBlur_370_9569"/>
</filter>
<clipPath id="bgblur_0_370_9569_clip_path" transform="translate(12.1025 0.530594)"><path d="M35.1587 13.6102H15.1339C7.30412 13.6102 2.03809 19.1072 2.03809 27.2834V46.1534C2.03809 54.3065 7.30412 59.8035 15.1339 59.8035H35.1587C42.9884 59.8035 48.2314 54.3065 48.2314 46.1534V27.2834C48.2314 19.1072 42.9884 13.6102 35.1587 13.6102"/>
</clipPath><filter id="filter2_d_370_9569" x="6.40566" y="20.7193" width="37.4558" height="31.9737" filterUnits="userSpaceOnUse" color-interpolation-filters="sRGB">
<feFlood flood-opacity="0" result="BackgroundImageFix"/>
<feColorMatrix in="SourceAlpha" type="matrix" values="0 0 0 0 0 0 0 0 0 0 0 0 0 0 0 0 0 0 127 0" result="hardAlpha"/>
<feOffset dx="2.82816" dy="2.82816"/>
<feGaussianBlur stdDeviation="2.82816"/>
<feColorMatrix type="matrix" values="0 0 0 0 0.454902 0 0 0 0 0.870588 0 0 0 0 0.376471 0 0 0 0.5 0"/>
<feBlend mode="normal" in2="BackgroundImageFix" result="effect1_dropShadow_370_9569"/>
<feBlend mode="normal" in="SourceGraphic" in2="effect1_dropShadow_370_9569" result="shape"/>
</filter>
<clipPath id="bgblur_1_370_9569_clip_path" transform="translate(-6.40566 -20.7193)"><path d="M22.3931 44.2085C21.8757 44.2085 21.3583 44.0122 20.9634 43.6172L15.4826 38.1364C14.6927 37.3465 14.6927 36.0669 15.4826 35.2793C16.2725 34.4894 17.5497 34.4871 18.3396 35.277L22.3931 39.3305L31.9274 29.7962C32.7173 29.0063 33.9945 29.0063 34.7844 29.7962C35.5743 30.5861 35.5743 31.8656 34.7844 32.6555L23.8228 43.6172C23.4278 44.0122 22.9104 44.2085 22.3931 44.2085"/>
</clipPath><linearGradient id="paint0_linear_370_9569" x1="62.038" y1="12.2152" x2="26.598" y2="33.9055" gradientUnits="userSpaceOnUse">
<stop stop-color="#9BF763"/>
<stop offset="1" stop-color="#26AB5B"/>
</linearGradient>
<linearGradient id="paint1_linear_370_9569" x1="9.3913" y1="18.9918" x2="38.8577" y2="55.4866" gradientUnits="userSpaceOnUse">
<stop stop-color="white" stop-opacity="0.25"/>
<stop offset="1" stop-color="white" stop-opacity="0"/>
</linearGradient>
<linearGradient id="paint2_linear_370_9569" x1="33.9244" y1="31.9133" x2="11.125" y2="32.9282" gradientUnits="userSpaceOnUse">
<stop stop-color="white"/>
<stop offset="1" stop-color="white" stop-opacity="0.2"/>
</linearGradient>
<linearGradient id="paint3_linear_370_9569" x1="17.097" y1="34.2371" x2="34.4926" y2="34.3682" gradientUnits="userSpaceOnUse">
<stop stop-color="white"/>
<stop offset="1" stop-color="white" stop-opacity="0"/>
</linearGradient>
</defs>
</svg>
