<svg width="59" height="59" viewBox="0 0 59 59" fill="none" xmlns="http://www.w3.org/2000/svg">
<g clip-path="url(#clip0_2018_5293)">
<path d="M17.5859 0.635986C16.589 0.953171 15.5921 1.84809 15.139 2.83364C14.8898 3.35474 14.8898 3.45669 14.8558 10.6161C14.8445 14.6036 14.8558 17.9793 14.8898 18.1153C15.0597 18.829 15.932 19.0555 16.4644 18.5344L16.7589 18.2286V11.1145C16.7589 6.36802 16.8042 3.89848 16.8835 3.68325C17.0421 3.25278 17.5292 2.74302 17.971 2.56177C18.5148 2.32388 54.6515 2.32388 55.1953 2.56177C55.6371 2.74302 56.1242 3.25278 56.2828 3.68325C56.3734 3.90981 56.4074 11.7602 56.4074 29.4774C56.4074 47.1946 56.3734 55.045 56.2828 55.2715C56.1242 55.702 55.6371 56.2118 55.1953 56.393C54.8894 56.529 52.6238 56.5516 41.9187 56.5516H29.0046L28.7101 56.8008C28.189 57.254 28.3929 58.2622 29.0273 58.4208C29.1632 58.4547 35.1671 58.4661 42.3605 58.4547L55.4445 58.4208L56.0789 58.1036C56.8378 57.7411 57.6875 56.8688 58.0273 56.1211L58.2765 55.5887V29.4774V3.36606L57.9707 2.74302C57.5742 1.93872 56.8718 1.23637 56.0789 0.83989L55.4445 0.534031L36.7531 0.511375C21.5847 0.500046 17.971 0.522705 17.5859 0.635986Z" fill="#A452D7"/>
<path d="M19.8745 4.54409C19.3308 4.79331 19.0929 5.04253 18.855 5.60894C18.7077 5.94878 18.6851 6.68511 18.6851 10.1855C18.6851 14.9546 18.7077 15.0226 19.6026 15.623L20.0897 15.9402H36.5835H53.0772L53.5644 15.623C54.4706 15.0226 54.4819 14.9546 54.4819 10.1628C54.4819 6.33393 54.4593 5.93745 54.2667 5.51831C54.0175 4.97456 53.7683 4.73667 53.2019 4.49878C52.8394 4.35151 50.9136 4.32886 36.5608 4.32886C21.0526 4.32886 20.305 4.34019 19.8745 4.54409ZM41.8964 6.33393C41.8964 6.39058 40.7069 8.10112 39.2683 10.1628L36.6288 13.9011L28.6198 13.9351L20.6108 13.9578V10.1062V6.25464H31.2593C37.1159 6.25464 41.9077 6.28862 41.8964 6.33393ZM47.6851 6.32261C47.6851 6.36792 46.4956 8.10112 45.0569 10.1742L42.4175 13.9464L40.6843 13.9578H38.9511L39.5401 13.1308C39.8573 12.689 41.0694 10.9558 42.2249 9.29058L44.3433 6.25464H46.0198C46.9374 6.25464 47.6851 6.28862 47.6851 6.32261ZM52.5562 10.1062V13.9578H48.6933C46.3483 13.9578 44.853 13.9125 44.8757 13.8558C44.8983 13.7992 46.0878 12.066 47.5151 10.0042L50.1206 6.26597L51.344 6.25464H52.5562V10.1062Z" fill="#A452D7"/>
<path d="M33.4116 18.9308C32.6187 19.18 31.939 19.7691 31.5312 20.5281C31.3386 20.8906 31.3159 21.2191 31.3159 24.1531C31.3159 27.2457 31.3272 27.4042 31.5651 27.8347C31.8483 28.3671 32.4034 28.9109 32.9585 29.2054C33.321 29.398 33.6495 29.4207 36.5835 29.4207C39.5175 29.4207 39.846 29.398 40.2085 29.2054C40.7636 28.9109 41.3187 28.3671 41.6019 27.8347C41.8397 27.4042 41.8511 27.2457 41.8511 24.1531C41.8511 21.0605 41.8397 20.9019 41.6019 20.4714C41.3187 19.939 40.7636 19.3953 40.2085 19.1007C39.8573 18.9082 39.4948 18.8855 36.7534 18.8628C35.0769 18.8515 33.5702 18.8855 33.4116 18.9308ZM39.7101 21.1285C39.9819 21.4457 39.9819 21.457 39.9819 24.1644V26.8945L39.6534 27.223L39.3249 27.5515H36.5835H33.8421L33.5136 27.223L33.1851 26.8945V24.1871C33.1851 21.2871 33.219 21.1058 33.7968 20.8679C33.9214 20.8113 35.2468 20.7773 36.7308 20.7886L39.4382 20.8113L39.7101 21.1285Z" fill="#A452D7"/>
<path d="M45.9858 18.9308C45.2042 19.1687 44.5132 19.7578 44.1054 20.5281C43.9128 20.8906 43.8901 21.2191 43.8901 24.1531C43.8901 27.2457 43.9015 27.4042 44.1394 27.8347C44.4226 28.3671 44.9776 28.9109 45.5327 29.2054C45.8952 29.398 46.2237 29.4207 49.1577 29.4207C52.0917 29.4207 52.4202 29.398 52.7827 29.2054C53.3378 28.9109 53.8929 28.3671 54.1761 27.8347C54.414 27.4042 54.4253 27.2003 54.4593 24.4589C54.5046 20.9472 54.4366 20.5621 53.5983 19.7238C52.7714 18.8968 52.3862 18.8289 49.0558 18.8402C47.5265 18.8402 46.1444 18.8855 45.9858 18.9308ZM52.239 21.0718C52.4995 21.321 52.4995 21.3664 52.4995 24.1644V27.0078L52.1823 27.2796C51.8651 27.5515 51.8538 27.5515 49.1464 27.5515H46.4163L46.0878 27.223L45.7593 26.8945V24.1531V21.4117L46.0991 21.0832L46.4276 20.7433L49.203 20.7773C51.9218 20.8113 51.9897 20.8113 52.239 21.0718Z" fill="#A452D7"/>
<path d="M11.9444 20.8339C6.82411 21.0945 2.712 22.1027 1.21669 23.4507C0.265125 24.3117 0.333093 22.8956 0.333093 39.6499C0.333093 54.116 0.344421 54.5351 0.548328 54.9542C1.57919 56.9593 6.14442 58.2394 13.0772 58.4433C17.7784 58.5792 22.6722 57.9902 25.4362 56.948C26.8409 56.4156 27.7245 55.7925 28.087 55.0675C28.3136 54.6484 28.3136 54.2972 28.3136 39.6046V24.5722L28.0304 24.0964C27.2261 22.7144 24.5413 21.6949 20.3272 21.1511C17.7444 20.8226 14.5046 20.698 11.9444 20.8339ZM17.0421 22.7937C21.0862 23.0429 24.6432 23.7906 25.9573 24.6628C26.4784 25.0027 26.5011 25.1953 26.0479 25.5124C24.3487 26.7246 18.8772 27.6081 13.5417 27.5402L11.514 27.5062L11.2534 27.8234C10.9022 28.2199 10.9022 28.6956 11.2534 29.1035L11.5253 29.4206L13.4397 29.4546C18.3108 29.5566 23.3179 28.8656 25.9686 27.7328L26.3878 27.5515V29.3074V31.0632L25.8667 31.4031C25.3343 31.7316 23.7936 32.2867 22.6722 32.5359C21.6979 32.7624 21.3241 33.5328 21.8905 34.1898C22.0944 34.4277 22.253 34.4843 22.6042 34.4843C23.1026 34.473 24.6999 34.0312 25.7081 33.6234L26.3878 33.3402V35.0734C26.3878 37.0898 26.3878 37.0785 25.153 37.5769C22.6948 38.5851 18.9225 39.1062 14.1761 39.1062H11.5366L11.2647 39.3894C10.8456 39.7972 10.8796 40.3636 11.344 40.7488L11.7065 41.0546L15.1163 40.998C18.6054 40.9413 20.2366 40.7941 22.5362 40.341C23.8729 40.0691 25.3343 39.6386 25.9686 39.3214L26.3878 39.1062V40.8507V42.6066L26.014 42.8898C25.4929 43.2863 24.7339 43.5921 23.2839 43.9773C21.9018 44.3511 21.63 44.5437 21.63 45.1781C21.63 45.6085 21.9245 45.971 22.355 46.0843C22.6948 46.1636 24.3487 45.7558 25.4136 45.3253C25.8554 45.1441 26.2518 44.9968 26.3085 44.9968C26.3538 44.9968 26.3878 45.7898 26.3878 46.7527V48.5085L25.9573 48.7804C24.9944 49.3808 22.6608 50.0265 20.2026 50.3663C18.2882 50.6269 14.8444 50.8081 13.1565 50.7288L11.6499 50.6496L11.3214 50.9894C10.9249 51.3859 10.8796 51.8617 11.1968 52.2581C11.446 52.5753 12.1483 52.6773 14.0401 52.6886C18.6847 52.7226 23.5218 51.9863 26.1952 50.8308C26.3765 50.7515 26.3878 50.8761 26.3878 52.5074V54.2746L26.0479 54.5124C23.7823 56.1324 15.5241 56.9933 9.33895 56.2683C5.84989 55.8605 3.02919 55.0562 2.39481 54.2972C2.24755 54.1046 2.19091 50.7742 2.3495 50.7742C2.39481 50.7742 2.7913 50.9214 3.23309 51.114C4.04872 51.4538 5.86122 51.9523 6.80145 52.0769C7.25458 52.1449 7.35653 52.1109 7.67372 51.8503C7.95692 51.6124 8.03622 51.4538 8.03622 51.1593C8.03622 50.5476 7.68505 50.2871 6.56356 50.0605C5.06825 49.7433 3.47098 49.1996 2.87059 48.8144L2.31552 48.4519L2.28153 46.7074C2.25887 45.0874 2.2702 44.9742 2.45145 45.0421C2.56473 45.0761 3.16512 45.28 3.78817 45.4953C6.58622 46.4695 11.7292 47.0132 16.2718 46.832C17.9936 46.7527 18.1182 46.73 18.3901 46.4808C18.7753 46.1183 18.7979 45.4839 18.4241 45.1328C18.1749 44.8949 18.0843 44.8949 14.8331 44.8949C11.31 44.8949 9.21434 44.7363 6.91473 44.3058C5.29481 44.0113 3.26708 43.3542 2.712 42.9464L2.25887 42.6179V40.8734V39.1402L3.31239 39.5367C4.64911 40.0351 6.337 40.4656 6.9827 40.4656C7.61708 40.4656 8.03622 40.0917 8.03622 39.5253C8.03622 38.9476 7.68505 38.6984 6.48426 38.4378C4.69442 38.0527 3.26708 37.5429 2.58739 37.0558L2.25887 36.8292V35.0734V33.3288L2.67801 33.5101C4.10536 34.1331 6.42762 34.6769 8.94247 34.9714C10.755 35.1867 15.4335 35.3226 17.0307 35.198C17.9936 35.13 18.1862 35.0847 18.4241 34.8468C18.7526 34.5183 18.7753 33.9179 18.4694 33.5441L18.2542 33.2722L15.3202 33.3062C12.4089 33.3515 10.3245 33.2382 8.2288 32.921C5.72528 32.5585 3.60692 31.9468 2.68934 31.3464L2.25887 31.0632V29.296C2.25887 27.6535 2.2702 27.5288 2.46278 27.6081C3.17645 27.9253 5.29481 28.5824 6.0538 28.741C7.46981 29.0242 8.03622 28.7976 8.03622 27.914C8.03622 27.3023 7.68505 27.0644 6.45028 26.8265C4.68309 26.4753 2.90458 25.807 2.46278 25.3199C2.2702 25.1046 2.2702 25.0933 2.51942 24.8554C3.34637 24.0738 6.64286 23.2242 10.0753 22.9183C12.7374 22.6691 14.5952 22.6464 17.0421 22.7937Z" fill="#A452D7"/>
<path d="M33.4116 31.505C32.6187 31.7542 31.939 32.3433 31.5312 33.1023C31.3386 33.4648 31.3159 33.7933 31.3159 36.7273C31.3159 39.8199 31.3272 39.9785 31.5651 40.4089C31.8483 40.9414 32.4034 41.4851 32.9585 41.7796C33.321 41.9722 33.6495 41.9949 36.5835 41.9949C39.5175 41.9949 39.846 41.9722 40.2085 41.7796C40.7636 41.4851 41.3187 40.9414 41.6019 40.4089C41.8397 39.9785 41.8511 39.8199 41.8511 36.7273C41.8511 33.6347 41.8397 33.4761 41.6019 33.0457C41.3187 32.5132 40.7636 31.9695 40.2085 31.675C39.8573 31.4824 39.4948 31.4597 36.7534 31.4371C35.0769 31.4257 33.5702 31.4597 33.4116 31.505ZM39.6534 33.6574L39.9819 33.9859V36.7273V39.4687L39.6534 39.7972L39.3249 40.1257H36.5835H33.8421L33.5136 39.7972L33.1851 39.4687V36.7273V33.9859L33.5136 33.6574L33.8421 33.3289H36.5835H39.3249L39.6534 33.6574Z" fill="#A452D7"/>
<path d="M45.9858 31.505C45.1929 31.7542 44.5132 32.3433 44.1054 33.1023C43.9128 33.4648 43.8901 33.7933 43.8901 36.7273C43.8901 39.8199 43.9015 39.9785 44.1394 40.4089C44.4226 40.9414 44.9776 41.4851 45.5327 41.7796C45.8952 41.9722 46.2237 41.9949 49.1577 41.9949C52.0917 41.9949 52.4202 41.9722 52.7827 41.7796C53.3378 41.4851 53.8929 40.9414 54.1761 40.4089C54.414 39.9785 54.4253 39.8199 54.4253 36.7273C54.4253 33.6347 54.414 33.4761 54.1761 33.0457C53.8929 32.5132 53.3378 31.9695 52.7827 31.675C52.4315 31.4824 52.069 31.4597 49.3276 31.4371C47.6511 31.4257 46.1444 31.4597 45.9858 31.505ZM52.1823 33.6007L52.4995 33.8726V36.7273V39.582L52.1823 39.8539C51.8651 40.1257 51.8538 40.1257 49.1464 40.1257H46.4163L46.0878 39.7972L45.7593 39.4687V36.7273V33.9859L46.0878 33.6574L46.4163 33.3289H49.1464C51.8538 33.3289 51.8651 33.3289 52.1823 33.6007Z" fill="#A452D7"/>
<path d="M33.4116 44.0794C32.63 44.3287 31.939 44.9064 31.5312 45.6767C31.3386 46.0392 31.3159 46.3677 31.3159 49.3017C31.3159 52.3943 31.3272 52.5529 31.5651 52.9834C31.8483 53.5158 32.4034 54.0595 32.9585 54.3541C33.3323 54.558 33.8308 54.5693 42.5761 54.6033C53.1226 54.6373 52.6581 54.6712 53.587 53.731C54.4366 52.8927 54.5046 52.5076 54.4593 48.9959C54.4253 46.2544 54.414 46.0505 54.1761 45.6201C53.8929 45.0876 53.3378 44.5439 52.7827 44.2494C52.4089 44.0455 51.9218 44.0341 43.0405 44.0115C37.8976 44.0001 33.5702 44.0341 33.4116 44.0794ZM52.2276 46.2431L52.5675 46.5716L52.5335 49.347C52.4995 52.0658 52.4995 52.1337 52.239 52.383L51.9784 52.6435H42.8593H33.7288L33.4569 52.3263C33.1851 52.0091 33.1851 51.9978 33.1851 49.2904V46.5603L33.5136 46.2318L33.8421 45.9033H42.8706H51.8991L52.2276 46.2431Z" fill="#A452D7"/>
</g>
<defs>
<clipPath id="clip0_2018_5293">
<rect width="58" height="58" fill="white" transform="translate(0.333008 0.477783)"/>
</clipPath>
</defs>
</svg>
