<svg width="58" height="59" viewBox="0 0 58 59" fill="none" xmlns="http://www.w3.org/2000/svg">
<path d="M26.4349 33.3517V22.3012C26.4349 19.0215 23.7667 16.3533 20.4868 16.3533H15.3283C12.7358 16.3533 10.4526 18.0502 9.66919 20.4701C8.06828 20.4459 6.53955 21.0588 5.38594 22.2113L1.73876 25.8583C-0.579662 28.178 -0.579549 31.9513 1.73887 34.2697L4.3044 36.8351C4.26259 37.1807 4.26237 37.5111 4.26237 37.8165C4.26237 40.084 5.74963 41.8859 6.9447 43.3338C8.74229 45.5123 10.6302 47.0007 13.3759 47.9054C14.0271 48.1204 15.3054 48.3565 17.1752 48.6068C17.5949 48.6632 17.9114 49.0253 17.9114 49.4493L17.9111 53.8961C17.9111 56.2387 19.817 58.1445 22.1598 58.1445H27.3049C29.6476 58.1445 31.5535 56.2387 31.5535 53.8961V52.1766C31.5535 51.9513 31.464 51.7351 31.3047 51.5758C31.1453 51.4165 30.9292 51.3269 30.7038 51.3269H19.6109V49.4492C19.6109 48.1777 18.661 47.0915 17.4011 46.9223C15.685 46.6926 14.4448 46.4686 13.9084 46.2914C11.4508 45.4816 9.85341 44.1878 8.25545 42.252C7.18036 40.9495 5.96184 39.4731 5.96184 37.8164C5.96184 37.0429 5.96184 36.484 6.56289 35.8895C7.10321 35.355 9.12785 34.5454 10.4866 35.8897L11.3825 36.7753C14.265 39.6274 18.0974 41.1981 22.1737 41.1981C22.3991 41.1981 22.6152 41.1086 22.7745 40.9493C22.9339 40.7899 23.0234 40.5738 23.0234 40.3484C23.0234 40.0889 22.9203 39.9347 22.8205 39.7855C21.3552 37.5944 21.3179 36.995 21.317 36.9723C21.317 36.1524 21.317 35.6576 21.8876 35.0758C22.9394 34.0029 24.7462 33.9581 25.8981 35.102C28.4492 37.6259 29.8541 40.9798 29.8541 44.5458V48.2074C29.8541 48.4328 29.9436 48.6489 30.1029 48.8082C30.2623 48.9676 30.4784 49.0571 30.7038 49.0571C30.9292 49.0571 31.1453 48.9676 31.3047 48.8082C31.464 48.6489 31.5535 48.4328 31.5535 48.2074V44.5458C31.5535 40.5225 29.9696 36.7395 27.0947 33.895C26.8919 33.6941 26.671 33.5122 26.4349 33.3517ZM29.8542 53.8963C29.8542 55.3019 28.7107 56.4454 27.305 56.4454H22.1599C20.7542 56.4454 19.6107 55.3019 19.6107 53.8963V53.0265H29.8542V53.8963ZM15.3283 18.0527H20.4868C22.8296 18.0527 24.7355 19.9585 24.7355 22.3012V32.643C24.5458 32.6064 24.1579 32.5707 24.1579 32.5707L13.798 22.2113C13.1106 21.524 12.2856 21.0252 11.3753 20.7409C12.0055 19.1478 13.5673 18.0527 15.3283 18.0527ZM20.6744 33.8862C19.6178 34.9633 19.6178 36.0308 19.6178 36.9726C19.6178 37.3391 19.7335 37.9739 20.573 39.4072C17.5534 39.0586 14.7592 37.7258 12.5778 35.5673L11.6818 34.6816C9.57991 32.602 6.5008 33.5605 5.3677 34.6816C5.22234 34.8253 4.98702 35.1143 4.98702 35.1143L2.94063 33.068C1.28455 31.412 1.28466 28.7166 2.94063 27.0597L6.58747 23.413C8.28525 21.7169 10.9704 21.7868 12.5964 23.4128L22.0983 32.9143C21.5642 33.1412 21.0803 33.4715 20.6744 33.8862ZM56.3 11.7356C55.9194 11.3556 55.6176 10.9041 55.4118 10.4072C55.2059 9.91028 55.1002 9.37763 55.1005 8.83977C55.1005 5.63711 52.5075 3.04373 49.3042 3.04373C48.7661 3.0441 48.2332 2.93826 47.736 2.73226C47.2389 2.52626 46.7873 2.22416 46.4072 1.84328C44.1452 -0.416108 40.4839 -0.427664 38.2089 1.8443C37.8285 2.22479 37.3769 2.52657 36.8798 2.73238C36.3827 2.93819 35.8499 3.04399 35.3119 3.04373C32.109 3.04373 29.5155 5.63665 29.5155 8.83977C29.5164 9.76799 29.2009 10.6688 28.621 11.3936C28.4818 11.5697 28.418 11.7937 28.4434 12.0167C28.4687 12.2397 28.5813 12.4436 28.7565 12.5838C28.9318 12.7241 29.1554 12.7894 29.3785 12.7654C29.6017 12.7414 29.8063 12.6301 29.9476 12.4557C30.769 11.4295 31.216 10.154 31.215 8.83966C31.215 6.57619 33.0481 4.743 35.3119 4.743C36.8238 4.743 38.3091 4.15014 39.411 3.04554C41.0161 1.44234 43.6043 1.44551 45.2051 3.04441C45.743 3.5832 46.382 4.01057 47.0854 4.30204C47.7888 4.59351 48.5428 4.74336 49.3042 4.743C51.5678 4.743 53.4011 6.57596 53.4011 8.83966C53.4011 10.3807 54.0137 11.8552 55.0987 12.9374C56.699 14.5394 56.7018 17.1275 55.0997 18.7312C54.561 19.2695 54.1337 19.9086 53.8422 20.6121C53.5507 21.3157 53.4008 22.0698 53.4011 22.8313C53.4011 25.0947 51.568 26.9279 49.3042 26.9279C47.7773 26.9279 46.2834 27.547 45.2062 28.6255C43.6042 30.2255 41.016 30.2285 39.4121 28.6265C38.8739 28.0878 38.2347 27.6605 37.5311 27.369C36.8275 27.0776 36.0734 26.9277 35.3119 26.9279C33.0483 26.9279 31.215 25.095 31.215 22.8313C31.215 21.3258 30.6264 19.8385 29.5175 18.7324C28.7433 17.9573 28.3169 16.9285 28.3169 15.8355C28.3169 15.6101 28.2274 15.394 28.0681 15.2346C27.9087 15.0753 27.6926 14.9858 27.4672 14.9858C27.2418 14.9858 27.0257 15.0753 26.8664 15.2346C26.707 15.394 26.6175 15.6101 26.6175 15.8355C26.6175 17.382 27.2203 18.8374 28.3162 19.9344C28.6967 20.3147 28.9985 20.7664 29.2043 21.2634C29.4101 21.7605 29.5159 22.2933 29.5156 22.8313C29.5156 26.0339 32.1087 28.6273 35.312 28.6273C35.8503 28.627 36.3833 28.7329 36.8807 28.9389C37.378 29.145 37.8297 29.447 38.2101 29.8279C40.4774 32.092 44.1386 32.0938 46.4081 29.8271C47.1697 29.0646 48.2253 28.6273 49.3043 28.6273C52.5071 28.6273 55.1007 26.0344 55.1007 22.8313C55.1004 22.293 55.2063 21.76 55.4123 21.2627C55.6183 20.7654 55.9204 20.3136 56.3013 19.9333C58.5652 17.6666 58.5677 14.0056 56.3 11.7356Z" fill="#A452D7"/>
<path d="M37.4802 25.7895V7.37009H44.3743C46.7074 7.37009 48.5406 7.89635 49.8738 8.94889C51.2246 10.0014 51.8999 11.5101 51.8999 13.4748C51.8999 15.4571 51.2246 16.9745 49.8738 18.027C48.5406 19.0795 46.7074 19.6058 44.3743 19.6058H38.559L39.4274 18.6848V25.7895H37.4802ZM39.4274 18.8427L38.559 17.9481H44.4006C46.1899 17.9481 47.5582 17.5621 48.5055 16.7903C49.4703 16.0184 49.9527 14.922 49.9527 13.5011C49.9527 12.0802 49.4703 10.9838 48.5055 10.2119C47.5582 9.44007 46.1899 9.05414 44.4006 9.05414H38.559L39.4274 8.13318V18.8427ZM34.7173 22.3687V21.2109H45.3479V22.3687H34.7173Z" fill="#A452D7"/>
</svg>
