<svg width="58" height="59" viewBox="0 0 58 59" fill="none" xmlns="http://www.w3.org/2000/svg">
<path d="M25.3378 53.6445C22.3429 53.6445 19.5359 53.0803 16.9167 51.9518C14.2975 50.8234 12.01 49.2722 10.0541 47.2983C8.09827 45.3244 6.55947 43.0167 5.43773 40.3752C4.31599 37.7337 3.75602 34.9025 3.75782 31.8818C3.75961 28.8611 4.31869 26.0282 5.43503 23.3831C6.55138 20.7379 8.08928 18.4284 10.0487 16.4545C12.0082 14.4788 14.2957 12.9267 16.9113 11.7983C19.5269 10.6698 22.333 10.1047 25.3297 10.1029C26.2735 10.1029 27.184 10.16 28.0613 10.2743C28.9385 10.3886 29.8257 10.5582 30.7227 10.7832V13.6406C29.8239 13.3685 28.9368 13.1644 28.0613 13.0283C27.1858 12.8922 26.2753 12.8242 25.3297 12.8242C20.0968 12.8242 15.6422 14.6784 11.9659 18.3867C8.28972 22.095 6.45251 26.5906 6.45431 31.8737C6.45611 37.1567 8.29332 41.6524 11.9659 45.3607C15.6386 49.069 20.0932 50.9231 25.3297 50.9231C30.5663 50.9231 35.0209 49.069 38.6936 45.3607C42.3662 41.6524 44.2034 37.1531 44.2052 31.8628C44.2052 31.3711 44.1827 30.8686 44.1378 30.3552C44.0928 29.8417 44.0083 29.3365 43.8843 28.8394H46.6105C46.7003 29.2675 46.7722 29.7556 46.8262 30.3035C46.8765 30.8514 46.9017 31.3748 46.9017 31.8737C46.9017 34.898 46.3426 37.73 45.2245 40.3697C44.1063 43.0094 42.5693 45.3181 40.6135 47.2956C38.6558 49.2695 36.3692 50.8206 33.7536 51.9491C31.138 53.0794 28.3327 53.6445 25.3378 53.6445ZM33.8129 42.3618L23.9815 32.4397V18.2669H26.678V31.3076L35.722 40.435L33.8129 42.3618ZM44.2052 23.3939V15.2299H36.1157V12.5085H44.2052V4.34448H46.9017V12.5085H54.9911V15.2299H46.9017V23.3939H44.2052Z" fill="#A452D7"/>
</svg>
