<svg width="44" height="44" viewBox="0 0 44 44" fill="none" xmlns="http://www.w3.org/2000/svg">
<rect x="43.5" y="43.5" width="43" height="43" rx="21.5" transform="rotate(-180 43.5 43.5)" stroke="#A452D7"/>
<path d="M29.551 24.7781C29.2667 25.0266 28.882 25.166 28.481 25.166C28.08 25.166 27.6953 25.0266 27.4109 24.7781L21.9621 20.0555L16.5891 24.7781C16.3047 25.0266 15.92 25.166 15.519 25.166C15.118 25.166 14.7333 25.0266 14.449 24.7781C14.3067 24.6541 14.1938 24.5065 14.1167 24.3439C14.0397 24.1814 14 24.007 14 23.8309C14 23.6548 14.0397 23.4804 14.1167 23.3178C14.1938 23.1553 14.3067 23.0077 14.449 22.8837L20.8844 17.2273C21.0255 17.1023 21.1934 17.003 21.3783 16.9353C21.5633 16.8676 21.7617 16.8327 21.9621 16.8327C22.1624 16.8327 22.3608 16.8676 22.5458 16.9353C22.7307 17.003 22.8986 17.1023 23.0397 17.2273L29.551 22.8837C29.6933 23.0077 29.8062 23.1553 29.8833 23.3179C29.9603 23.4804 30 23.6548 30 23.8309C30 24.007 29.9603 24.1814 29.8833 24.3439C29.8062 24.5065 29.6933 24.6541 29.551 24.7781Z" fill="#A452D7"/>
</svg>
