<svg width="76" height="46" viewBox="0 0 76 46" fill="none" xmlns="http://www.w3.org/2000/svg">
<g clip-path="url(#clip0_111_660)">
<circle cx="23.9347" cy="22.6715" r="21.823" fill="white" stroke="#A452D7" stroke-width="1.40794"/>
<g clip-path="url(#clip1_111_660)">
<path d="M31.9532 11.6705C30.5986 11.9518 29.4407 12.2096 29.3751 12.2377C29.3095 12.2705 29.2251 12.3643 29.1782 12.4486C29.0564 12.6971 29.1314 12.8471 29.6329 13.3486L30.0782 13.7939L26.5532 17.3189L23.0236 20.8486L21.1017 18.9314C19.0626 16.9018 19.0579 16.8971 18.7579 17.0283C18.6829 17.0611 17.1782 18.533 15.4157 20.2955L12.2189 23.4971V23.6986C12.2189 23.9752 12.4111 24.1768 12.6736 24.1768C12.847 24.1768 12.9314 24.0924 15.8845 21.1439L18.922 18.1064L20.8579 20.0424L22.7939 21.9736H23.0236H23.2532L27.1626 18.0689C29.3095 15.9268 31.1001 14.1127 31.1376 14.0424C31.2736 13.7846 31.2267 13.658 30.8704 13.2783C30.5611 12.9549 30.547 12.9268 30.6501 12.9033C31.1142 12.7955 33.8939 12.2283 33.9079 12.2377C33.9173 12.2518 33.3548 15.0174 33.2423 15.4955C33.2189 15.5986 33.1907 15.5846 32.8673 15.2752C32.4876 14.9189 32.3611 14.8721 32.1032 15.008C32.0329 15.0455 29.9611 17.0939 27.5001 19.5549L23.0236 24.0361L21.1251 22.1377C20.0564 21.0736 19.1657 20.2205 19.0907 20.1924C18.997 20.1596 18.9126 20.1596 18.8095 20.1924C18.6032 20.258 11.0657 27.8049 11.0189 27.9877C10.9814 28.1424 11.0704 28.3721 11.2064 28.4658C11.2579 28.5033 11.3892 28.5361 11.4923 28.5361C11.6751 28.5361 11.7079 28.508 15.2892 24.9268C17.2767 22.9393 18.922 21.3174 18.9454 21.3174C18.9689 21.3174 19.8548 22.1799 20.9142 23.2393L22.8407 25.1611H23.047H23.2579L27.8048 20.6143L32.3517 16.0674L32.797 16.5127C33.2986 17.0143 33.4486 17.0893 33.697 16.9674C33.7814 16.9205 33.8751 16.8361 33.9079 16.7705C33.9361 16.7049 34.1986 15.5096 34.4892 14.1174C34.972 11.7971 35.0095 11.5674 34.9532 11.4314C34.8876 11.2674 34.6954 11.1455 34.522 11.1502C34.4611 11.1502 33.3079 11.3846 31.9532 11.6705Z" fill="#A452D7"/>
<path d="M29.1874 23.783C28.3249 24.0174 27.753 24.9127 27.9124 25.7752C27.9733 26.1127 28.1186 26.4268 28.3108 26.6424L28.4468 26.8018L28.3108 26.9611C28.1186 27.1768 27.9733 27.4908 27.9124 27.8283C27.8233 28.3111 27.9827 28.8971 28.3108 29.2674L28.4468 29.4268L28.3108 29.5861C27.9827 29.9564 27.8233 30.5424 27.9124 31.0252C27.9733 31.3627 28.1186 31.6768 28.3108 31.8924L28.4468 32.0518L28.3108 32.2111C27.6124 32.9986 27.8046 34.2783 28.7046 34.8549C29.1311 35.1314 29.2858 35.1455 31.4374 35.1455C33.589 35.1455 33.7436 35.1314 34.1702 34.8549C35.0702 34.2783 35.2624 32.9986 34.564 32.2111L34.428 32.0518L34.564 31.8924C34.8921 31.5221 35.0515 30.9361 34.9624 30.4533C34.9015 30.1158 34.7561 29.8018 34.564 29.5861L34.428 29.4268L34.564 29.2674C34.8921 28.8971 35.0515 28.3111 34.9624 27.8283C34.9015 27.4908 34.7561 27.1768 34.564 26.9611L34.428 26.8018L34.564 26.6424C34.6436 26.558 34.7515 26.3893 34.8077 26.2721C35.2952 25.2643 34.7468 24.0643 33.664 23.7783C33.2655 23.6752 29.5765 23.6799 29.1874 23.783ZM33.5936 24.7486C34.2124 25.0627 34.2124 25.9158 33.5936 26.2252C33.3874 26.333 33.364 26.333 31.4374 26.333C29.5108 26.333 29.4874 26.333 29.2811 26.2252C28.6624 25.9158 28.6624 25.0627 29.2811 24.7486C29.4874 24.6455 29.5108 24.6455 31.4374 24.6455C33.364 24.6455 33.3874 24.6455 33.5936 24.7486ZM33.5936 27.3736C34.2124 27.6877 34.2124 28.5408 33.5936 28.8502C33.3874 28.958 33.364 28.958 31.4374 28.958C29.5108 28.958 29.4874 28.958 29.2811 28.8502C28.6624 28.5408 28.6624 27.6877 29.2811 27.3736C29.4874 27.2705 29.5108 27.2705 31.4374 27.2705C33.364 27.2705 33.3874 27.2705 33.5936 27.3736ZM33.5936 29.9986C34.2124 30.3127 34.2124 31.1658 33.5936 31.4752C33.3874 31.583 33.364 31.583 31.4374 31.583C29.5108 31.583 29.4874 31.583 29.2811 31.4752C28.6624 31.1658 28.6624 30.3127 29.2811 29.9986C29.4874 29.8955 29.5108 29.8955 31.4374 29.8955C33.364 29.8955 33.3874 29.8955 33.5936 29.9986ZM33.5936 32.6236C34.2124 32.9377 34.2124 33.7908 33.5936 34.1049C33.3874 34.208 33.364 34.208 31.4374 34.208C29.5108 34.208 29.4874 34.208 29.2811 34.1049C28.6624 33.7908 28.6624 32.9377 29.2811 32.6236C29.4874 32.5205 29.5108 32.5205 31.4374 32.5205C33.364 32.5205 33.3874 32.5205 33.5936 32.6236Z" fill="#A452D7"/>
<path d="M11.1641 24.5705C11.0141 24.7205 10.9766 24.8939 11.0469 25.0721C11.1266 25.2549 11.2626 25.3486 11.4688 25.3486C11.6751 25.3486 11.811 25.2549 11.8907 25.0721C12.0126 24.7721 11.7969 24.458 11.4688 24.458C11.3282 24.458 11.2485 24.4861 11.1641 24.5705Z" fill="#A452D7"/>
<path d="M20.7597 26.403C19.5222 26.7451 19.0534 28.2264 19.8644 29.2483L20.005 29.4264L19.8644 29.5998C19.3206 30.2936 19.3206 31.1842 19.8644 31.8733L20.005 32.0514L19.8644 32.2248C19.194 33.078 19.3769 34.278 20.2675 34.8451C20.7222 35.1405 20.8394 35.1498 23.1269 35.1358C25.1472 35.1217 25.1847 35.1217 25.4472 35.0139C25.7612 34.8873 26.1409 34.5592 26.3097 34.2733C26.6987 33.6076 26.6144 32.7358 26.1034 32.1826L25.9815 32.0514L26.1034 31.9201C26.3706 31.6248 26.5628 31.142 26.5628 30.7389C26.5628 30.3358 26.3706 29.853 26.1034 29.553L25.9815 29.4264L26.1034 29.2951C26.6144 28.742 26.6987 27.8701 26.3097 27.2045C26.1409 26.9186 25.7612 26.5905 25.4472 26.4639C25.1847 26.3561 25.1519 26.3561 23.094 26.3467C21.3972 26.3373 20.9612 26.3514 20.7597 26.403ZM25.1565 27.3733C25.7753 27.6873 25.7753 28.5405 25.1565 28.8498C24.9503 28.9576 24.9269 28.9576 23.005 28.9576C21.1206 28.9576 21.055 28.953 20.8534 28.8592C20.2394 28.5592 20.2394 27.6733 20.8534 27.3686C21.0503 27.2748 21.1065 27.2701 23.0003 27.2701C24.9269 27.2701 24.9503 27.2701 25.1565 27.3733ZM25.1565 29.9983C25.7753 30.3123 25.7753 31.1655 25.1565 31.4748C24.9503 31.5826 24.9269 31.5826 23.005 31.5826C21.1206 31.5826 21.055 31.578 20.8534 31.4842C20.2394 31.1842 20.2394 30.2983 20.8534 29.9936C21.0503 29.8998 21.1065 29.8951 23.0003 29.8951C24.9269 29.8951 24.9503 29.8951 25.1565 29.9983ZM25.1565 32.6233C25.7753 32.9373 25.7753 33.7905 25.1565 34.1045C24.9503 34.2076 24.9269 34.2076 23.005 34.2076C21.1206 34.2076 21.055 34.203 20.8534 34.1092C20.2394 33.8092 20.2394 32.9233 20.8534 32.6186C21.0503 32.5248 21.1065 32.5201 23.0003 32.5201C24.9269 32.5201 24.9503 32.5201 25.1565 32.6233Z" fill="#A452D7"/>
<path d="M12.3124 29.033C11.4499 29.2674 10.878 30.1627 11.0374 31.0252C11.0983 31.3627 11.2436 31.6768 11.4358 31.8924L11.5718 32.0518L11.4358 32.2111C10.7374 32.9986 10.9296 34.2783 11.8296 34.8549C12.2561 35.1314 12.4108 35.1455 14.5624 35.1455C16.714 35.1455 16.8686 35.1314 17.2952 34.8549C18.1952 34.2783 18.3874 32.9986 17.689 32.2111L17.553 32.0518L17.689 31.8924C17.7686 31.808 17.8765 31.6393 17.9327 31.5221C18.4202 30.5143 17.8718 29.3143 16.789 29.0283C16.3905 28.9252 12.7015 28.9299 12.3124 29.033ZM16.7186 29.9986C17.3374 30.3127 17.3374 31.1658 16.7186 31.4752C16.5124 31.583 16.489 31.583 14.5624 31.583C12.6358 31.583 12.6124 31.583 12.4061 31.4752C11.7874 31.1658 11.7874 30.3127 12.4061 29.9986C12.6124 29.8955 12.6358 29.8955 14.5624 29.8955C16.489 29.8955 16.5124 29.8955 16.7186 29.9986ZM16.7186 32.6236C17.3374 32.9377 17.3374 33.7908 16.7186 34.1049C16.5124 34.208 16.489 34.208 14.5624 34.208C12.6358 34.208 12.6124 34.208 12.4061 34.1049C11.7874 33.7908 11.7874 32.9377 12.4061 32.6236C12.6124 32.5205 12.6358 32.5205 14.5624 32.5205C16.489 32.5205 16.5124 32.5205 16.7186 32.6236Z" fill="#A452D7"/>
</g>
</g>
<g clip-path="url(#clip2_111_660)">
<ellipse cx="54.2204" cy="22.6715" rx="22.175" ry="22.527" fill="white"/>
<path d="M54.2202 0.848633C66.0679 0.848633 75.6919 10.6089 75.6919 22.6719C75.6917 34.7347 66.0678 44.4941 54.2202 44.4941C42.3727 44.494 32.7497 34.7347 32.7495 22.6719C32.7495 10.6089 42.3726 0.84875 54.2202 0.848633Z" stroke="#181818" stroke-opacity="0.7" stroke-width="1.40794"/>
<path d="M51.8502 25.0313V20.0773C51.8502 18.607 50.654 17.4109 49.1837 17.4109H46.8713C45.7092 17.4109 44.6857 18.1716 44.3345 19.2565C43.6168 19.2456 42.9315 19.5204 42.4144 20.0371L40.7794 21.672C39.7402 22.7119 39.7402 24.4035 40.7795 25.4428L41.9296 26.5929C41.9108 26.7478 41.9107 26.8959 41.9107 27.0328C41.9107 28.0494 42.5774 28.8572 43.1131 29.5062C43.919 30.4829 44.7653 31.1501 45.9961 31.5557C46.288 31.6521 46.8611 31.7579 47.6992 31.8701C47.8873 31.8954 48.0293 32.0577 48.0293 32.2478L48.0291 34.2413C48.0291 35.2915 48.8835 36.1459 49.9337 36.1459H52.2401C53.2903 36.1459 54.1447 35.2915 54.1447 34.2413V33.4705C54.1447 33.3694 54.1046 33.2725 54.0331 33.2011C53.9617 33.1297 53.8648 33.0895 53.7638 33.0895H48.7911V32.2478C48.7911 31.6778 48.3653 31.1908 47.8005 31.115C47.0312 31.012 46.4753 30.9116 46.2348 30.8321C45.1331 30.4691 44.417 29.8891 43.7007 29.0213C43.2188 28.4373 42.6725 27.7755 42.6725 27.0328C42.6725 26.686 42.6725 26.4355 42.942 26.1689C43.1842 25.9293 44.0918 25.5664 44.7009 26.1691L45.1025 26.5661C46.3947 27.8447 48.1126 28.5488 49.9399 28.5488C50.041 28.5488 50.1378 28.5087 50.2093 28.4372C50.2807 28.3658 50.3208 28.2689 50.3208 28.1679C50.3208 28.0515 50.2746 27.9824 50.2299 27.9155C49.573 26.9333 49.5563 26.6645 49.5559 26.6544C49.5559 26.2868 49.5559 26.065 49.8117 25.8042C50.2832 25.3232 51.0931 25.3031 51.6095 25.8159C52.7531 26.9474 53.3829 28.4509 53.3829 30.0496V31.6911C53.3829 31.7921 53.423 31.889 53.4944 31.9604C53.5659 32.0319 53.6627 32.072 53.7638 32.072C53.8648 32.072 53.9617 32.0319 54.0331 31.9604C54.1046 31.889 54.1447 31.7921 54.1447 31.6911V30.0496C54.1447 28.2459 53.4347 26.55 52.1459 25.2748C52.055 25.1847 51.956 25.1032 51.8502 25.0313ZM53.3829 34.2414C53.3829 34.8715 52.8703 35.3841 52.2402 35.3841H49.9337C49.3036 35.3841 48.791 34.8715 48.791 34.2414V33.8515H53.3829V34.2414ZM46.8713 18.1727H49.1837C50.2339 18.1727 51.0883 19.0271 51.0883 20.0773V24.7135C51.0033 24.6971 50.8294 24.6811 50.8294 24.6811L46.1853 20.0371C45.8772 19.7289 45.5073 19.5053 45.0993 19.3779C45.3818 18.6637 46.0819 18.1727 46.8713 18.1727ZM49.2678 25.2709C48.7942 25.7538 48.7942 26.2323 48.7942 26.6545C48.7942 26.8188 48.846 27.1034 49.2224 27.7459C47.8688 27.5897 46.6162 26.9922 45.6383 26.0245L45.2367 25.6274C44.2944 24.6952 42.9142 25.1249 42.4062 25.6274C42.341 25.6919 42.2356 25.8215 42.2356 25.8215L41.3182 24.9041C40.5758 24.1617 40.5759 22.9534 41.3182 22.2106L42.953 20.5758C43.7141 19.8154 44.9178 19.8468 45.6466 20.5757L49.9062 24.8352C49.6667 24.9369 49.4498 25.085 49.2678 25.2709ZM65.2379 15.3408C65.0673 15.1704 64.932 14.968 64.8398 14.7453C64.7475 14.5225 64.7001 14.2837 64.7002 14.0426C64.7002 12.6068 63.5378 11.4442 62.1019 11.4442C61.8607 11.4444 61.6218 11.397 61.3989 11.3046C61.1761 11.2123 60.9736 11.0768 60.8032 10.9061C59.7892 9.8932 58.148 9.88802 57.1281 10.9065C56.9576 11.0771 56.7552 11.2124 56.5323 11.3047C56.3095 11.3969 56.0706 11.4444 55.8295 11.4442C54.3937 11.4442 53.2311 12.6066 53.2311 14.0426C53.2315 14.4587 53.0901 14.8625 52.8301 15.1875C52.7677 15.2664 52.7391 15.3668 52.7505 15.4668C52.7619 15.5668 52.8123 15.6582 52.8909 15.7211C52.9694 15.7839 53.0696 15.8132 53.1697 15.8024C53.2697 15.7917 53.3614 15.7418 53.4248 15.6636C53.793 15.2036 53.9934 14.6318 53.9929 14.0425C53.9929 13.0278 54.8146 12.206 55.8295 12.206C56.5072 12.206 57.173 11.9402 57.667 11.4451C58.3865 10.7263 59.5467 10.7278 60.2643 11.4445C60.5055 11.6861 60.7919 11.8777 61.1073 12.0083C61.4226 12.139 61.7606 12.2062 62.1019 12.206C63.1166 12.206 63.9384 13.0277 63.9384 14.0425C63.9384 14.7334 64.213 15.3944 64.6994 15.8796C65.4168 16.5977 65.418 17.758 64.6999 18.4769C64.4584 18.7182 64.2668 19.0047 64.1362 19.3201C64.0055 19.6355 63.9383 19.9736 63.9384 20.315C63.9384 21.3297 63.1167 22.1515 62.1019 22.1515C61.4174 22.1515 60.7478 22.429 60.2649 22.9125C59.5467 23.6298 58.3865 23.6311 57.6675 22.913C57.4262 22.6715 57.1397 22.4799 56.8243 22.3493C56.5089 22.2186 56.1708 22.1514 55.8295 22.1515C54.8147 22.1515 53.9929 21.3298 53.9929 20.315C53.9929 19.6401 53.7291 18.9733 53.232 18.4774C52.8849 18.13 52.6938 17.6688 52.6938 17.1788C52.6938 17.0777 52.6537 16.9808 52.5822 16.9094C52.5108 16.838 52.4139 16.7978 52.3129 16.7978C52.2119 16.7978 52.115 16.838 52.0435 16.9094C51.9721 16.9808 51.932 17.0777 51.932 17.1788C51.932 17.8721 52.2022 18.5245 52.6934 19.0163C52.864 19.1868 52.9993 19.3893 53.0916 19.6121C53.1838 19.835 53.2313 20.0738 53.2312 20.315C53.2312 21.7507 54.3936 22.9133 55.8295 22.9133C56.0708 22.9132 56.3098 22.9607 56.5327 23.053C56.7556 23.1454 56.9582 23.2808 57.1287 23.4515C58.145 24.4666 59.7863 24.4674 60.8036 23.4512C61.145 23.1094 61.6182 22.9133 62.1019 22.9133C63.5377 22.9133 64.7003 21.7509 64.7003 20.315C64.7002 20.0737 64.7476 19.8347 64.84 19.6118C64.9324 19.3888 65.0678 19.1863 65.2385 19.0158C66.2534 17.9997 66.2545 16.3584 65.2379 15.3408Z" fill="#5E5E5E"/>
<path d="M56.4826 21.4224V13.3223H59.5144C60.5404 13.3223 61.3465 13.5537 61.9328 14.0166C62.5268 14.4794 62.8239 15.1429 62.8239 16.0069C62.8239 16.8786 62.5268 17.5459 61.9328 18.0088C61.3465 18.4716 60.5404 18.7031 59.5144 18.7031H56.957L57.3389 18.2981V21.4224H56.4826ZM57.3389 18.3675L56.957 17.9741H59.5259C60.3128 17.9741 60.9145 17.8043 61.3311 17.4649C61.7554 17.1255 61.9676 16.6433 61.9676 16.0185C61.9676 15.3936 61.7554 14.9114 61.3311 14.572C60.9145 14.2326 60.3128 14.0629 59.5259 14.0629H56.957L57.3389 13.6578V18.3675ZM55.2676 19.9181V19.4089H59.9425V19.9181H55.2676Z" fill="#5E5E5E"/>
</g>
<defs>
<clipPath id="clip0_111_660">
<rect width="45.3917" height="45.054" fill="white" transform="translate(0 0.144531)"/>
</clipPath>
<clipPath id="clip1_111_660">
<rect width="24" height="24" fill="white" transform="translate(11 11.1445)"/>
</clipPath>
<clipPath id="clip2_111_660">
<rect width="45.3917" height="45.054" fill="white" transform="translate(30.6084 0.144531)"/>
</clipPath>
</defs>
</svg>
