<svg width="20" height="21" viewBox="0 0 20 21" fill="none" xmlns="http://www.w3.org/2000/svg">
<path d="M8.25 14.5295L16.245 6.53453L15.3612 5.64953L8.25 12.7595L4.6875 9.19703L3.8025 10.082L8.25 14.5295ZM2.02 20.1445C1.44417 20.1445 0.96375 19.952 0.57875 19.567C0.19375 19.182 0.000833333 18.7012 0 18.1245V2.16453C0 1.5887 0.192916 1.10828 0.57875 0.723281C0.964583 0.338281 1.445 0.145365 2.02 0.144531H17.9812C18.5562 0.144531 19.0367 0.337448 19.4225 0.723281C19.8083 1.10911 20.0008 1.58953 20 2.16453V18.1258C20 18.7008 19.8075 19.1812 19.4225 19.567C19.0375 19.9529 18.5567 20.1454 17.98 20.1445H2.02Z" fill="#A452D7"/>
</svg>
