<svg width="25" height="33" viewBox="0 0 25 33" fill="none" xmlns="http://www.w3.org/2000/svg">
<path d="M13.2264 24.9649C13.0632 25.0821 12.8674 25.1451 12.6664 25.1451C12.4655 25.1451 12.2696 25.0821 12.1064 24.9649C7.27732 21.5228 2.15223 14.4427 7.33332 9.32657C8.75569 7.9274 10.6712 7.14366 12.6664 7.14453C14.6665 7.14453 16.5855 7.92955 17.9995 9.32557C23.1806 14.4417 18.0555 21.5208 13.2264 24.9649Z" stroke="white" stroke-width="1.12502" stroke-linecap="round" stroke-linejoin="round"/>
<path d="M12.6665 16.1448C13.197 16.1448 13.7057 15.9341 14.0808 15.5591C14.4559 15.184 14.6666 14.6753 14.6666 14.1448C14.6666 13.6144 14.4559 13.1057 14.0808 12.7306C13.7057 12.3555 13.197 12.1448 12.6665 12.1448C12.1361 12.1448 11.6274 12.3555 11.2523 12.7306C10.8772 13.1057 10.6665 13.6144 10.6665 14.1448C10.6665 14.6753 10.8772 15.184 11.2523 15.5591C11.6274 15.9341 12.1361 16.1448 12.6665 16.1448Z" stroke="white" stroke-width="1.12502" stroke-linecap="round" stroke-linejoin="round"/>
</svg>
