<svg width="76" height="46" viewBox="0 0 76 46" fill="none" xmlns="http://www.w3.org/2000/svg">
<g clip-path="url(#clip0_43_307)">
<circle cx="23.9347" cy="22.527" r="21.823" fill="white" stroke="#A452D7" stroke-width="1.40794"/>
<path d="M31.4569 12.9648V11.7221C31.4569 11.3253 31.1342 11.0026 30.7374 11.0026H28.7688C28.5194 11.0026 28.299 11.1285 28.1674 11.32C24.969 10.4602 21.5694 11.3587 19.2219 13.7062C15.6987 17.2293 15.6151 22.8993 18.9753 26.5234L18.2745 27.2057L17.8538 26.785C17.4975 26.4287 16.9174 26.4287 16.561 26.785L11.3991 31.9469C10.867 32.4791 10.867 33.345 11.3991 33.8771L12.15 34.628C12.6597 35.1377 13.489 35.1377 13.9987 34.628L19.2013 29.4254C19.5577 29.0689 19.5576 28.489 19.2013 28.1326L18.7718 27.7031L19.4723 27.021C21.0154 28.4522 23.0058 29.3158 25.1156 29.4618C25.2086 29.4682 25.3004 29.4374 25.3707 29.3762C25.441 29.315 25.4842 29.2284 25.4906 29.1354C25.4971 29.0424 25.4663 28.9506 25.4051 28.8803C25.3438 28.8099 25.2572 28.7668 25.1642 28.7604C20.7765 28.4568 17.2214 24.8272 17.2214 20.2435C17.2214 14.5873 22.6002 10.5138 28.0391 12.0138V12.9178C23.0892 11.3783 18.079 15.1041 18.079 20.2532C18.079 24.4747 21.505 27.9333 25.7592 27.9333C29.3779 27.9333 31.2881 25.543 31.3614 25.5064L31.3624 25.5052C31.3651 25.5024 31.3677 25.4995 31.3703 25.4965C32.7046 24.0692 33.4392 22.2077 33.4392 20.2532C33.4392 18.3416 32.7364 16.5187 31.457 15.1043V13.8798C33.2508 15.4851 34.2969 17.7632 34.2969 20.2434C34.2969 24.6066 31.0416 28.2315 26.7406 28.7246C26.648 28.7352 26.5634 28.7822 26.5054 28.8552C26.4474 28.9283 26.4208 29.0213 26.4314 29.114C26.4366 29.1598 26.4508 29.2042 26.4732 29.2446C26.4956 29.285 26.5258 29.3206 26.5619 29.3493C26.5981 29.378 26.6396 29.3993 26.684 29.412C26.7284 29.4247 26.7748 29.4285 26.8207 29.4232C31.4739 28.8898 35 24.9684 35 20.2434C34.9999 17.3573 33.6904 14.7151 31.4569 12.9648ZM13.5014 34.1307C13.266 34.3661 12.8828 34.3661 12.6473 34.1307L11.8964 33.3798C11.6384 33.1218 11.6384 32.702 11.8964 32.444L14.6051 29.7353L16.2509 31.3811L13.5014 34.1307ZM16.7482 30.884L15.1023 29.2382L15.6001 28.7404L17.2459 30.3862L16.7482 30.884ZM18.7041 28.9281L17.7432 29.8889L16.0974 28.2431L17.0584 27.2822C17.1399 27.2006 17.2752 27.2007 17.3567 27.2822L18.7042 28.6297C18.7856 28.7114 18.7856 28.8465 18.7041 28.9281ZM22.6096 26.4777C21.8517 26.0923 21.1701 25.5724 20.5981 24.9433V19.7307C20.5981 19.716 20.6101 19.704 20.6248 19.704H22.6097V26.4777H22.6096ZM25.3243 27.2157C24.6362 27.1741 23.9582 27.0296 23.3128 26.7871V17.0646C23.3128 17.0575 23.3156 17.0507 23.3206 17.0457C23.3256 17.0407 23.3324 17.0379 23.3394 17.0378H25.3243V27.2157ZM25.3243 14.3985V16.3347H23.3394C22.937 16.3347 22.6097 16.6621 22.6097 17.0646V19.0008H20.6248C20.2223 19.0008 19.8949 19.3282 19.8949 19.7307V24.0292C16.9091 19.4085 20.2459 13.2763 25.7591 13.2763C26.5415 13.2763 27.3072 13.405 28.0391 13.6582V13.6686H26.0543C25.6517 13.6686 25.3243 13.9961 25.3243 14.3985ZM28.0391 26.8483C27.3909 27.0726 26.713 27.1995 26.0275 27.2249V14.3986C26.0275 14.3838 26.0395 14.3718 26.0543 14.3718H28.0391V26.8483H28.0391ZM32.736 20.2532C32.736 21.7092 32.2869 23.1084 31.4569 24.2798V21.0428C31.4569 20.9966 31.4479 20.9509 31.4302 20.9082C31.4125 20.8656 31.3866 20.8268 31.354 20.7942C31.3213 20.7615 31.2826 20.7356 31.2399 20.718C31.1973 20.7003 31.1515 20.6912 31.1054 20.6912C31.0592 20.6912 31.0135 20.7003 30.9708 20.718C30.9282 20.7356 30.8894 20.7615 30.8568 20.7942C30.8241 20.8268 30.7982 20.8656 30.7806 20.9082C30.7629 20.9509 30.7538 20.9966 30.7538 21.0428V25.1234C30.1718 25.7208 29.4831 26.2091 28.7423 26.5608V11.7324C28.7423 11.7254 28.7451 11.7186 28.7501 11.7136C28.7551 11.7086 28.7618 11.7057 28.7689 11.7057H30.7374C30.7464 11.7057 30.7538 11.7131 30.7538 11.7221V19.4021C30.7538 19.4483 30.7629 19.494 30.7806 19.5366C30.7983 19.5793 30.8242 19.6181 30.8568 19.6507C30.8895 19.6833 30.9282 19.7092 30.9709 19.7269C31.0135 19.7446 31.0593 19.7537 31.1054 19.7537C31.1516 19.7537 31.1973 19.7446 31.24 19.7269C31.2826 19.7092 31.3214 19.6833 31.354 19.6507C31.3867 19.6181 31.4126 19.5793 31.4302 19.5366C31.4479 19.494 31.457 19.4483 31.457 19.4021V16.2267C32.2869 17.3981 32.736 18.7973 32.736 20.2532Z" fill="#A452D7"/>
</g>
<g clip-path="url(#clip1_43_307)">
<ellipse cx="54.2204" cy="22.527" rx="22.175" ry="22.527" fill="white"/>
<path d="M54.2202 0.704102C66.0679 0.704102 75.6919 10.4643 75.6919 22.5273C75.6917 34.5902 66.0678 44.3496 54.2202 44.3496C42.3727 44.3495 32.7497 34.5901 32.7495 22.5273C32.7495 10.4644 42.3726 0.704219 54.2202 0.704102Z" stroke="#181818" stroke-opacity="0.7" stroke-width="1.40794"/>
<g clip-path="url(#clip2_43_307)">
<path d="M50.5435 16.6548L53.222 19.3334" stroke="#5E5E5E" stroke-width="0.413793" stroke-miterlimit="10" stroke-linecap="round" stroke-linejoin="round"/>
<path d="M50.5435 20.4429C52.6356 20.4429 54.3316 18.7469 54.3316 16.6548C54.3316 14.5627 52.6356 12.8667 50.5435 12.8667C48.4514 12.8667 46.7554 14.5627 46.7554 16.6548C46.7554 18.7469 48.4514 20.4429 50.5435 20.4429Z" stroke="#5E5E5E" stroke-width="0.413793" stroke-miterlimit="10" stroke-linecap="round" stroke-linejoin="round"/>
<path d="M50.5435 12.8667V16.6548H54.3316M58.6879 17.4124H55.7521M61.2449 15.8972H55.7521M61.2449 18.9277H55.7521M58.6879 20.4429H55.7521M46.7554 21.9582H54.3316M62.7602 21.9583V18.2351M60.8661 14.3819H56.1309C56.0812 14.3819 56.0319 14.3721 55.986 14.3531C55.94 14.3341 55.8983 14.3062 55.8631 14.271C55.8279 14.2358 55.8 14.1941 55.781 14.1481C55.7619 14.1021 55.7521 14.0529 55.7521 14.0031V13.2455C55.7521 13.1958 55.7619 13.1465 55.781 13.1006C55.8 13.0546 55.8279 13.0129 55.8631 12.9777C55.8983 12.9425 55.94 12.9146 55.986 12.8956C56.0319 12.8765 56.0812 12.8667 56.1309 12.8667H60.8661C60.9665 12.8667 61.0629 12.9067 61.1339 12.9777C61.2049 13.0487 61.2449 13.1451 61.2449 13.2455V14.0032C61.2449 14.0529 61.2351 14.1022 61.216 14.1481C61.197 14.1941 61.1691 14.2358 61.1339 14.271C61.0987 14.3062 61.057 14.3341 61.011 14.3531C60.9651 14.3721 60.9158 14.3819 60.8661 14.3819Z" stroke="#5E5E5E" stroke-width="0.413793" stroke-miterlimit="10" stroke-linecap="round" stroke-linejoin="round"/>
<path d="M45.2403 21.1358V12.1091C45.2403 11.6905 45.5792 11.3516 45.9978 11.3516H62.0028C62.4214 11.3516 62.7603 11.6905 62.7603 12.1091V16.5898M45.2403 24.8206V22.7811M45.2402 33.3011V33.8908C45.2402 34.3094 45.5793 34.6485 45.9979 34.6485H58.0252M57.2201 32.7544V27.0722C57.2201 26.9718 57.26 26.8754 57.3311 26.8044C57.4021 26.7333 57.4985 26.6934 57.5989 26.6934H63.2811C63.3816 26.6934 63.4779 26.7333 63.549 26.8044C63.62 26.8754 63.6599 26.9718 63.6599 27.0722V32.7544C63.6599 32.8549 63.62 32.9512 63.549 33.0223C63.4779 33.0933 63.3816 33.1332 63.2811 33.1332H57.5989C57.4985 33.1332 57.4021 33.0933 57.3311 33.0223C57.26 32.9512 57.2201 32.8549 57.2201 32.7544ZM57.2201 24.7993V23.8523C57.2201 23.8026 57.2299 23.7533 57.249 23.7074C57.268 23.6614 57.2959 23.6197 57.3311 23.5845C57.3662 23.5493 57.408 23.5214 57.454 23.5024C57.4999 23.4833 57.5492 23.4735 57.5989 23.4735H63.2811C63.3309 23.4735 63.3801 23.4833 63.4261 23.5024C63.472 23.5214 63.5138 23.5493 63.549 23.5845C63.5841 23.6197 63.612 23.6614 63.6311 23.7074C63.6501 23.7533 63.6599 23.8026 63.6599 23.8523V24.7993C63.6599 24.8998 63.62 24.9962 63.549 25.0672C63.4779 25.1382 63.3816 25.1781 63.2811 25.1781H57.5989C57.4985 25.1781 57.4021 25.1382 57.3311 25.0672C57.26 24.9962 57.2201 24.8998 57.2201 24.7993Z" stroke="#5E5E5E" stroke-width="0.413793" stroke-miterlimit="10" stroke-linecap="round" stroke-linejoin="round"/>
<path d="M65.1751 30.2329V33.9857C65.1751 34.3518 64.8783 34.6485 64.5122 34.6485H56.3677C56.0016 34.6485 55.7044 34.3518 55.7044 33.9857V22.6213C55.7044 22.2552 56.0016 21.9585 56.3677 21.9585H64.5122C64.8783 21.9585 65.1751 22.2552 65.1751 22.6213V28.5876M60.4398 26.6935V33.1333M63.6597 29.9134H57.2199M53.6577 28.3097L52.1361 28.1625C52.0429 27.7745 51.8894 27.4035 51.6811 27.0632L52.6528 25.8834C52.7126 25.8108 52.7433 25.7184 52.7387 25.6243C52.7342 25.5303 52.6948 25.4413 52.6282 25.3747L52.0989 24.8454C52.0323 24.7789 51.9433 24.7395 51.8493 24.7349C51.7553 24.7304 51.6629 24.761 51.5902 24.8209L50.4105 25.7925C50.0701 25.5842 49.6991 25.4307 49.3111 25.3376L49.1639 23.8159C49.1548 23.7222 49.1112 23.6352 49.0415 23.5719C48.9718 23.5087 48.881 23.4736 48.7869 23.4736H48.0383C47.9442 23.4736 47.8534 23.5087 47.7837 23.5719C47.714 23.6352 47.6703 23.7222 47.6612 23.8159L47.5141 25.3376C47.126 25.4307 46.7551 25.5842 46.4147 25.7925L45.2349 24.8209C45.1623 24.761 45.0699 24.7304 44.9759 24.7349C44.8818 24.7394 44.7928 24.7789 44.7263 24.8454L44.197 25.3747C44.1305 25.4413 44.0911 25.5303 44.0865 25.6243C44.082 25.7184 44.1126 25.8108 44.1725 25.8834L45.1441 27.0632C44.9358 27.4035 44.7823 27.7745 44.6892 28.1625L43.1675 28.3097C43.0738 28.3188 42.9868 28.3624 42.9235 28.4321C42.8602 28.5019 42.8252 28.5926 42.8252 28.6868V29.4353C42.8252 29.5295 42.8603 29.6203 42.9235 29.69C42.9868 29.7597 43.0738 29.8033 43.1675 29.8124L44.6892 29.9596C44.7823 30.3476 44.9358 30.7186 45.1441 31.0589L44.1725 32.2387C44.1126 32.3114 44.082 32.4037 44.0865 32.4978C44.0911 32.5918 44.1305 32.6808 44.197 32.7474L44.7264 33.2767C44.7929 33.3433 44.8819 33.3827 44.976 33.3872C45.07 33.3917 45.1624 33.3611 45.235 33.3013L46.4148 32.3296C46.7551 32.5379 47.1261 32.6915 47.5141 32.7846L47.6613 34.3062C47.6704 34.3999 47.7141 34.4869 47.7838 34.5502C47.8535 34.6135 47.9442 34.6485 48.0384 34.6485H48.7869C48.8811 34.6485 48.9719 34.6135 49.0416 34.5502C49.1113 34.4869 49.1549 34.3999 49.164 34.3062L49.3112 32.7846C49.6992 32.6914 50.0702 32.5379 50.4106 32.3296L51.5903 33.3013C51.663 33.3611 51.7553 33.3918 51.8494 33.3872C51.9434 33.3827 52.0324 33.3433 52.099 33.2767L52.6283 32.7474C52.6949 32.6808 52.7343 32.5918 52.7388 32.4978C52.7434 32.4037 52.7127 32.3114 52.6529 32.2387L51.6812 31.0589C51.8895 30.7186 52.0431 30.3476 52.1362 29.9596L53.6578 29.8124C53.7515 29.8033 53.8385 29.7597 53.9018 29.69C53.9651 29.6203 54.0002 29.5295 54.0001 29.4353V28.6868C54.0001 28.5926 53.9651 28.5018 53.9018 28.4321C53.8385 28.3624 53.7515 28.3188 53.6577 28.3097ZM48.4126 30.9763C47.3549 30.9763 46.4974 30.1188 46.4974 29.061C46.4974 28.0033 47.3549 27.1458 48.4126 27.1458C49.4703 27.1458 50.3278 28.0033 50.3278 29.061C50.3278 30.1188 49.4704 30.9763 48.4126 30.9763Z" stroke="#5E5E5E" stroke-width="0.413793" stroke-miterlimit="10" stroke-linecap="round" stroke-linejoin="round"/>
</g>
</g>
<defs>
<clipPath id="clip0_43_307">
<rect width="45.3917" height="45.054" fill="white"/>
</clipPath>
<clipPath id="clip1_43_307">
<rect width="45.3917" height="45.054" fill="white" transform="translate(30.6084)"/>
</clipPath>
<clipPath id="clip2_43_307">
<rect width="24" height="24" fill="white" transform="translate(42 11)"/>
</clipPath>
</defs>
</svg>
