<svg width="59" height="59" viewBox="0 0 59 59" fill="none" xmlns="http://www.w3.org/2000/svg">
<path d="M49.7706 4.89085V1.8889C49.7706 0.930428 48.9906 0.150714 48.0317 0.150714H43.2743C42.6715 0.150714 42.139 0.454987 41.8208 0.917627C34.0915 -1.1595 25.8758 1.01097 20.2025 6.68171C11.6883 15.1923 11.4862 28.8889 19.6066 37.6435L17.9131 39.2916L16.8965 38.2754C16.0353 37.4145 14.6334 37.4145 13.7722 38.2754L1.29756 50.7447C0.011492 52.0302 0.011492 54.1218 1.29756 55.4073L3.11219 57.2212C4.34397 58.4523 6.34797 58.4523 7.57986 57.2212L20.1529 44.6535C21.0141 43.7925 21.0139 42.3915 20.1529 41.5307L19.1148 40.4931L20.8077 38.8455C24.5369 42.3026 29.3471 44.3889 34.4458 44.7416C34.6705 44.757 34.8923 44.6827 35.0622 44.5348C35.2321 44.3869 35.3364 44.1777 35.3521 43.953C35.3676 43.7283 35.2932 43.5066 35.1452 43.3367C34.9973 43.1668 34.7879 43.0627 34.563 43.0471C23.9595 42.3137 15.3681 33.546 15.3681 22.4734C15.3681 8.81015 28.3668 -1.03002 41.5108 2.59351V4.77723C29.5486 1.05844 17.4407 10.0585 17.4407 22.497C17.4407 32.6946 25.7201 41.0493 36.001 41.0493C44.7463 41.0493 49.3625 35.2752 49.5397 35.1866L49.542 35.1839C49.5486 35.177 49.555 35.1699 49.5612 35.1627C52.7859 31.7149 54.5611 27.2182 54.5611 22.497C54.5611 17.8791 52.8626 13.4757 49.7709 10.059V7.10108C54.1058 10.9789 56.6337 16.482 56.6337 22.4731C56.6337 33.0131 48.767 41.7695 38.3728 42.9607C38.149 42.9864 37.9445 43.0999 37.8043 43.2763C37.6642 43.4527 37.5998 43.6775 37.6254 43.9012C37.6381 44.0121 37.6725 44.1193 37.7267 44.2169C37.7808 44.3144 37.8537 44.4003 37.9411 44.4697C38.0284 44.5391 38.1286 44.5906 38.236 44.6212C38.3433 44.6519 38.4555 44.6611 38.5664 44.6483C49.8115 43.3596 58.3329 33.8872 58.333 22.4733C58.3328 15.5016 55.1681 9.11884 49.7706 4.89085ZM6.37812 56.0198C5.80909 56.5886 4.88307 56.5886 4.31393 56.0198L2.4993 54.206C1.87576 53.5827 1.87576 52.5687 2.4993 51.9454L9.04533 45.4022L13.0227 49.3779L6.37812 56.0198ZM14.2244 48.177L10.247 44.2013L11.45 42.9988L15.4274 46.9746L14.2244 48.177ZM18.9512 43.4522L16.6291 45.7733L12.6517 41.7976L14.974 39.4764C15.171 39.2794 15.498 39.2795 15.6949 39.4764L18.9515 42.7315C19.1483 42.9287 19.1483 43.2552 18.9512 43.4522ZM28.3897 37.533C26.558 36.602 24.9108 35.346 23.5284 33.8264V21.2348C23.5284 21.1991 23.5574 21.1701 23.593 21.1701H28.3898V37.533H28.3897ZM34.9502 39.3158C33.2872 39.2151 31.6486 38.8661 30.089 38.2803V14.7943C30.089 14.7773 30.0958 14.7609 30.1078 14.7488C30.1199 14.7367 30.1362 14.7299 30.1533 14.7298H34.9502V39.3158ZM34.9502 8.35408V13.0312H30.1533C29.1808 13.0312 28.3898 13.8222 28.3898 14.7943V19.4715H23.593C22.6203 19.4715 21.8291 20.2624 21.8291 21.2347V31.6184C14.6134 20.4564 22.6772 5.64326 36.0009 5.64326C37.8915 5.64326 39.7421 5.95411 41.5108 6.56582V6.59086H36.7142C35.7413 6.59086 34.9502 7.3819 34.9502 8.35408ZM41.5108 38.4282C39.9443 38.9701 38.3061 39.2767 36.6496 39.338V8.35419C36.6496 8.31862 36.6786 8.28962 36.7142 8.28962H41.5109V38.4282H41.5108ZM52.8616 22.497C52.8616 26.0142 51.7764 29.3939 49.7706 32.2237V24.4042C49.7706 24.2927 49.7486 24.1822 49.706 24.0792C49.6633 23.9762 49.6007 23.8825 49.5218 23.8037C49.4429 23.7248 49.3492 23.6623 49.2461 23.6196C49.1431 23.5769 49.0326 23.5549 48.921 23.5549C48.8094 23.5549 48.6989 23.5769 48.5959 23.6196C48.4928 23.6623 48.3991 23.7248 48.3202 23.8037C48.2413 23.8825 48.1787 23.9762 48.136 24.0792C48.0933 24.1822 48.0714 24.2927 48.0714 24.4042V34.2616C46.6648 35.7047 45.0005 36.8842 43.2102 37.7338V1.91382C43.2102 1.89675 43.217 1.88038 43.229 1.86828C43.241 1.85618 43.2574 1.84934 43.2745 1.84925H48.0318C48.0536 1.84925 48.0715 1.86704 48.0715 1.8889V20.4409C48.0715 20.5525 48.0935 20.6629 48.1362 20.7659C48.1788 20.869 48.2414 20.9626 48.3203 21.0415C48.3992 21.1203 48.4929 21.1829 48.596 21.2256C48.699 21.2683 48.8095 21.2902 48.9211 21.2902C49.0327 21.2902 49.1432 21.2683 49.2462 21.2256C49.3493 21.1829 49.443 21.1203 49.5219 21.0415C49.6008 20.9626 49.6634 20.869 49.7061 20.7659C49.7488 20.6629 49.7707 20.5525 49.7707 20.4409V12.7703C51.7763 15.6001 52.8616 18.9798 52.8616 22.497Z" fill="#A452D7"/>
</svg>
