<svg width="57" height="58" viewBox="0 0 57 58" fill="none" xmlns="http://www.w3.org/2000/svg">
<path d="M56.2932 7.41832H45.8261L39.4351 1.02745C39.4265 1.01884 39.4161 1.01238 39.4073 1.00411C39.3832 0.981745 39.3577 0.961007 39.3309 0.942031C39.3186 0.933649 39.305 0.928098 39.2924 0.920961C39.2666 0.904709 39.2397 0.890323 39.2119 0.877914C39.1957 0.871231 39.1791 0.867946 39.1631 0.862735C39.1364 0.853672 39.11 0.843703 39.082 0.838153C39.0369 0.828849 38.9909 0.824181 38.9449 0.824219H21.7731C21.6821 0.824204 21.5919 0.842127 21.5078 0.876964C21.4237 0.911801 21.3473 0.962868 21.2829 1.02725C21.2185 1.09163 21.1675 1.16807 21.1326 1.25218C21.0978 1.3363 21.0799 1.42646 21.0799 1.5175V7.41832H1.03936C0.948318 7.41831 0.858165 7.43623 0.774052 7.47107C0.689939 7.5059 0.613514 7.55697 0.549142 7.62135C0.484771 7.68573 0.433716 7.76217 0.398893 7.84629C0.36407 7.9304 0.346162 8.02056 0.346192 8.1116V45.1743C0.346132 45.2653 0.36402 45.3555 0.398832 45.4396C0.433645 45.5238 0.484699 45.6002 0.549076 45.6646C0.613453 45.729 0.68989 45.7801 0.774017 45.8149C0.858143 45.8497 0.948309 45.8676 1.03936 45.8676H21.8415V50.2275C21.8304 52.1115 20.2991 53.6445 18.4289 53.6445H15.4513C15.3603 53.6445 15.2701 53.6624 15.186 53.6972C15.1019 53.732 15.0254 53.7831 14.9611 53.8474C14.8967 53.9118 14.8456 53.9883 14.8108 54.0724C14.776 54.1565 14.7581 54.2467 14.7582 54.3377V56.7715C14.7581 56.8625 14.776 56.9527 14.8108 57.0368C14.8456 57.1209 14.8966 57.1974 14.961 57.2618C15.0254 57.3261 15.1019 57.3772 15.186 57.412C15.2701 57.4468 15.3603 57.4647 15.4513 57.4646H41.8953C41.9863 57.4647 42.0765 57.4468 42.1606 57.412C42.2448 57.3772 42.3213 57.3261 42.3857 57.2618C42.4501 57.1974 42.5011 57.121 42.536 57.0368C42.5708 56.9527 42.5887 56.8625 42.5887 56.7715V54.3377C42.5887 54.2467 42.5708 54.1565 42.5359 54.0724C42.5011 53.9882 42.45 53.9118 42.3856 53.8474C42.3212 53.7831 42.2448 53.732 42.1606 53.6972C42.0765 53.6624 41.9863 53.6445 41.8953 53.6445H38.9043C37.0339 53.6445 35.5029 52.1115 35.4915 50.2318V45.8676H56.2933C56.3844 45.8676 56.4745 45.8497 56.5587 45.8149C56.6428 45.7801 56.7192 45.729 56.7836 45.6646C56.848 45.6002 56.899 45.5238 56.9338 45.4396C56.9687 45.3555 56.9865 45.2653 56.9865 45.1743V8.1116C56.9865 7.92773 56.9134 7.75139 56.7834 7.62138C56.6534 7.49136 56.4771 7.41832 56.2932 7.41832ZM22.4663 2.21123H38.2517V7.97589C38.2517 8.06695 38.2696 8.15713 38.3044 8.24127C38.3392 8.32541 38.3903 8.40186 38.4547 8.46626C38.519 8.53066 38.5955 8.58175 38.6796 8.6166C38.7637 8.65146 38.8539 8.6694 38.945 8.6694H42.1669C42.258 8.66941 42.3482 8.65148 42.4323 8.61664C42.5164 8.58179 42.5929 8.5307 42.6573 8.4663C42.7217 8.4019 42.7728 8.32544 42.8076 8.24129C42.8424 8.15715 42.8603 8.06696 42.8603 7.97589C42.8603 7.88483 42.8424 7.79466 42.8076 7.71052C42.7727 7.62639 42.7216 7.54994 42.6572 7.48555C42.5929 7.42116 42.5164 7.37009 42.4323 7.33525C42.3481 7.30041 42.258 7.28248 42.1669 7.2825H39.638V3.19134L44.7097 8.26295V32.775H31.7574C31.7038 32.657 31.6534 32.5369 31.5935 32.426C30.9348 30.7869 28.7415 29.347 24.8902 28.0254C24.7174 27.9324 24.6518 27.6458 24.628 27.4037C26.1418 25.7898 26.6587 23.4973 26.3535 19.8372C26.1759 17.3252 24.3268 16.0323 22.4663 15.776V2.21123ZM20.1198 26.633C18.7535 25.3182 18.2958 23.3182 18.5905 19.9348C18.7277 17.9851 20.288 17.1122 21.7732 17.1122C23.2656 17.1122 24.8328 17.9851 24.971 19.9436C25.2529 23.3282 24.7953 25.3284 23.4408 26.633C23.3736 26.6976 23.3202 26.7752 23.2837 26.8611C23.2472 26.9469 23.2284 27.0393 23.2286 27.1325C23.2286 28.518 23.8373 29.0777 24.3484 29.3034C24.3668 29.3112 24.3856 29.3184 24.4042 29.3246C28.6999 30.794 29.9904 32.1174 30.3168 32.9687C30.3278 32.9988 30.3416 33.0282 30.3573 33.0561C30.6526 33.5898 30.8474 34.2517 30.9363 35.0245C30.9185 35.5412 30.4927 35.9561 29.9714 35.9561H13.5883C13.0676 35.9561 12.642 35.5412 12.624 35.0245C12.7115 34.2586 12.9035 33.5934 13.1944 33.0461C13.207 33.0226 13.2177 32.9982 13.2276 32.9739C13.5646 32.1158 14.8661 30.7862 19.1552 29.3252C19.1744 29.3186 19.193 29.3111 19.2118 29.3032C19.9364 28.9832 20.3135 28.2567 20.3318 27.1439C20.3352 26.9513 20.2582 26.7665 20.1198 26.633ZM38.9042 55.031H41.202V56.0784H16.1445V55.031H18.4289C20.4593 55.031 22.2004 53.7473 22.8988 51.9449H30.1349C30.518 51.9449 30.8281 51.6347 30.8281 51.2516C30.8281 50.8685 30.518 50.5583 30.1349 50.5583H23.2099C23.2178 50.4502 23.2275 50.3421 23.228 50.2319V45.8677H34.1049V50.2361C34.1203 52.8801 36.2736 55.031 38.9042 55.031ZM55.6 44.4811H1.73241V8.80511H21.0799V15.776C19.2263 16.0331 17.3843 17.325 17.2078 19.8257C16.8896 23.483 17.4054 25.7754 18.9283 27.3994C18.9013 27.6458 18.8345 27.9351 18.6701 28.0253C14.8218 29.341 12.6232 30.7822 11.9519 32.429C11.5829 33.1353 11.3435 33.972 11.2404 34.9153C11.238 34.9404 11.2368 34.9656 11.2367 34.9909C11.2367 36.2878 12.2916 37.3426 13.5884 37.3426H29.9715C31.2685 37.3426 32.3239 36.2878 32.3239 34.9909C32.3239 34.9655 32.3223 34.9402 32.3202 34.9148C32.2921 34.6619 32.2521 34.4104 32.2004 34.1612H45.4032C45.4943 34.1612 45.5844 34.1433 45.6685 34.1085C45.7526 34.0737 45.829 34.0226 45.8934 33.9583C45.9578 33.8939 46.0088 33.8175 46.0437 33.7334C46.0785 33.6493 46.0964 33.5592 46.0964 33.4681V8.80511H55.6001L55.6 44.4811ZM53.3975 39.029C53.4886 39.029 53.5787 39.0469 53.6628 39.0817C53.747 39.1165 53.8234 39.1676 53.8878 39.232C53.9522 39.2964 54.0032 39.3728 54.038 39.4569C54.0728 39.5411 54.0907 39.6312 54.0907 39.7223C54.0907 39.8133 54.0728 39.9035 54.038 39.9876C54.0032 40.0717 53.9521 40.1482 53.8877 40.2125C53.8234 40.2769 53.7469 40.328 53.6628 40.3628C53.5787 40.3976 53.4885 40.4155 53.3975 40.4154H3.93539C3.84436 40.4155 3.75421 40.3976 3.6701 40.3627C3.58598 40.3279 3.50956 40.2769 3.44518 40.2125C3.38081 40.1481 3.32975 40.0717 3.29493 39.9876C3.26011 39.9035 3.2422 39.8133 3.24223 39.7223C3.24218 39.6312 3.26008 39.5411 3.2949 39.4569C3.32972 39.3728 3.38077 39.2964 3.44514 39.232C3.50952 39.1676 3.58595 39.1165 3.67007 39.0817C3.75419 39.0469 3.84435 39.029 3.93539 39.029H53.3975ZM30.1886 42.4416C30.1887 42.5326 30.1708 42.6228 30.136 42.7069C30.1012 42.7911 30.0502 42.8675 29.9858 42.9319C29.9214 42.9963 29.845 43.0473 29.7608 43.0821C29.6767 43.1169 29.5865 43.1348 29.4955 43.1347H27.9728C27.8817 43.1347 27.7915 43.1169 27.7074 43.0821C27.6233 43.0473 27.5468 42.9962 27.4824 42.9319C27.418 42.8675 27.367 42.7911 27.3321 42.7069C27.2973 42.6228 27.2794 42.5326 27.2795 42.4416C27.2794 42.3505 27.2973 42.2604 27.3322 42.1762C27.367 42.0921 27.4181 42.0157 27.4824 41.9513C27.5468 41.8869 27.6233 41.8358 27.7074 41.801C27.7915 41.7662 27.8817 41.7483 27.9728 41.7483H29.4955C29.5865 41.7483 29.6767 41.7662 29.7608 41.801C29.8449 41.8358 29.9214 41.8869 29.9857 41.9513C30.0501 42.0157 30.1012 42.0921 30.136 42.1763C30.1708 42.2604 30.1886 42.3506 30.1886 42.4416ZM24.4925 11.1438C24.4925 11.0527 24.5104 10.9625 24.5452 10.8784C24.58 10.7942 24.6311 10.7178 24.6955 10.6534C24.7599 10.5889 24.8363 10.5378 24.9204 10.503C25.0046 10.4681 25.0948 10.4502 25.1858 10.4502H27.4836C27.5747 10.4502 27.6649 10.4681 27.749 10.503C27.8331 10.5378 27.9096 10.5889 27.974 10.6534C28.0383 10.7178 28.0894 10.7942 28.1242 10.8784C28.159 10.9625 28.1769 11.0527 28.1769 11.1438C28.1769 11.2349 28.159 11.325 28.1242 11.4091C28.0893 11.4933 28.0383 11.5697 27.9739 11.6341C27.9095 11.6985 27.8331 11.7496 27.749 11.7844C27.6648 11.8193 27.5747 11.8372 27.4836 11.8372H25.1858C25.0948 11.8372 25.0046 11.8193 24.9205 11.7844C24.8364 11.7496 24.7599 11.6985 24.6956 11.6341C24.6312 11.5697 24.5801 11.4933 24.5453 11.4091C24.5104 11.325 24.4925 11.2349 24.4925 11.1438ZM24.4925 6.68426C24.4925 6.5932 24.5104 6.50302 24.5452 6.41888C24.5801 6.33474 24.6311 6.25829 24.6955 6.19389C24.7599 6.12949 24.8363 6.0784 24.9205 6.04354C25.0046 6.00869 25.0948 5.99075 25.1858 5.99075H33.3705C33.4616 5.99077 33.5517 6.00872 33.6358 6.04358C33.7199 6.07845 33.7963 6.12954 33.8607 6.19394C33.925 6.25834 33.976 6.33479 34.0108 6.41892C34.0456 6.50305 34.0635 6.59322 34.0635 6.68426C34.0635 6.77529 34.0457 6.86545 34.0109 6.94957C33.9761 7.0337 33.925 7.11014 33.8607 7.17453C33.7963 7.23892 33.7199 7.28999 33.6358 7.32482C33.5517 7.35965 33.4615 7.37757 33.3705 7.37754H25.1858C25.0948 7.37758 25.0046 7.35968 24.9205 7.32486C24.8363 7.29003 24.7599 7.23897 24.6955 7.17458C24.6311 7.1102 24.58 7.03375 24.5452 6.94962C24.5104 6.86549 24.4925 6.77531 24.4925 6.68426ZM29.7677 10.4502H42.004C42.0951 10.4502 42.1852 10.4681 42.2694 10.503C42.3535 10.5379 42.4299 10.589 42.4943 10.6534C42.5587 10.7178 42.6097 10.7943 42.6445 10.8784C42.6793 10.9626 42.6972 11.0527 42.6972 11.1438C42.6972 11.2348 42.6793 11.325 42.6445 11.4091C42.6096 11.4932 42.5586 11.5697 42.4942 11.6341C42.4298 11.6984 42.3534 11.7495 42.2693 11.7844C42.1852 11.8192 42.0951 11.8372 42.004 11.8372H29.7677C29.5838 11.8372 29.4074 11.7641 29.2774 11.6341C29.1474 11.5041 29.0743 11.3277 29.0743 11.1438C29.0743 11.0527 29.0922 10.9625 29.127 10.8784C29.1618 10.7942 29.2129 10.7177 29.2773 10.6533C29.3417 10.5889 29.4181 10.5378 29.5023 10.503C29.5864 10.4681 29.6766 10.4502 29.7677 10.4502ZM42.6972 15.6032C42.6972 15.6943 42.6793 15.7845 42.6445 15.8686C42.6097 15.9528 42.5587 16.0292 42.4943 16.0936C42.4299 16.158 42.3535 16.2091 42.2694 16.244C42.1852 16.2789 42.0951 16.2968 42.004 16.2969H30.9233C30.54 16.2969 30.23 15.9862 30.23 15.6032C30.23 15.2202 30.54 14.9097 30.9233 14.9097H42.004C42.0951 14.9097 42.1852 14.9277 42.2693 14.9626C42.3535 14.9974 42.4299 15.0485 42.4942 15.1129C42.5586 15.1773 42.6097 15.2537 42.6445 15.3379C42.6793 15.422 42.6972 15.5122 42.6972 15.6032ZM42.6972 20.0627C42.6972 20.1537 42.6793 20.2438 42.6444 20.3279C42.6096 20.412 42.5586 20.4885 42.4942 20.5528C42.4298 20.6172 42.3534 20.6683 42.2693 20.7031C42.1852 20.7379 42.095 20.7558 42.004 20.7558H30.9233C30.8323 20.7559 30.7421 20.738 30.658 20.7032C30.5738 20.6683 30.4974 20.6173 30.433 20.5529C30.3686 20.4885 30.3176 20.4121 30.2827 20.328C30.2479 20.2439 30.23 20.1537 30.23 20.0627C30.23 19.9716 30.2478 19.8814 30.2827 19.7972C30.3175 19.7131 30.3685 19.6366 30.4329 19.5722C30.4973 19.5078 30.5738 19.4567 30.6579 19.4219C30.742 19.387 30.8322 19.3691 30.9233 19.3692H42.004C42.0951 19.3692 42.1852 19.3871 42.2694 19.4219C42.3535 19.4568 42.4299 19.5079 42.4943 19.5723C42.5586 19.6367 42.6097 19.7132 42.6445 19.7973C42.6793 19.8814 42.6972 19.9716 42.6972 20.0627ZM42.6972 24.5221C42.6972 24.6131 42.6793 24.7033 42.6445 24.7874C42.6097 24.8716 42.5586 24.948 42.4942 25.0124C42.4299 25.0768 42.3535 25.1279 42.2693 25.1628C42.1852 25.1976 42.0951 25.2156 42.004 25.2156H40.7126C40.3294 25.2156 40.0194 24.9051 40.0194 24.5221C40.0194 24.1391 40.3294 23.8286 40.7126 23.8286H42.004C42.0951 23.8286 42.1852 23.8465 42.2693 23.8814C42.3535 23.9163 42.4299 23.9674 42.4942 24.0318C42.5586 24.0962 42.6097 24.1726 42.6445 24.2567C42.6793 24.3409 42.6972 24.431 42.6972 24.5221ZM42.6972 28.9815C42.6972 29.0726 42.6793 29.1627 42.6444 29.2468C42.6096 29.3309 42.5586 29.4073 42.4942 29.4717C42.4298 29.5361 42.3534 29.5871 42.2693 29.622C42.1852 29.6568 42.095 29.6747 42.004 29.6747H30.9233C30.8323 29.6747 30.7421 29.6568 30.658 29.622C30.5738 29.5872 30.4974 29.5361 30.433 29.4718C30.3686 29.4074 30.3176 29.331 30.2827 29.2468C30.2479 29.1627 30.23 29.0726 30.23 28.9815C30.23 28.8904 30.2478 28.8003 30.2827 28.7161C30.3175 28.632 30.3685 28.5555 30.4329 28.4911C30.4973 28.4267 30.5738 28.3756 30.6579 28.3407C30.742 28.3059 30.8322 28.288 30.9233 28.288H42.004C42.0951 28.288 42.1852 28.306 42.2694 28.3408C42.3535 28.3757 42.4299 28.4268 42.4943 28.4912C42.5586 28.5556 42.6097 28.632 42.6445 28.7162C42.6793 28.8003 42.6972 28.8905 42.6972 28.9815ZM30.23 24.5221C30.23 24.431 30.2478 24.3408 30.2827 24.2567C30.3175 24.1725 30.3685 24.0961 30.4329 24.0317C30.4973 23.9672 30.5738 23.9162 30.6579 23.8813C30.742 23.8465 30.8322 23.8286 30.9233 23.8286H38.6184C39.0017 23.8286 39.3117 24.1391 39.3117 24.5221C39.3117 24.9051 39.0017 25.2156 38.6184 25.2156H30.9233C30.8322 25.2156 30.742 25.1977 30.6579 25.1629C30.5738 25.128 30.4973 25.0769 30.4329 25.0125C30.3685 24.9481 30.3175 24.8717 30.2827 24.7875C30.2478 24.7034 30.23 24.6132 30.23 24.5221Z" fill="#A452D7"/>
</svg>
