<svg width="30" height="30" viewBox="0 0 30 30" fill="none" xmlns="http://www.w3.org/2000/svg">
<rect x="0.5" y="0.5" width="29" height="29" rx="7.5" fill="white"/>
<rect x="0.5" y="0.5" width="29" height="29" rx="7.5" stroke="#A452D7"/>
<path d="M20.876 18.6656C20.4385 19.3442 19.7475 20.1748 18.8789 20.3808C17.3574 20.743 15.0222 20.3933 12.1164 17.7247L12.0805 17.6935C9.52553 15.3599 8.86196 13.4178 9.02257 11.8774C9.11133 11.0031 9.85098 10.2121 10.4744 9.69582C10.573 9.61296 10.6898 9.55397 10.8157 9.52356C10.9415 9.49315 11.0728 9.49217 11.1991 9.52069C11.3255 9.54921 11.4432 9.60645 11.5431 9.68782C11.6429 9.7692 11.722 9.87245 11.7741 9.98933L12.7145 12.071C12.7756 12.2059 12.7982 12.3548 12.78 12.5014C12.7617 12.6481 12.7033 12.7872 12.6109 12.9036L12.1354 13.5115C12.0334 13.637 11.9718 13.7897 11.9587 13.9499C11.9455 14.1102 11.9813 14.2707 12.0615 14.4107C12.3277 14.8708 12.966 15.5473 13.6739 16.1739C14.4685 16.8816 15.3497 17.529 15.9076 17.7497C16.0569 17.8097 16.2211 17.8244 16.3789 17.7917C16.5367 17.7591 16.681 17.6806 16.7931 17.5665L17.3447 17.019C17.4511 16.9156 17.5835 16.8419 17.7282 16.8053C17.873 16.7688 18.0251 16.7707 18.1689 16.8108L20.4026 17.4353C20.5258 17.4726 20.6388 17.5371 20.7328 17.6239C20.8268 17.7107 20.8995 17.8176 20.9451 17.9363C20.9908 18.055 21.0083 18.1824 20.9963 18.3088C20.9843 18.4352 20.9432 18.5572 20.876 18.6656Z" fill="#A452D7"/>
</svg>
