<svg width="93" height="55" viewBox="0 0 93 55" fill="none" xmlns="http://www.w3.org/2000/svg">
<rect width="92.1692" height="55" fill="white"/>
<g clip-path="url(#clip0_10_1452)">
<circle cx="29.793" cy="27.5" r="27.5" fill="white"/>
<circle cx="29.793" cy="27.5" r="26.6509" stroke="#181818" stroke-opacity="0.7" stroke-width="1.69817"/>
<path d="M40.5998 17.4285H35.637L32.6068 14.1963C32.6027 14.192 32.5978 14.1887 32.5936 14.1845C32.5822 14.1732 32.5701 14.1627 32.5574 14.1531C32.5515 14.1489 32.5451 14.1461 32.5391 14.1425C32.5269 14.1342 32.5141 14.127 32.5009 14.1207C32.4932 14.1173 32.4854 14.1157 32.4778 14.113C32.4652 14.1084 32.4526 14.1034 32.4394 14.1006C32.418 14.0959 32.3962 14.0935 32.3743 14.0935H24.2326C24.1894 14.0935 24.1466 14.1026 24.1068 14.1202C24.0669 14.1378 24.0306 14.1637 24.0001 14.1962C23.9696 14.2288 23.9454 14.2674 23.9289 14.31C23.9124 14.3525 23.9039 14.3981 23.9039 14.4442V17.4285H14.4019C14.3587 17.4285 14.316 17.4375 14.2761 17.4552C14.2362 17.4728 14.2 17.4986 14.1695 17.5312C14.1389 17.5637 14.1147 17.6024 14.0982 17.6449C14.0817 17.6875 14.0732 17.7331 14.0732 17.7791V36.5234C14.0732 36.5695 14.0817 36.6151 14.0982 36.6576C14.1147 36.7002 14.1389 36.7389 14.1694 36.7714C14.2 36.804 14.2362 36.8298 14.2761 36.8474C14.316 36.865 14.3587 36.8741 14.4019 36.8741H24.265V39.0791C24.2597 40.0319 23.5337 40.8073 22.647 40.8073H21.2352C21.192 40.8072 21.1492 40.8163 21.1094 40.8339C21.0695 40.8515 21.0332 40.8773 21.0027 40.9099C20.9722 40.9424 20.948 40.9811 20.9315 41.0236C20.915 41.0662 20.9065 41.1118 20.9065 41.1578V42.3887C20.9065 42.4347 20.9149 42.4803 20.9315 42.5229C20.948 42.5654 20.9722 42.6041 21.0027 42.6367C21.0332 42.6692 21.0695 42.695 21.1094 42.7126C21.1492 42.7302 21.192 42.7393 21.2352 42.7393H33.7732C33.8164 42.7393 33.8592 42.7302 33.8991 42.7126C33.939 42.695 33.9752 42.6692 34.0057 42.6367C34.0363 42.6041 34.0605 42.5654 34.077 42.5229C34.0935 42.4803 34.102 42.4347 34.102 42.3887V41.1578C34.102 41.1118 34.0935 41.0662 34.077 41.0236C34.0605 40.9811 34.0363 40.9424 34.0057 40.9099C33.9752 40.8773 33.9389 40.8515 33.8991 40.8339C33.8592 40.8163 33.8164 40.8072 33.7732 40.8073H32.3551C31.4683 40.8073 30.7424 40.0319 30.737 39.0813V36.8741H40.5999C40.6431 36.8741 40.6858 36.865 40.7257 36.8474C40.7656 36.8298 40.8018 36.804 40.8324 36.7714C40.8629 36.7389 40.8871 36.7002 40.9036 36.6576C40.9201 36.6151 40.9286 36.5695 40.9285 36.5234V17.7791C40.9285 17.6861 40.8939 17.5969 40.8323 17.5312C40.7706 17.4654 40.687 17.4285 40.5998 17.4285ZM24.5612 14.795H32.0457V17.7105C32.0457 17.7565 32.0541 17.8021 32.0707 17.8447C32.0872 17.8872 32.1114 17.9259 32.1419 17.9585C32.1724 17.991 32.2087 18.0169 32.2486 18.0345C32.2885 18.0521 32.3312 18.0612 32.3744 18.0612H33.902C33.9452 18.0612 33.988 18.0522 34.0279 18.0345C34.0678 18.0169 34.104 17.9911 34.1345 17.9585C34.1651 17.9259 34.1893 17.8873 34.2058 17.8447C34.2223 17.8021 34.2308 17.7565 34.2308 17.7105C34.2308 17.6644 34.2223 17.6188 34.2058 17.5763C34.1893 17.5337 34.165 17.4951 34.1345 17.4625C34.104 17.4299 34.0677 17.4041 34.0279 17.3865C33.988 17.3688 33.9452 17.3598 33.902 17.3598H32.703V15.2907L35.1077 17.8557V30.2525H28.9665C28.9411 30.1929 28.9172 30.1321 28.8888 30.076C28.5765 29.2471 27.5365 28.5188 25.7105 27.8505C25.6286 27.8034 25.5975 27.6585 25.5862 27.536C26.3039 26.7198 26.549 25.5604 26.4043 23.7093C26.3201 22.4389 25.4434 21.785 24.5612 21.6553V14.795ZM23.4486 27.1462C22.8008 26.4813 22.5838 25.4698 22.7235 23.7586C22.7886 22.7726 23.5284 22.3312 24.2326 22.3312C24.9402 22.3312 25.6833 22.7726 25.7488 23.7631C25.8825 25.4749 25.6655 26.4865 25.0233 27.1462C24.9914 27.1789 24.9661 27.2182 24.9488 27.2616C24.9315 27.305 24.9226 27.3517 24.9226 27.3989C24.9226 28.0996 25.2113 28.3826 25.4536 28.4968C25.4623 28.5007 25.4712 28.5044 25.48 28.5075C27.5168 29.2507 28.1287 29.92 28.2834 30.3505C28.2886 30.3657 28.2952 30.3806 28.3027 30.3947C28.4426 30.6646 28.535 30.9994 28.5772 31.3902C28.5688 31.6515 28.3668 31.8614 28.1197 31.8614H20.3518C20.1049 31.8614 19.9031 31.6515 19.8946 31.3902C19.9361 31.0029 20.0272 30.6665 20.1651 30.3896C20.171 30.3778 20.1761 30.3655 20.1808 30.3531C20.3406 29.9192 20.9577 29.2467 22.9913 28.5078C23.0004 28.5045 23.0092 28.5007 23.0182 28.4967C23.3617 28.3349 23.5405 27.9675 23.5492 27.4046C23.5508 27.3072 23.5143 27.2138 23.4486 27.1462ZM32.355 41.5085H33.4445V42.0382H21.5638V41.5085H22.647C23.6096 41.5085 24.4352 40.8592 24.7663 39.9477H28.1972C28.3788 39.9477 28.5259 39.7908 28.5259 39.597C28.5259 39.4033 28.3788 39.2464 28.1972 39.2464H24.9138C24.9175 39.1918 24.9222 39.137 24.9224 39.0814V36.8741H30.0795V39.0835C30.0868 40.4207 31.1078 41.5085 32.355 41.5085ZM40.2712 36.1729H14.7305V18.1298H23.9039V21.6553C23.025 21.7854 22.1516 22.4388 22.068 23.7035C21.9171 25.5531 22.1617 26.7125 22.8837 27.5339C22.8709 27.6585 22.8392 27.8048 22.7613 27.8504C20.9367 28.5158 19.8942 29.2447 19.5759 30.0776C19.401 30.4348 19.2875 30.8579 19.2386 31.335C19.2375 31.3477 19.2369 31.3605 19.2369 31.3732C19.2369 32.0291 19.737 32.5626 20.3519 32.5626H28.1197C28.7347 32.5626 29.2351 32.0291 29.2351 31.3732C29.2351 31.3604 29.2343 31.3476 29.2333 31.3348C29.22 31.2068 29.2011 31.0796 29.1765 30.9536H35.4365C35.4797 30.9536 35.5224 30.9446 35.5623 30.927C35.6022 30.9094 35.6384 30.8835 35.6689 30.851C35.6994 30.8184 35.7236 30.7798 35.7402 30.7373C35.7567 30.6947 35.7652 30.6491 35.7652 30.6031V18.1298H40.2712L40.2712 36.1729ZM39.2269 33.4155C39.27 33.4155 39.3128 33.4245 39.3527 33.4421C39.3926 33.4597 39.4288 33.4856 39.4593 33.5181C39.4899 33.5507 39.5141 33.5894 39.5306 33.6319C39.5471 33.6745 39.5556 33.7201 39.5555 33.7661C39.5556 33.8122 39.5471 33.8578 39.5306 33.9003C39.5141 33.9428 39.4898 33.9815 39.4593 34.0141C39.4288 34.0466 39.3926 34.0724 39.3527 34.09C39.3128 34.1077 39.27 34.1167 39.2269 34.1167H15.775C15.7319 34.1167 15.6891 34.1076 15.6492 34.09C15.6094 34.0724 15.5731 34.0466 15.5426 34.014C15.5121 33.9815 15.4879 33.9428 15.4714 33.9003C15.4548 33.8578 15.4463 33.8122 15.4464 33.7661C15.4463 33.7201 15.4548 33.6745 15.4713 33.6319C15.4878 33.5894 15.5121 33.5507 15.5426 33.5182C15.5731 33.4856 15.6093 33.4598 15.6492 33.4422C15.6891 33.4245 15.7319 33.4155 15.775 33.4155H39.2269ZM28.2226 35.1414C28.2227 35.1874 28.2142 35.2331 28.1977 35.2756C28.1812 35.3181 28.157 35.3568 28.1265 35.3894C28.096 35.4219 28.0597 35.4477 28.0198 35.4653C27.98 35.4829 27.9372 35.492 27.894 35.4919H27.1721C27.1289 35.492 27.0861 35.4829 27.0462 35.4653C27.0063 35.4477 26.9701 35.4219 26.9396 35.3894C26.909 35.3568 26.8848 35.3181 26.8683 35.2756C26.8518 35.2331 26.8433 35.1875 26.8433 35.1414C26.8433 35.0954 26.8518 35.0497 26.8683 35.0072C26.8848 34.9646 26.909 34.926 26.9396 34.8934C26.9701 34.8609 27.0063 34.835 27.0462 34.8174C27.0861 34.7998 27.1289 34.7908 27.1721 34.7908H27.894C27.9372 34.7908 27.9799 34.7998 28.0198 34.8174C28.0597 34.835 28.096 34.8609 28.1265 34.8934C28.157 34.926 28.1812 34.9647 28.1977 35.0072C28.2142 35.0498 28.2227 35.0954 28.2226 35.1414ZM25.5219 19.3126C25.5219 19.2666 25.5304 19.221 25.5469 19.1784C25.5634 19.1358 25.5876 19.0972 25.6182 19.0646C25.6487 19.032 25.6849 19.0062 25.7248 18.9885C25.7647 18.9709 25.8075 18.9618 25.8507 18.9618H26.9401C26.9833 18.9618 27.0261 18.9709 27.066 18.9885C27.1058 19.0062 27.1421 19.032 27.1726 19.0646C27.2031 19.0972 27.2274 19.1358 27.2439 19.1784C27.2604 19.221 27.2689 19.2666 27.2688 19.3126C27.2688 19.3587 27.2603 19.4043 27.2438 19.4468C27.2273 19.4894 27.2031 19.528 27.1726 19.5606C27.1421 19.5932 27.1058 19.619 27.0659 19.6366C27.026 19.6542 26.9833 19.6633 26.9401 19.6633H25.8507C25.8075 19.6633 25.7647 19.6542 25.7248 19.6366C25.685 19.619 25.6487 19.5932 25.6182 19.5606C25.5877 19.528 25.5635 19.4894 25.5469 19.4468C25.5304 19.4043 25.5219 19.3587 25.5219 19.3126ZM25.5219 17.0572C25.5219 17.0112 25.5304 16.9656 25.5469 16.923C25.5634 16.8805 25.5877 16.8418 25.6182 16.8092C25.6487 16.7767 25.6849 16.7508 25.7248 16.7332C25.7647 16.7156 25.8075 16.7065 25.8507 16.7065H29.7313C29.7745 16.7065 29.8172 16.7156 29.8571 16.7332C29.897 16.7508 29.9332 16.7767 29.9637 16.8093C29.9942 16.8418 30.0184 16.8805 30.0349 16.923C30.0514 16.9656 30.0599 17.0112 30.0599 17.0572C30.0599 17.1033 30.0514 17.1489 30.0349 17.1914C30.0184 17.234 29.9942 17.2726 29.9637 17.3052C29.9332 17.3378 29.897 17.3636 29.8571 17.3812C29.8172 17.3988 29.7745 17.4079 29.7313 17.4079H25.8507C25.8075 17.4079 25.7647 17.3988 25.7248 17.3812C25.6849 17.3636 25.6487 17.3378 25.6182 17.3052C25.5876 17.2727 25.5634 17.234 25.5469 17.1914C25.5304 17.1489 25.5219 17.1033 25.5219 17.0572ZM28.0231 18.9618H33.8248C33.868 18.9618 33.9107 18.9709 33.9506 18.9886C33.9905 19.0062 34.0267 19.032 34.0573 19.0646C34.0878 19.0972 34.112 19.1359 34.1285 19.1784C34.145 19.221 34.1535 19.2666 34.1535 19.3126C34.1535 19.3587 34.145 19.4043 34.1285 19.4468C34.1119 19.4894 34.0877 19.528 34.0572 19.5606C34.0267 19.5931 33.9905 19.619 33.9506 19.6366C33.9107 19.6542 33.868 19.6633 33.8248 19.6633H28.0231C27.9359 19.6633 27.8523 19.6264 27.7906 19.5606C27.729 19.4948 27.6943 19.4056 27.6943 19.3126C27.6943 19.2666 27.7028 19.221 27.7193 19.1784C27.7358 19.1358 27.76 19.0972 27.7906 19.0646C27.8211 19.032 27.8574 19.0062 27.8973 18.9885C27.9372 18.9709 27.9799 18.9618 28.0231 18.9618ZM34.1535 21.568C34.1535 21.614 34.145 21.6596 34.1285 21.7022C34.112 21.7448 34.0878 21.7834 34.0573 21.816C34.0267 21.8486 33.9905 21.8744 33.9506 21.8921C33.9107 21.9097 33.868 21.9188 33.8248 21.9188H28.571C28.3892 21.9188 28.2423 21.7617 28.2423 21.568C28.2423 21.3743 28.3892 21.2172 28.571 21.2172H33.8248C33.868 21.2172 33.9107 21.2263 33.9506 21.244C33.9905 21.2616 34.0267 21.2874 34.0572 21.32C34.0878 21.3526 34.112 21.3912 34.1285 21.4338C34.145 21.4763 34.1535 21.5219 34.1535 21.568ZM34.1535 23.8233C34.1535 23.8694 34.145 23.915 34.1284 23.9575C34.1119 24 34.0877 24.0387 34.0572 24.0712C34.0267 24.1038 33.9905 24.1296 33.9506 24.1472C33.9107 24.1648 33.868 24.1739 33.8248 24.1739H28.571C28.5278 24.1739 28.4851 24.1649 28.4452 24.1473C28.4053 24.1296 28.3691 24.1038 28.3385 24.0713C28.308 24.0387 28.2838 24.0001 28.2673 23.9575C28.2508 23.915 28.2423 23.8694 28.2423 23.8233C28.2423 23.7773 28.2507 23.7316 28.2673 23.6891C28.2838 23.6465 28.308 23.6079 28.3385 23.5753C28.369 23.5427 28.4053 23.5169 28.4452 23.4993C28.4851 23.4816 28.5278 23.4726 28.571 23.4726H33.8248C33.868 23.4726 33.9107 23.4817 33.9506 23.4993C33.9905 23.5169 34.0267 23.5427 34.0572 23.5753C34.0878 23.6079 34.112 23.6466 34.1285 23.6891C34.145 23.7317 34.1535 23.7773 34.1535 23.8233ZM34.1535 26.0787C34.1535 26.1247 34.145 26.1703 34.1285 26.2129C34.112 26.2554 34.0878 26.2941 34.0572 26.3266C34.0267 26.3592 33.9905 26.3851 33.9506 26.4027C33.9107 26.4203 33.868 26.4294 33.8248 26.4294H33.2125C33.0308 26.4294 32.8838 26.2724 32.8838 26.0787C32.8838 25.885 33.0308 25.7279 33.2125 25.7279H33.8248C33.868 25.7279 33.9107 25.737 33.9506 25.7546C33.9905 25.7723 34.0267 25.7981 34.0572 25.8307C34.0878 25.8633 34.112 25.9019 34.1285 25.9445C34.145 25.987 34.1535 26.0326 34.1535 26.0787ZM34.1535 28.334C34.1535 28.38 34.145 28.4256 34.1284 28.4682C34.1119 28.5107 34.0877 28.5494 34.0572 28.5819C34.0267 28.6145 33.9905 28.6403 33.9506 28.6579C33.9107 28.6755 33.868 28.6846 33.8248 28.6846H28.571C28.5278 28.6846 28.4851 28.6755 28.4452 28.6579C28.4053 28.6403 28.3691 28.6145 28.3385 28.582C28.308 28.5494 28.2838 28.5107 28.2673 28.4682C28.2508 28.4257 28.2423 28.3801 28.2423 28.334C28.2423 28.2879 28.2507 28.2423 28.2673 28.1998C28.2838 28.1572 28.308 28.1185 28.3385 28.086C28.369 28.0534 28.4053 28.0276 28.4452 28.0099C28.4851 27.9923 28.5278 27.9833 28.571 27.9833H33.8248C33.868 27.9833 33.9107 27.9923 33.9506 28.01C33.9905 28.0276 34.0267 28.0534 34.0572 28.086C34.0878 28.1186 34.112 28.1572 34.1285 28.1998C34.145 28.2424 34.1535 28.288 34.1535 28.334ZM28.2423 26.0787C28.2423 26.0326 28.2507 25.987 28.2673 25.9444C28.2838 25.9019 28.308 25.8632 28.3385 25.8306C28.369 25.7981 28.4053 25.7722 28.4452 25.7546C28.4851 25.737 28.5278 25.7279 28.571 25.7279H32.2195C32.4013 25.7279 32.5482 25.885 32.5482 26.0787C32.5482 26.2724 32.4013 26.4294 32.2195 26.4294H28.571C28.5278 26.4294 28.4851 26.4204 28.4452 26.4027C28.4053 26.3851 28.369 26.3593 28.3385 26.3267C28.308 26.2941 28.2838 26.2555 28.2673 26.2129C28.2507 26.1703 28.2423 26.1247 28.2423 26.0787Z" fill="#181818" fill-opacity="0.7"/>
</g>
<g clip-path="url(#clip1_10_1452)">
<path d="M65.8159 0.848633C79.8681 0.848817 91.3208 12.7468 91.3208 27.5C91.3208 42.2532 79.8681 54.1512 65.8159 54.1514C51.7635 54.1514 40.3101 42.2533 40.3101 27.5C40.3101 12.7467 51.7635 0.848633 65.8159 0.848633Z" fill="white" stroke="#005BFF" stroke-width="1.69817"/>
<path d="M73.4403 33.176C73.5894 33.2619 73.696 33.4007 73.7407 33.5674C73.7734 33.6905 73.769 33.8205 73.7279 33.9411C73.6869 34.0617 73.611 34.1674 73.51 34.2449C73.4089 34.3225 73.2872 34.3683 73.1601 34.3768C73.033 34.3852 72.9062 34.3558 72.7958 34.2923L68.5165 31.8216C68.4677 31.7929 68.4136 31.7742 68.3574 31.7665C68.3013 31.7589 68.2442 31.7624 68.1894 31.7768C68.1346 31.7913 68.0832 31.8165 68.0382 31.8509C67.9932 31.8854 67.9554 31.9283 67.9271 31.9774C67.8988 32.0265 67.8804 32.0807 67.8731 32.1369C67.8658 32.1931 67.8697 32.2502 67.8846 32.3048C67.8994 32.3595 67.9249 32.4107 67.9596 32.4555C67.9944 32.5003 68.0376 32.5378 68.0869 32.5658L71.6219 34.6068L71.6232 34.6072C71.7649 34.696 71.8665 34.8363 71.9068 34.9986C71.947 35.1609 71.9226 35.3324 71.8388 35.4771C71.755 35.6218 71.6183 35.7283 71.4575 35.7741C71.2967 35.8199 71.1244 35.8015 70.9769 35.7227L67.4419 33.6817C67.3433 33.6256 67.2264 33.6108 67.1169 33.6406C67.0074 33.6703 66.9141 33.7421 66.8574 33.8404C66.8007 33.9386 66.7851 34.0554 66.8141 34.1651C66.8431 34.2748 66.9143 34.3685 67.0122 34.4259L70.1747 36.2521L70.1756 36.2525C70.3242 36.3389 70.4308 36.4772 70.4755 36.6435C70.5202 36.8098 70.4974 36.9834 70.411 37.1325C70.3251 37.2816 70.1863 37.3882 70.0196 37.4329C69.9379 37.4551 69.8526 37.4609 69.7687 37.4499C69.6847 37.4389 69.6038 37.4113 69.5306 37.3688L66.3677 35.5427C66.3188 35.514 66.2647 35.4953 66.2086 35.4876C66.1524 35.48 66.0953 35.4835 66.0405 35.4979C65.9858 35.5124 65.9344 35.5376 65.8894 35.572C65.8443 35.6064 65.8066 35.6494 65.7782 35.6985C65.7499 35.7476 65.7316 35.8018 65.7243 35.858C65.717 35.9142 65.7208 35.9713 65.7357 36.0259C65.7505 36.0806 65.7761 36.1318 65.8108 36.1766C65.8455 36.2214 65.8887 36.2589 65.938 36.2869L68.7288 37.8982C69.0365 38.0757 69.1422 38.471 68.9647 38.7786C68.7872 39.0863 68.3919 39.1924 68.0843 39.0145L66.9834 38.379C66.9622 38.1391 66.8837 37.9078 66.7544 37.7047C66.6251 37.5015 66.4488 37.3324 66.2405 37.2116C65.9687 37.0554 65.6546 36.9891 65.3429 37.0221C65.3404 36.9062 65.3247 36.791 65.296 36.6788C65.205 36.3341 64.9936 36.0334 64.7001 35.831C64.4066 35.6287 64.0504 35.538 63.6959 35.5753C63.6796 35.0726 63.4162 34.5888 62.9495 34.3194C62.4829 34.0499 61.9324 34.0641 61.4886 34.3013C61.3431 33.976 61.0864 33.7134 60.7645 33.5605C60.4427 33.4076 60.0769 33.3745 59.7329 33.4673C59.4815 33.5363 59.2527 33.6699 59.069 33.8549L56.9287 33.0114L57.413 31.0718C57.4406 30.9612 57.4231 30.8443 57.3644 30.7466C57.3058 30.6489 57.2107 30.5786 57.1002 30.551C56.9896 30.5234 56.8727 30.5409 56.775 30.5995C56.6773 30.6582 56.607 30.7533 56.5794 30.8638L55.8279 33.8738L54.0812 33.524C54.0258 33.5127 53.9687 33.5125 53.9132 33.5234C53.8578 33.5342 53.805 33.5559 53.7579 33.5871C53.7108 33.6184 53.6703 33.6587 53.6388 33.7056C53.6073 33.7525 53.5854 33.8052 53.5743 33.8606C53.5632 33.9161 53.5631 33.9731 53.5741 34.0286C53.5851 34.084 53.6069 34.1368 53.6383 34.1838C53.6697 34.2308 53.7101 34.2711 53.7571 34.3025C53.8041 34.3339 53.8569 34.3557 53.9123 34.3666L56.0608 34.7963C56.1691 34.818 56.2817 34.7972 56.3751 34.738C56.4685 34.6789 56.5355 34.586 56.5622 34.4788L56.7186 33.8519L58.5787 34.5845L58.1748 35.2836C58.0757 35.4545 58.0114 35.6433 57.9856 35.8392C57.9597 36.035 57.973 36.2341 58.0244 36.4248C58.075 36.6158 58.163 36.7949 58.2833 36.9516C58.4036 37.1083 58.5538 37.2396 58.7253 37.3379C58.9616 37.4741 59.2198 37.539 59.4746 37.539C59.5245 37.539 59.5739 37.5343 59.6233 37.5295C59.6272 37.6438 59.6401 37.7581 59.6701 37.8711C59.7207 38.0621 59.8087 38.2412 59.929 38.3979C60.0493 38.5547 60.1995 38.686 60.371 38.7842C60.5924 38.9126 60.8432 38.9819 61.0992 38.9855C61.3551 38.9891 61.6077 38.9269 61.8328 38.8049C61.9502 39.0681 62.1414 39.2916 62.3834 39.4482C62.6253 39.6049 62.9075 39.688 63.1957 39.6874C63.4445 39.6874 63.689 39.6243 63.9081 39.507C64.0543 39.8313 64.3112 40.0931 64.6327 40.2453C64.9542 40.3976 65.3194 40.4304 65.663 40.338C65.854 40.2874 66.033 40.1994 66.1898 40.0791C66.3465 39.9588 66.4778 39.8086 66.5761 39.6372L66.7909 39.2651L66.7931 39.2608L67.6546 39.7579C67.8937 39.8955 68.1661 39.9647 68.4419 39.9579C68.7178 39.9511 68.9864 39.8686 69.2185 39.7195C69.4506 39.5703 69.6372 39.3602 69.758 39.1121C69.8787 38.8641 69.9289 38.5876 69.9031 38.3129C70.0162 38.309 70.13 38.2918 70.2422 38.2617C70.4332 38.2111 70.6122 38.1231 70.769 38.0028C70.9257 37.8825 71.057 37.7323 71.1553 37.5609C71.3177 37.2795 71.3787 36.9671 71.3495 36.6659C71.6048 36.6573 71.8537 36.5839 72.0728 36.4526C72.292 36.3212 72.4741 36.1363 72.602 35.9152C72.7276 35.6983 72.7966 35.4533 72.8027 35.2028C73.0544 35.2564 73.3158 35.2446 73.5617 35.1685C73.8076 35.0923 74.0298 34.9544 74.2072 34.7678C74.3846 34.5812 74.5112 34.3523 74.5748 34.1029C74.6385 33.8534 74.6371 33.5918 74.5708 33.3431C74.5475 33.2605 74.5173 33.18 74.4806 33.1025L76.1663 32.8666L76.354 33.6177C76.3802 33.7252 76.4469 33.8184 76.5402 33.8778C76.6335 33.9372 76.7462 33.9583 76.8546 33.9365L79.0031 33.5068C79.1148 33.4844 79.2131 33.4186 79.2762 33.3237C79.3394 33.2289 79.3623 33.1128 79.3399 33.0011C79.3175 32.8893 79.2517 32.7911 79.1568 32.7279C79.062 32.6647 78.9459 32.6418 78.8342 32.6642L77.0875 33.0135L75.138 25.2151L79.0417 24.0438C79.1509 24.0111 79.2426 23.9364 79.2967 23.836C79.3508 23.7357 79.3628 23.618 79.3301 23.5088C79.2973 23.3997 79.2226 23.308 79.1223 23.2539C79.022 23.1998 78.9043 23.1878 78.7951 23.2205L76.168 24.0086C75.9942 23.5497 75.6923 23.1503 75.2982 22.858C74.9041 22.5657 74.4344 22.3926 73.9448 22.3594C74.3802 21.8867 74.6219 21.2675 74.622 20.6248C74.622 20.5108 74.5767 20.4015 74.4961 20.3209C74.4155 20.2404 74.3062 20.1951 74.1923 20.1951C74.0783 20.1951 73.969 20.2404 73.8884 20.3209C73.8079 20.4015 73.7626 20.5108 73.7626 20.6248C73.7626 21.5727 72.9917 22.3435 72.0438 22.3435C71.096 22.3435 70.3251 21.5727 70.3251 20.6248V19.1015C70.6442 18.8229 71.0357 18.6402 71.4542 18.5744C71.8727 18.5087 72.3013 18.5625 72.6905 18.7299L74.023 19.3009C74.0883 19.3293 74.1597 19.3409 74.2306 19.3347C74.3016 19.3286 74.3699 19.3048 74.4294 19.2656C74.4888 19.2264 74.5376 19.173 74.5712 19.1102C74.6048 19.0474 74.6223 18.9773 74.622 18.906V18.5747C74.6213 17.9791 74.3844 17.408 73.9631 16.9867C73.5419 16.5655 72.9708 16.3286 72.3751 16.3279C72.2106 16.3279 72.0494 16.297 71.8965 16.2355L70.0553 15.499C69.9552 15.459 69.8437 15.458 69.7429 15.4963C69.6422 15.5346 69.5595 15.6093 69.5113 15.7057L69.3445 16.0387C69.1129 16.5056 69.0025 17.0232 69.0237 17.544C69.0449 18.0647 69.1969 18.5717 69.4657 19.0182V20.6248C69.4657 21.2938 69.724 21.9022 70.1433 22.3607C70.0076 22.371 69.8718 22.3908 69.7364 22.4239C69.5148 22.155 69.241 21.9339 68.9314 21.7739C68.6219 21.6139 68.2831 21.5184 67.9356 21.4932C68.3671 21.0212 68.6063 20.4049 68.6063 19.7654V17.617C68.6063 16.4323 67.6426 15.4685 66.4579 15.4685H63.8798C63.7658 15.4685 63.6565 15.5138 63.5759 15.5944C63.4954 15.675 63.4501 15.7843 63.4501 15.8982V17.617C63.4501 17.7309 63.4954 17.8402 63.5759 17.9208C63.6565 18.0014 63.7658 18.0467 63.8798 18.0467H67.747V19.7654C67.747 20.7133 66.9761 21.4842 66.0282 21.4842C65.0803 21.4842 64.3095 20.7133 64.3095 19.7654V19.3357C64.3095 19.2218 64.2642 19.1125 64.1836 19.0319C64.103 18.9513 63.9937 18.906 63.8798 18.906C63.7658 18.906 63.6565 18.9513 63.5759 19.0319C63.4954 19.1125 63.4501 19.2218 63.4501 19.3357V19.7654C63.4501 20.4306 63.7053 21.036 64.1208 21.4936C63.7512 21.5209 63.3918 21.6277 63.0673 21.8067C62.7428 21.9858 62.4608 22.2328 62.2405 22.5309C61.9999 22.4349 61.746 22.3761 61.4877 22.3564C61.9206 21.8836 62.1609 21.2659 62.161 20.6248V18.4763C62.161 17.2917 61.1972 16.3279 60.0126 16.3279H59.1532C57.9686 16.3279 57.0048 17.2917 57.0048 18.4763V20.6248C57.0048 21.2899 57.26 21.8954 57.6755 22.353C57.1093 22.3951 56.5728 22.6228 56.1492 23.0008C55.7256 23.3789 55.4385 23.8861 55.3324 24.4438L54.1207 24.0803C54.0667 24.0641 54.0099 24.0587 53.9538 24.0645C53.8977 24.0702 53.8432 24.0869 53.7935 24.1137C53.7439 24.1405 53.6999 24.1768 53.6643 24.2205C53.6286 24.2643 53.602 24.3146 53.5858 24.3686C53.5696 24.4227 53.5642 24.4794 53.5699 24.5356C53.5756 24.5917 53.5924 24.6462 53.6191 24.6958C53.6459 24.7455 53.6822 24.7894 53.7259 24.8251C53.7697 24.8607 53.82 24.8874 53.8741 24.9036L57.7778 26.0749L56.9962 29.1915C56.982 29.2463 56.9789 29.3035 56.9869 29.3596C56.9949 29.4157 57.0139 29.4697 57.0429 29.5184C57.0719 29.5672 57.1102 29.6097 57.1557 29.6435C57.2011 29.6774 57.2528 29.7019 57.3078 29.7157C57.3628 29.7294 57.42 29.7322 57.476 29.7238C57.5321 29.7154 57.5859 29.6959 57.6345 29.6666C57.683 29.6373 57.7252 29.5987 57.7587 29.553C57.7923 29.5073 57.8164 29.4554 57.8298 29.4003L58.3824 27.1947L59.6804 27.5797C60.4865 27.8182 61.3446 27.8401 62.1619 27.6424L62.8537 27.4749C63.1754 27.3959 63.5152 27.4449 63.8016 27.6115L64.5583 28.0485C63.8452 28.6083 63.0418 29.0421 62.1825 29.3311C61.9991 29.3922 61.8318 29.4937 61.6929 29.6281C61.554 29.7625 61.447 29.9264 61.3799 30.1076C61.3128 30.2889 61.2873 30.4829 61.3052 30.6754C61.3231 30.8678 61.384 31.0538 61.4834 31.2196C61.7376 31.6458 62.1494 31.9547 62.6296 32.0796C63.1099 32.2044 63.62 32.135 64.0495 31.8865L65.6316 30.9833L65.7949 31.0481C66.3713 31.278 66.9913 31.3775 67.6106 31.3395C68.23 31.3016 68.8332 31.1271 69.3772 30.8286L70.5434 31.5023C70.6418 31.5566 70.7577 31.5702 70.866 31.5401C70.9744 31.5099 71.0666 31.4385 71.1229 31.3412C71.1792 31.2438 71.1951 31.1283 71.1671 31.0194C71.1392 30.9104 71.0697 30.8168 70.9735 30.7585L69.5899 29.9593C69.522 29.92 69.4445 29.9001 69.3661 29.9017C69.2876 29.9033 69.211 29.9263 69.1447 29.9683C68.6977 30.2517 68.1899 30.4249 67.6629 30.4738C67.1359 30.5227 66.6048 30.446 66.1133 30.2498L65.7567 30.108C65.6967 30.0843 65.6322 30.0743 65.5678 30.0788C65.5035 30.0834 65.441 30.1023 65.385 30.1342L63.6228 31.1397C63.388 31.2756 63.1091 31.3137 62.8464 31.2456C62.5838 31.1776 62.3584 31.009 62.219 30.7761C62.1856 30.7215 62.1651 30.6599 62.159 30.5961C62.153 30.5322 62.1616 30.4679 62.1842 30.4079C62.2298 30.2837 62.329 30.1883 62.4549 30.1458C63.5385 29.785 64.5417 29.2173 65.409 28.4743L66.2899 27.7181C66.5058 27.5329 66.7642 27.4042 67.0421 27.3437C67.32 27.2832 67.6086 27.2927 67.8819 27.3713C69.1985 27.746 70.5902 27.7469 71.9076 27.3713L74.5988 26.6039L75.9553 32.03L73.7192 32.3432L72.4594 31.6179C72.4104 31.5897 72.3564 31.5715 72.3005 31.5642C72.2445 31.5569 72.1876 31.5607 72.1331 31.5754C72.0786 31.5901 72.0275 31.6154 71.9828 31.6498C71.9381 31.6842 71.9006 31.7271 71.8724 31.776C71.8442 31.825 71.826 31.8789 71.8187 31.9349C71.8114 31.9909 71.8152 32.0478 71.8299 32.1023C71.8446 32.1568 71.8699 32.2078 71.9043 32.2526C71.9387 32.2973 71.9816 32.3348 72.0305 32.363L73.4403 33.176ZM59.1554 36.5941C59.0076 36.5084 58.8998 36.3676 58.8556 36.2026C58.8114 36.0376 58.8344 35.8618 58.9195 35.7137L59.564 34.5974C59.6496 34.4495 59.7904 34.3416 59.9555 34.2974C60.1205 34.2532 60.2963 34.2762 60.4444 34.3615C60.7521 34.5389 60.8578 34.9338 60.6803 35.2415L60.0354 36.3586C59.9498 36.5065 59.8091 36.6143 59.6441 36.6585C59.4791 36.7026 59.3033 36.6795 59.1554 36.5941ZM61.6394 35.299C61.725 35.1512 61.8658 35.0433 62.0308 34.9991C62.1959 34.9549 62.3717 34.9779 62.5198 35.0631C62.8275 35.241 62.9332 35.6359 62.7557 35.9436L61.6815 37.8041C61.6176 37.9142 61.5225 38.0029 61.4083 38.0591C61.294 38.1152 61.1657 38.1363 61.0395 38.1197C60.9133 38.103 60.7948 38.0494 60.699 37.9656C60.6032 37.8818 60.5344 37.7715 60.5012 37.6486C60.4789 37.5669 60.4732 37.4816 60.4842 37.3976C60.4953 37.3136 60.523 37.2327 60.5656 37.1596L61.6394 35.299ZM63.7569 38.5067C63.6708 38.6535 63.5302 38.7603 63.3656 38.8038C63.2011 38.8473 63.026 38.824 62.8786 38.7389C62.7312 38.6538 62.6234 38.5138 62.5789 38.3496C62.5343 38.1853 62.5564 38.0101 62.6406 37.8621L63.2851 36.7458C63.3707 36.5979 63.5115 36.4901 63.6765 36.4459C63.8416 36.4016 64.0174 36.4247 64.1655 36.5099C64.4732 36.6878 64.5789 37.0827 64.4014 37.3903L63.7569 38.5067ZM64.9308 38.1921C65.0169 38.0453 65.1575 37.9385 65.3221 37.895C65.4866 37.8515 65.6617 37.8748 65.8091 37.9599C65.9565 38.045 66.0642 38.185 66.1088 38.3492C66.1534 38.5135 66.1313 38.6887 66.0471 38.8367L65.8323 39.2088C65.7467 39.3567 65.606 39.4646 65.4409 39.5089C65.2758 39.5531 65.0999 39.53 64.9519 39.4447C64.8043 39.3593 64.6965 39.219 64.6521 39.0544C64.6077 38.8898 64.6304 38.7143 64.7151 38.5664L64.9308 38.1921ZM72.7369 23.2029L72.5517 23.7576L72.0438 24.0116L71.536 23.7576L71.3508 23.2029H72.7369ZM70.1029 16.4439L71.5772 17.0339C71.831 17.1355 72.1018 17.1875 72.3751 17.1873C72.6842 17.1877 72.9843 17.2911 73.228 17.4811C73.4717 17.6711 73.6452 17.937 73.7209 18.2366L73.0295 17.9405C72.5455 17.7311 72.016 17.6485 71.4911 17.7003C70.9662 17.7522 70.4632 17.9369 70.0295 18.237C69.9178 17.9491 69.8667 17.6413 69.8793 17.3328C69.8919 17.0243 69.9681 16.7217 70.1029 16.4439ZM70.3251 23.2029H70.445L70.7767 24.1981C70.8128 24.3059 70.8901 24.3953 70.992 24.4464L71.6142 24.7575V26.5596C71.1909 26.6761 70.7591 26.7495 70.3251 26.7788V24.0623C70.3251 23.7658 70.2722 23.4822 70.1799 23.2171C70.2284 23.2128 70.277 23.2029 70.3251 23.2029ZM64.3095 17.1873V16.3279H66.4579C67.0182 16.3279 67.496 16.6871 67.6735 17.1873H64.3095ZM66.4579 22.3049V22.9374L66.0282 23.1522L65.5985 22.9374V22.3049C65.7386 22.3285 65.8817 22.3435 66.0282 22.3435C66.1747 22.3435 66.3178 22.3285 66.4579 22.3049ZM60.0126 23.7967L59.5829 24.0116L59.1532 23.7967V23.2029H60.0126V23.7967ZM57.8642 20.6248V18.906H61.3017V20.6248C61.3017 21.5727 60.5308 22.3435 59.5829 22.3435C58.635 22.3435 57.8642 21.5727 57.8642 20.6248ZM59.1532 17.1873H60.0126C60.5729 17.1873 61.0507 17.5465 61.2282 18.0467H57.9381C58.0271 17.7955 58.1917 17.5781 58.4093 17.4242C58.6269 17.2703 58.8867 17.1876 59.1532 17.1873ZM56.1682 24.6948C56.2808 23.8552 56.994 23.2029 57.8642 23.2029H58.2938V24.0623C58.2938 24.2251 58.3858 24.3738 58.5315 24.4469L58.635 24.4984L58.5413 25.4347C58.5039 25.4063 58.4621 25.3843 58.4176 25.3694L56.1682 24.6948ZM59.2916 26.5678L59.4592 24.8924C59.5 24.9049 59.5404 24.9217 59.5829 24.9217C59.6254 24.9217 59.6658 24.9049 59.7067 24.8924L59.8919 26.7457L59.2916 26.5678ZM60.7714 26.9004L60.5312 24.4984L60.6348 24.4469C60.78 24.3738 60.872 24.2251 60.872 24.0623V23.2029H61.3017C61.4881 23.2029 61.6699 23.2377 61.8465 23.3C61.77 23.5469 61.7311 23.8038 61.7313 24.0623V26.8467C61.4148 26.904 61.0924 26.922 60.7714 26.9004ZM62.6526 26.6395L62.5907 26.6546V24.0623C62.5907 23.1144 63.3616 22.3435 64.3095 22.3435H64.7392V23.2029C64.7392 23.3658 64.8311 23.5144 64.9768 23.5875L65.0709 23.6343L64.7422 26.5931C64.7309 26.6936 64.7556 26.7948 64.8118 26.8789L65.162 27.4044L64.2321 26.8677C63.7548 26.5907 63.1888 26.509 62.6526 26.6395ZM65.8894 26.9468L65.6131 26.5326L65.8912 24.0301C65.9363 24.0455 65.9814 24.0623 66.0282 24.0623C66.0751 24.0623 66.1202 24.0455 66.1653 24.0301L66.4545 26.6327C66.2551 26.7122 66.066 26.8174 65.8894 26.9468ZM67.2988 26.4526L66.9856 23.6343L67.0797 23.5875C67.2253 23.5144 67.3173 23.3658 67.3173 23.2029V22.3435H67.747C68.6949 22.3435 69.4657 23.1144 69.4657 24.0623V26.7788C69.0094 26.7487 68.5576 26.6705 68.1178 26.5454C67.8516 26.4707 67.575 26.4393 67.2988 26.4526ZM72.4735 26.3169V24.7575L73.0953 24.4464C73.1971 24.3953 73.2745 24.3059 73.3106 24.1981L73.6427 23.2029H73.7626C74.4656 23.2029 75.0766 23.6309 75.3387 24.2578L74.4987 24.51C74.3927 24.5417 74.3031 24.6131 74.2485 24.7092C74.1938 24.8053 74.1783 24.9188 74.2052 25.0261L74.3912 25.7703L72.4735 26.3169Z" fill="#005BFF"/>
</g>
<defs>
<clipPath id="clip0_10_1452">
<rect width="55" height="55" fill="white"/>
</clipPath>
<clipPath id="clip1_10_1452">
<rect width="55" height="55" fill="white" transform="translate(37.1694)"/>
</clipPath>
</defs>
</svg>
