<svg width="98" height="58" viewBox="0 0 98 58" fill="none" xmlns="http://www.w3.org/2000/svg">
<g clip-path="url(#clip0_10_1391)">
<circle cx="30.8125" cy="29.0001" r="28.0938" fill="white" stroke="#A452D7" stroke-width="1.8125"/>
<rect x="15.4062" y="25.3751" width="7.25" height="18.125" rx="0.90625" stroke="#A452D7" stroke-width="1.45"/>
<path d="M32.625 22.6407V20.8439C32.625 20.3434 32.2193 19.9376 31.7188 19.9376H26.2812C25.7807 19.9376 25.375 20.3434 25.375 20.8439V42.5939C25.375 43.0944 25.7807 43.5001 26.2812 43.5001H27.9031" stroke="#A452D7" stroke-width="1.45" stroke-linecap="round" stroke-linejoin="round"/>
<path d="M35.3438 21.297V15.4064C35.3438 14.9059 35.7495 14.5001 36.25 14.5001H41.6875C42.188 14.5001 42.5938 14.9059 42.5938 15.4064V21.297" stroke="#A452D7" stroke-width="1.45" stroke-linecap="round"/>
<circle cx="38.0625" cy="34.4376" r="9.0625" stroke="#A452D7" stroke-width="1.45" stroke-linecap="round"/>
<path d="M44.9189 41.0564L44.4062 40.5437L43.3809 41.569L43.8936 42.0817L44.9189 41.0564ZM46.6123 44.8004C46.8955 45.0836 47.3545 45.0836 47.6377 44.8004C47.9208 44.5173 47.9208 44.0583 47.6377 43.7751L46.6123 44.8004ZM44.4062 41.569L43.8936 42.0817L46.6123 44.8004L47.125 44.2878L47.6377 43.7751L44.9189 41.0564L44.4062 41.569Z" fill="#A452D7"/>
</g>
<g clip-path="url(#clip1_10_1391)">
<ellipse cx="69.7998" cy="29.0001" rx="28.5469" ry="29" fill="white"/>
<path d="M69.7998 0.906372C85.0519 0.906372 97.4404 13.4709 97.4404 29.0001C97.4404 44.5294 85.0519 57.0939 69.7998 57.0939C54.5477 57.0939 42.1592 44.5294 42.1592 29.0001C42.1592 13.4709 54.5477 0.906372 69.7998 0.906372Z" stroke="#181818" stroke-opacity="0.7" stroke-width="1.8125"/>
<path d="M59.5064 34.7403H57.1318C56.6313 34.7403 56.2256 34.3346 56.2256 33.834V12.8575C56.2256 12.357 56.6313 11.9513 57.1318 11.9513H73.9683C74.4688 11.9513 74.8745 12.357 74.8745 12.8575V19.005" stroke="#181818" stroke-opacity="0.7" stroke-width="1.45" stroke-linecap="round"/>
<path d="M83.2998 22.5289H66.4634C65.9629 22.5289 65.5571 22.9347 65.5571 23.4352V45.1427C65.5571 45.6432 65.9629 46.049 66.4634 46.049H68.838H83.2998C83.8003 46.049 84.2061 45.6432 84.2061 45.1427V29.8089V23.4352C84.2061 22.9347 83.8003 22.5289 83.2998 22.5289Z" stroke="#181818" stroke-opacity="0.7" stroke-width="1.45" stroke-linecap="round"/>
<circle cx="77.4658" cy="38.9689" r="2.9" stroke="#181818" stroke-opacity="0.7" stroke-width="1.45"/>
<line x1="70.0346" y1="29.1814" x2="79.4596" y2="29.1814" stroke="#181818" stroke-opacity="0.7" stroke-width="1.45" stroke-linecap="round"/>
<line x1="70.0346" y1="32.8064" x2="75.8346" y2="32.8064" stroke="#181818" stroke-opacity="0.7" stroke-width="1.45" stroke-linecap="round"/>
</g>
<defs>
<clipPath id="clip0_10_1391">
<rect width="58.4347" height="58" fill="white"/>
</clipPath>
<clipPath id="clip1_10_1391">
<rect width="58.4347" height="58" fill="white" transform="translate(39.4033 0.00012207)"/>
</clipPath>
</defs>
</svg>
