<svg width="59" height="59" viewBox="0 0 59 59" fill="none" xmlns="http://www.w3.org/2000/svg">
<g clip-path="url(#clip0_2018_6346)">
<path d="M57.2932 7.41832H46.8261L40.4351 1.02745C40.4265 1.01884 40.4161 1.01238 40.4073 1.00411C40.3832 0.981745 40.3577 0.961007 40.3309 0.942031C40.3186 0.933649 40.305 0.928098 40.2924 0.920961C40.2666 0.904709 40.2397 0.890323 40.2119 0.877914C40.1957 0.871231 40.1791 0.867946 40.1631 0.862735C40.1364 0.853672 40.11 0.843703 40.082 0.838153C40.0369 0.828849 39.9909 0.824181 39.9449 0.824219H22.7731C22.6821 0.824204 22.5919 0.842127 22.5078 0.876964C22.4237 0.911801 22.3473 0.962868 22.2829 1.02725C22.2185 1.09163 22.1675 1.16807 22.1326 1.25218C22.0978 1.3363 22.0799 1.42646 22.0799 1.5175V7.41832H2.03936C1.94832 7.41831 1.85816 7.43623 1.77405 7.47107C1.68994 7.5059 1.61351 7.55697 1.54914 7.62135C1.48477 7.68573 1.43372 7.76217 1.39889 7.84629C1.36407 7.9304 1.34616 8.02056 1.34619 8.1116V45.1743C1.34613 45.2653 1.36402 45.3555 1.39883 45.4396C1.43364 45.5238 1.4847 45.6002 1.54908 45.6646C1.61345 45.729 1.68989 45.7801 1.77402 45.8149C1.85814 45.8497 1.94831 45.8676 2.03936 45.8676H22.8415V50.2275C22.8304 52.1115 21.2991 53.6445 19.4289 53.6445H16.4513C16.3603 53.6445 16.2701 53.6624 16.186 53.6972C16.1019 53.732 16.0254 53.7831 15.9611 53.8474C15.8967 53.9118 15.8456 53.9883 15.8108 54.0724C15.776 54.1565 15.7581 54.2467 15.7582 54.3377V56.7715C15.7581 56.8625 15.776 56.9527 15.8108 57.0368C15.8456 57.1209 15.8966 57.1974 15.961 57.2618C16.0254 57.3261 16.1019 57.3772 16.186 57.412C16.2701 57.4468 16.3603 57.4647 16.4513 57.4646H42.8953C42.9863 57.4647 43.0765 57.4468 43.1606 57.412C43.2448 57.3772 43.3213 57.3261 43.3857 57.2618C43.4501 57.1974 43.5011 57.121 43.536 57.0368C43.5708 56.9527 43.5887 56.8625 43.5887 56.7715V54.3377C43.5887 54.2467 43.5708 54.1565 43.5359 54.0724C43.5011 53.9882 43.45 53.9118 43.3856 53.8474C43.3212 53.7831 43.2448 53.732 43.1606 53.6972C43.0765 53.6624 42.9863 53.6445 42.8953 53.6445H39.9043C38.0339 53.6445 36.5029 52.1115 36.4915 50.2318V45.8676H57.2933C57.3844 45.8676 57.4745 45.8497 57.5587 45.8149C57.6428 45.7801 57.7192 45.729 57.7836 45.6646C57.848 45.6002 57.899 45.5238 57.9338 45.4396C57.9687 45.3555 57.9865 45.2653 57.9865 45.1743V8.1116C57.9865 7.92773 57.9134 7.75139 57.7834 7.62138C57.6534 7.49136 57.4771 7.41832 57.2932 7.41832ZM23.4663 2.21123H39.2517V7.97589C39.2517 8.06695 39.2696 8.15713 39.3044 8.24127C39.3392 8.32541 39.3903 8.40186 39.4547 8.46626C39.519 8.53066 39.5955 8.58175 39.6796 8.6166C39.7637 8.65146 39.8539 8.6694 39.945 8.6694H43.1669C43.258 8.66941 43.3482 8.65148 43.4323 8.61664C43.5164 8.58179 43.5929 8.5307 43.6573 8.4663C43.7217 8.4019 43.7728 8.32544 43.8076 8.24129C43.8424 8.15715 43.8603 8.06696 43.8603 7.97589C43.8603 7.88483 43.8424 7.79466 43.8076 7.71052C43.7727 7.62639 43.7216 7.54994 43.6572 7.48555C43.5929 7.42116 43.5164 7.37009 43.4323 7.33525C43.3481 7.30041 43.258 7.28248 43.1669 7.2825H40.638V3.19134L45.7097 8.26295V32.775H32.7574C32.7038 32.657 32.6534 32.5369 32.5935 32.426C31.9348 30.7869 29.7415 29.347 25.8902 28.0254C25.7174 27.9324 25.6518 27.6458 25.628 27.4037C27.1418 25.7898 27.6587 23.4973 27.3535 19.8372C27.1759 17.3252 25.3268 16.0323 23.4663 15.776V2.21123ZM21.1198 26.633C19.7535 25.3182 19.2958 23.3182 19.5905 19.9348C19.7277 17.9851 21.288 17.1122 22.7732 17.1122C24.2656 17.1122 25.8328 17.9851 25.971 19.9436C26.2529 23.3282 25.7953 25.3284 24.4408 26.633C24.3736 26.6976 24.3202 26.7752 24.2837 26.8611C24.2472 26.9469 24.2284 27.0393 24.2286 27.1325C24.2286 28.518 24.8373 29.0777 25.3484 29.3034C25.3668 29.3112 25.3856 29.3184 25.4042 29.3246C29.6999 30.794 30.9904 32.1174 31.3168 32.9687C31.3278 32.9988 31.3416 33.0282 31.3573 33.0561C31.6526 33.5898 31.8474 34.2517 31.9363 35.0245C31.9185 35.5412 31.4927 35.9561 30.9714 35.9561H14.5883C14.0676 35.9561 13.642 35.5412 13.624 35.0245C13.7115 34.2586 13.9035 33.5934 14.1944 33.0461C14.207 33.0226 14.2177 32.9982 14.2276 32.9739C14.5646 32.1158 15.8661 30.7862 20.1552 29.3252C20.1744 29.3186 20.193 29.3111 20.2118 29.3032C20.9364 28.9832 21.3135 28.2567 21.3318 27.1439C21.3352 26.9513 21.2582 26.7665 21.1198 26.633ZM39.9042 55.031H42.202V56.0784H17.1445V55.031H19.4289C21.4593 55.031 23.2004 53.7473 23.8988 51.9449H31.1349C31.518 51.9449 31.8281 51.6347 31.8281 51.2516C31.8281 50.8685 31.518 50.5583 31.1349 50.5583H24.2099C24.2178 50.4502 24.2275 50.3421 24.228 50.2319V45.8677H35.1049V50.2361C35.1203 52.8801 37.2736 55.031 39.9042 55.031ZM56.6 44.4811H2.73241V8.80511H22.0799V15.776C20.2263 16.0331 18.3843 17.325 18.2078 19.8257C17.8896 23.483 18.4054 25.7754 19.9283 27.3994C19.9013 27.6458 19.8345 27.9351 19.6701 28.0253C15.8218 29.341 13.6232 30.7822 12.9519 32.429C12.5829 33.1353 12.3435 33.972 12.2404 34.9153C12.238 34.9404 12.2368 34.9656 12.2367 34.9909C12.2367 36.2878 13.2916 37.3426 14.5884 37.3426H30.9715C32.2685 37.3426 33.3239 36.2878 33.3239 34.9909C33.3239 34.9655 33.3223 34.9402 33.3202 34.9148C33.2921 34.6619 33.2521 34.4104 33.2004 34.1612H46.4032C46.4943 34.1612 46.5844 34.1433 46.6685 34.1085C46.7526 34.0737 46.829 34.0226 46.8934 33.9583C46.9578 33.8939 47.0088 33.8175 47.0437 33.7334C47.0785 33.6493 47.0964 33.5592 47.0964 33.4681V8.80511H56.6001L56.6 44.4811ZM54.3975 39.029C54.4886 39.029 54.5787 39.0469 54.6628 39.0817C54.747 39.1165 54.8234 39.1676 54.8878 39.232C54.9522 39.2964 55.0032 39.3728 55.038 39.4569C55.0728 39.5411 55.0907 39.6312 55.0907 39.7223C55.0907 39.8133 55.0728 39.9035 55.038 39.9876C55.0032 40.0717 54.9521 40.1482 54.8877 40.2125C54.8234 40.2769 54.7469 40.328 54.6628 40.3628C54.5787 40.3976 54.4885 40.4155 54.3975 40.4154H4.93539C4.84436 40.4155 4.75421 40.3976 4.6701 40.3627C4.58598 40.3279 4.50956 40.2769 4.44518 40.2125C4.38081 40.1481 4.32975 40.0717 4.29493 39.9876C4.26011 39.9035 4.2422 39.8133 4.24223 39.7223C4.24218 39.6312 4.26008 39.5411 4.2949 39.4569C4.32972 39.3728 4.38077 39.2964 4.44514 39.232C4.50952 39.1676 4.58595 39.1165 4.67007 39.0817C4.75419 39.0469 4.84435 39.029 4.93539 39.029H54.3975ZM31.1886 42.4416C31.1887 42.5326 31.1708 42.6228 31.136 42.7069C31.1012 42.7911 31.0502 42.8675 30.9858 42.9319C30.9214 42.9963 30.845 43.0473 30.7608 43.0821C30.6767 43.1169 30.5865 43.1348 30.4955 43.1347H28.9728C28.8817 43.1347 28.7915 43.1169 28.7074 43.0821C28.6233 43.0473 28.5468 42.9962 28.4824 42.9319C28.418 42.8675 28.367 42.7911 28.3321 42.7069C28.2973 42.6228 28.2794 42.5326 28.2795 42.4416C28.2794 42.3505 28.2973 42.2604 28.3322 42.1762C28.367 42.0921 28.4181 42.0157 28.4824 41.9513C28.5468 41.8869 28.6233 41.8358 28.7074 41.801C28.7915 41.7662 28.8817 41.7483 28.9728 41.7483H30.4955C30.5865 41.7483 30.6767 41.7662 30.7608 41.801C30.8449 41.8358 30.9214 41.8869 30.9857 41.9513C31.0501 42.0157 31.1012 42.0921 31.136 42.1763C31.1708 42.2604 31.1886 42.3506 31.1886 42.4416ZM25.4925 11.1438C25.4925 11.0527 25.5104 10.9625 25.5452 10.8784C25.58 10.7942 25.6311 10.7178 25.6955 10.6534C25.7599 10.5889 25.8363 10.5378 25.9204 10.503C26.0046 10.4681 26.0948 10.4502 26.1858 10.4502H28.4836C28.5747 10.4502 28.6649 10.4681 28.749 10.503C28.8331 10.5378 28.9096 10.5889 28.974 10.6534C29.0383 10.7178 29.0894 10.7942 29.1242 10.8784C29.159 10.9625 29.1769 11.0527 29.1769 11.1438C29.1769 11.2349 29.159 11.325 29.1242 11.4091C29.0893 11.4933 29.0383 11.5697 28.9739 11.6341C28.9095 11.6985 28.8331 11.7496 28.749 11.7844C28.6648 11.8193 28.5747 11.8372 28.4836 11.8372H26.1858C26.0948 11.8372 26.0046 11.8193 25.9205 11.7844C25.8364 11.7496 25.7599 11.6985 25.6956 11.6341C25.6312 11.5697 25.5801 11.4933 25.5453 11.4091C25.5104 11.325 25.4925 11.2349 25.4925 11.1438ZM25.4925 6.68426C25.4925 6.5932 25.5104 6.50302 25.5452 6.41888C25.5801 6.33474 25.6311 6.25829 25.6955 6.19389C25.7599 6.12949 25.8363 6.0784 25.9205 6.04354C26.0046 6.00869 26.0948 5.99075 26.1858 5.99075H34.3705C34.4616 5.99077 34.5517 6.00872 34.6358 6.04358C34.7199 6.07845 34.7963 6.12954 34.8607 6.19394C34.925 6.25834 34.976 6.33479 35.0108 6.41892C35.0456 6.50305 35.0635 6.59322 35.0635 6.68426C35.0635 6.77529 35.0457 6.86545 35.0109 6.94957C34.9761 7.0337 34.925 7.11014 34.8607 7.17453C34.7963 7.23892 34.7199 7.28999 34.6358 7.32482C34.5517 7.35965 34.4615 7.37757 34.3705 7.37754H26.1858C26.0948 7.37758 26.0046 7.35968 25.9205 7.32486C25.8363 7.29003 25.7599 7.23897 25.6955 7.17458C25.6311 7.1102 25.58 7.03375 25.5452 6.94962C25.5104 6.86549 25.4925 6.77531 25.4925 6.68426ZM30.7677 10.4502H43.004C43.0951 10.4502 43.1852 10.4681 43.2694 10.503C43.3535 10.5379 43.4299 10.589 43.4943 10.6534C43.5587 10.7178 43.6097 10.7943 43.6445 10.8784C43.6793 10.9626 43.6972 11.0527 43.6972 11.1438C43.6972 11.2348 43.6793 11.325 43.6445 11.4091C43.6096 11.4932 43.5586 11.5697 43.4942 11.6341C43.4298 11.6984 43.3534 11.7495 43.2693 11.7844C43.1852 11.8192 43.0951 11.8372 43.004 11.8372H30.7677C30.5838 11.8372 30.4074 11.7641 30.2774 11.6341C30.1474 11.5041 30.0743 11.3277 30.0743 11.1438C30.0743 11.0527 30.0922 10.9625 30.127 10.8784C30.1618 10.7942 30.2129 10.7177 30.2773 10.6533C30.3417 10.5889 30.4181 10.5378 30.5023 10.503C30.5864 10.4681 30.6766 10.4502 30.7677 10.4502ZM43.6972 15.6032C43.6972 15.6943 43.6793 15.7845 43.6445 15.8686C43.6097 15.9528 43.5587 16.0292 43.4943 16.0936C43.4299 16.158 43.3535 16.2091 43.2694 16.244C43.1852 16.2789 43.0951 16.2968 43.004 16.2969H31.9233C31.54 16.2969 31.23 15.9862 31.23 15.6032C31.23 15.2202 31.54 14.9097 31.9233 14.9097H43.004C43.0951 14.9097 43.1852 14.9277 43.2693 14.9626C43.3535 14.9974 43.4299 15.0485 43.4942 15.1129C43.5586 15.1773 43.6097 15.2537 43.6445 15.3379C43.6793 15.422 43.6972 15.5122 43.6972 15.6032ZM43.6972 20.0627C43.6972 20.1537 43.6793 20.2438 43.6444 20.3279C43.6096 20.412 43.5586 20.4885 43.4942 20.5528C43.4298 20.6172 43.3534 20.6683 43.2693 20.7031C43.1852 20.7379 43.095 20.7558 43.004 20.7558H31.9233C31.8323 20.7559 31.7421 20.738 31.658 20.7032C31.5738 20.6683 31.4974 20.6173 31.433 20.5529C31.3686 20.4885 31.3176 20.4121 31.2827 20.328C31.2479 20.2439 31.23 20.1537 31.23 20.0627C31.23 19.9716 31.2478 19.8814 31.2827 19.7972C31.3175 19.7131 31.3685 19.6366 31.4329 19.5722C31.4973 19.5078 31.5738 19.4567 31.6579 19.4219C31.742 19.387 31.8322 19.3691 31.9233 19.3692H43.004C43.0951 19.3692 43.1852 19.3871 43.2694 19.4219C43.3535 19.4568 43.4299 19.5079 43.4943 19.5723C43.5586 19.6367 43.6097 19.7132 43.6445 19.7973C43.6793 19.8814 43.6972 19.9716 43.6972 20.0627ZM43.6972 24.5221C43.6972 24.6131 43.6793 24.7033 43.6445 24.7874C43.6097 24.8716 43.5586 24.948 43.4942 25.0124C43.4299 25.0768 43.3535 25.1279 43.2693 25.1628C43.1852 25.1976 43.0951 25.2156 43.004 25.2156H41.7126C41.3294 25.2156 41.0194 24.9051 41.0194 24.5221C41.0194 24.1391 41.3294 23.8286 41.7126 23.8286H43.004C43.0951 23.8286 43.1852 23.8465 43.2693 23.8814C43.3535 23.9163 43.4299 23.9674 43.4942 24.0318C43.5586 24.0962 43.6097 24.1726 43.6445 24.2567C43.6793 24.3409 43.6972 24.431 43.6972 24.5221ZM43.6972 28.9815C43.6972 29.0726 43.6793 29.1627 43.6444 29.2468C43.6096 29.3309 43.5586 29.4073 43.4942 29.4717C43.4298 29.5361 43.3534 29.5871 43.2693 29.622C43.1852 29.6568 43.095 29.6747 43.004 29.6747H31.9233C31.8323 29.6747 31.7421 29.6568 31.658 29.622C31.5738 29.5872 31.4974 29.5361 31.433 29.4718C31.3686 29.4074 31.3176 29.331 31.2827 29.2468C31.2479 29.1627 31.23 29.0726 31.23 28.9815C31.23 28.8904 31.2478 28.8003 31.2827 28.7161C31.3175 28.632 31.3685 28.5555 31.4329 28.4911C31.4973 28.4267 31.5738 28.3756 31.6579 28.3407C31.742 28.3059 31.8322 28.288 31.9233 28.288H43.004C43.0951 28.288 43.1852 28.306 43.2694 28.3408C43.3535 28.3757 43.4299 28.4268 43.4943 28.4912C43.5586 28.5556 43.6097 28.632 43.6445 28.7162C43.6793 28.8003 43.6972 28.8905 43.6972 28.9815ZM31.23 24.5221C31.23 24.431 31.2478 24.3408 31.2827 24.2567C31.3175 24.1725 31.3685 24.0961 31.4329 24.0317C31.4973 23.9672 31.5738 23.9162 31.6579 23.8813C31.742 23.8465 31.8322 23.8286 31.9233 23.8286H39.6184C40.0017 23.8286 40.3117 24.1391 40.3117 24.5221C40.3117 24.9051 40.0017 25.2156 39.6184 25.2156H31.9233C31.8322 25.2156 31.742 25.1977 31.6579 25.1629C31.5738 25.128 31.4973 25.0769 31.4329 25.0125C31.3685 24.9481 31.3175 24.8717 31.2827 24.7875C31.2478 24.7034 31.23 24.6132 31.23 24.5221Z" fill="#A452D7"/>
</g>
<defs>
<clipPath id="clip0_2018_6346">
<rect width="58" height="58" fill="white" transform="translate(0.666504 0.144531)"/>
</clipPath>
</defs>
</svg>
