<svg width="59" height="59" viewBox="0 0 59 59" fill="none" xmlns="http://www.w3.org/2000/svg">
<path d="M44.393 41.7827C44.7075 41.9639 44.9322 42.2566 45.0265 42.6083C45.0956 42.8679 45.0862 43.1422 44.9996 43.3965C44.913 43.6508 44.7531 43.8738 44.5399 44.0373C44.3268 44.2008 44.07 44.2976 43.8019 44.3153C43.5338 44.3331 43.2665 44.2711 43.0336 44.1371L34.0083 38.9262C33.9052 38.8657 33.7912 38.8263 33.6727 38.8101C33.5543 38.7939 33.4339 38.8013 33.3183 38.8318C33.2028 38.8624 33.0944 38.9155 32.9995 38.9881C32.9045 39.0607 32.8249 39.1513 32.7651 39.2549C32.7054 39.3584 32.6667 39.4727 32.6513 39.5912C32.6359 39.7097 32.6441 39.8301 32.6754 39.9454C32.7067 40.0608 32.7605 40.1688 32.8337 40.2632C32.907 40.3577 32.9982 40.4367 33.1021 40.4958L40.5578 44.8005L40.5605 44.8014C40.8593 44.9886 41.0738 45.2846 41.1586 45.6268C41.2435 45.9691 41.1921 46.3309 41.0153 46.636C40.8385 46.9412 40.5502 47.1657 40.2111 47.2623C39.8719 47.359 39.5085 47.3201 39.1975 47.154L31.7418 42.8493C31.5337 42.7311 31.2874 42.6999 31.0564 42.7626C30.8255 42.8253 30.6287 42.9768 30.509 43.184C30.3894 43.3913 30.3565 43.6374 30.4177 43.8688C30.4789 44.1002 30.6291 44.2979 30.8355 44.419L37.5055 48.2705L37.5073 48.2714C37.8209 48.4536 38.0456 48.7454 38.1399 49.0961C38.2341 49.4468 38.1861 49.813 38.004 50.1274C37.8227 50.4419 37.53 50.6666 37.1784 50.7609C37.0061 50.8077 36.8262 50.8199 36.6492 50.7967C36.4721 50.7736 36.3015 50.7155 36.1471 50.6259L29.4761 46.7743C29.373 46.7139 29.259 46.6744 29.1406 46.6582C29.0222 46.642 28.9017 46.6494 28.7862 46.68C28.6706 46.7105 28.5623 46.7636 28.4673 46.8362C28.3724 46.9088 28.2927 46.9995 28.233 47.103C28.1732 47.2065 28.1345 47.3208 28.1191 47.4393C28.1037 47.5578 28.1119 47.6782 28.1432 47.7936C28.1745 47.9089 28.2284 48.0169 28.3016 48.1114C28.3748 48.2058 28.466 48.2849 28.5699 48.3439L34.456 51.7424C35.1049 52.1166 35.3278 52.9504 34.9535 53.5993C34.5792 54.2481 33.7455 54.472 33.0966 54.0968L30.7748 52.7565C30.7301 52.2505 30.5645 51.7627 30.2918 51.3342C30.0191 50.9056 29.6473 50.5489 29.2079 50.2942C28.6347 49.9648 27.9721 49.825 27.3147 49.8945C27.3096 49.6502 27.2765 49.4072 27.216 49.1704C27.0239 48.4435 26.578 47.8093 25.959 47.3825C25.3401 46.9556 24.5888 46.7643 23.8411 46.8432C23.8066 45.7829 23.2511 44.7624 22.2669 44.1942C21.2827 43.626 20.1218 43.6559 19.1857 44.1561C18.8789 43.4702 18.3374 42.9161 17.6586 42.5937C16.9799 42.2712 16.2083 42.2015 15.4827 42.3971C14.9527 42.5427 14.4699 42.8245 14.0826 43.2146L9.56855 41.4356L10.5899 37.3448C10.6481 37.1116 10.6112 36.8649 10.4875 36.6589C10.3638 36.453 10.1633 36.3046 9.93015 36.2464C9.69701 36.1882 9.45031 36.2251 9.24432 36.3488C9.03834 36.4725 8.88994 36.673 8.83177 36.9061L7.24674 43.2544L3.56284 42.5167C3.44601 42.493 3.32564 42.4925 3.20863 42.5154C3.09162 42.5382 2.98027 42.5839 2.88096 42.6499C2.78164 42.7159 2.69632 42.8008 2.62988 42.8997C2.56343 42.9987 2.51717 43.1099 2.49374 43.2268C2.47032 43.3437 2.47018 43.464 2.49335 43.581C2.51652 43.6979 2.56254 43.8091 2.62877 43.9083C2.695 44.0074 2.78013 44.0925 2.8793 44.1587C2.97847 44.2248 3.08972 44.2708 3.20668 44.2939L7.73793 45.2001C7.96652 45.246 8.20397 45.202 8.40094 45.0772C8.5979 44.9525 8.73922 44.7567 8.79552 44.5304L9.1254 43.2082L13.0486 44.7534L12.1967 46.2278C11.9876 46.5883 11.8519 46.9865 11.7975 47.3996C11.743 47.8127 11.7709 48.2325 11.8795 48.6348C11.9862 49.0377 12.1718 49.4153 12.4255 49.7459C12.6792 50.0765 12.9961 50.3534 13.3576 50.5606C13.856 50.8479 14.4007 50.9847 14.9381 50.9847C15.0432 50.9847 15.1474 50.9748 15.2516 50.9648C15.2598 51.2059 15.287 51.4469 15.3504 51.6853C15.4571 52.0881 15.6427 52.4657 15.8965 52.7963C16.1502 53.1269 16.467 53.4038 16.8285 53.6111C17.2957 53.8818 17.8245 54.0279 18.3644 54.0355C18.9042 54.0432 19.437 53.912 19.9116 53.6546C20.1592 54.2097 20.5626 54.6811 21.0729 55.0115C21.5832 55.3419 22.1783 55.5172 22.7862 55.516C23.3109 55.516 23.8266 55.3828 24.2888 55.1354C24.5971 55.8194 25.1388 56.3715 25.8169 56.6926C26.495 57.0137 27.2653 57.083 27.9899 56.8881C28.3927 56.7813 28.7704 56.5958 29.1009 56.342C29.4315 56.0883 29.7084 55.7715 29.9157 55.41L30.3688 54.6251L30.3733 54.6161L32.1904 55.6646C32.6948 55.9548 33.2692 56.1007 33.8509 56.0864C34.4327 56.0721 34.9993 55.8982 35.4888 55.5836C35.9783 55.269 36.3719 54.8259 36.6266 54.3026C36.8813 53.7794 36.9872 53.1963 36.9328 52.6169C37.1711 52.6087 37.4113 52.5725 37.6478 52.5091C38.0506 52.4024 38.4283 52.2168 38.7588 51.963C39.0894 51.7093 39.3663 51.3925 39.5736 51.031C39.9161 50.4374 40.0448 49.7785 39.9832 49.1432C40.5217 49.1251 41.0467 48.9703 41.5089 48.6933C41.971 48.4164 42.3551 48.0264 42.6249 47.56C42.8898 47.1026 43.0353 46.5859 43.0481 46.0575C43.5792 46.1706 44.1303 46.1457 44.649 45.9851C45.1676 45.8245 45.6364 45.5335 46.0105 45.14C46.3846 44.7466 46.6515 44.2637 46.7858 43.7376C46.9201 43.2116 46.9172 42.6598 46.7774 42.1352C46.7282 41.961 46.6645 41.7913 46.5871 41.6277L50.1423 41.1302L50.5383 42.7143C50.5934 42.941 50.7341 43.1376 50.9309 43.263C51.1277 43.3883 51.3653 43.4327 51.5941 43.3867L56.1253 42.4805C56.361 42.4333 56.5683 42.2943 56.7015 42.0943C56.8347 41.8943 56.8831 41.6495 56.8358 41.4138C56.7886 41.1782 56.6497 40.9709 56.4497 40.8377C56.2496 40.7044 56.0048 40.6561 55.7692 40.7033L52.0853 41.4401L47.9736 24.9926L56.2069 22.5221C56.4372 22.4532 56.6306 22.2955 56.7446 22.0839C56.8587 21.8724 56.884 21.6241 56.815 21.3939C56.746 21.1636 56.5884 20.9702 56.3768 20.8561C56.1652 20.7421 55.917 20.7168 55.6867 20.7858L50.1459 22.4478C49.7794 21.48 49.1426 20.6378 48.3114 20.0212C47.4802 19.4046 46.4895 19.0396 45.457 18.9696C46.3753 17.9726 46.8851 16.6666 46.8852 15.3111C46.8852 15.0708 46.7897 14.8403 46.6198 14.6703C46.4498 14.5003 46.2193 14.4049 45.979 14.4049C45.7386 14.4049 45.5081 14.5003 45.3381 14.6703C45.1682 14.8403 45.0727 15.0708 45.0727 15.3111C45.0727 17.3103 43.4469 18.9361 41.4477 18.9361C39.4485 18.9361 37.8227 17.3103 37.8227 15.3111V12.0985C38.4958 11.5108 39.3214 11.1254 40.2041 10.9867C41.0868 10.848 41.9907 10.9617 42.8116 11.3146L45.6219 12.519C45.7597 12.5788 45.9102 12.6033 46.0599 12.5903C46.2095 12.5773 46.3536 12.5272 46.479 12.4445C46.6044 12.3618 46.7072 12.2492 46.7782 12.1168C46.8491 11.9843 46.8859 11.8363 46.8852 11.6861V10.9874C46.8838 9.73104 46.384 8.52654 45.4957 7.63816C44.6073 6.74978 43.4028 6.25005 42.1464 6.24862C41.7993 6.24862 41.4595 6.18337 41.1369 6.05377L37.2536 4.50046C37.0425 4.41597 36.8074 4.41389 36.5949 4.49463C36.3824 4.57538 36.208 4.73304 36.1063 4.93637L35.7546 5.63871C35.266 6.6233 35.0333 7.71513 35.0779 8.8134C35.1226 9.91167 35.4432 10.981 36.0102 11.9226V15.3111C36.0102 16.7221 36.5549 18.0054 37.4394 18.9724C37.153 18.9941 36.8666 19.0358 36.5812 19.1056C36.1138 18.5385 35.5362 18.0721 34.8834 17.7347C34.2305 17.3973 33.516 17.1959 32.7831 17.1426C33.693 16.1472 34.1977 14.8473 34.1977 13.4986V8.96737C34.1977 6.46883 32.165 4.43612 29.6665 4.43612H24.229C23.9886 4.43612 23.7581 4.5316 23.5881 4.70155C23.4182 4.87151 23.3227 5.10201 23.3227 5.34237V8.96737C23.3227 9.20772 23.4182 9.43823 23.5881 9.60818C23.7581 9.77814 23.9886 9.87362 24.229 9.87362H32.3852V13.4986C32.3852 15.4978 30.7594 17.1236 28.7602 17.1236C26.761 17.1236 25.1352 15.4978 25.1352 13.4986V12.5924C25.1352 12.352 25.0397 12.1215 24.8698 11.9516C24.6998 11.7816 24.4693 11.6861 24.229 11.6861C23.9886 11.6861 23.7581 11.7816 23.5881 11.9516C23.4182 12.1215 23.3227 12.352 23.3227 12.5924V13.4986C23.3227 14.9015 23.861 16.1784 24.7374 17.1436C23.9578 17.2011 23.1999 17.4264 22.5154 17.804C21.8309 18.1815 21.2361 18.7025 20.7716 19.3312C20.2641 19.1288 19.7287 19.0047 19.1839 18.9633C20.097 17.9661 20.6036 16.6632 20.604 15.3111V10.7799C20.604 8.28133 18.5712 6.24862 16.0727 6.24862H14.2602C11.7617 6.24862 9.72896 8.28133 9.72896 10.7799V15.3111C9.72896 16.714 10.2673 17.9909 11.1436 18.9561C9.94945 19.0449 8.81793 19.5252 7.92446 20.3224C7.031 21.1197 6.42551 22.1895 6.20184 23.3659L3.64621 22.5992C3.5322 22.565 3.41258 22.5537 3.29417 22.5657C3.17577 22.5778 3.0609 22.6131 2.95613 22.6695C2.85136 22.726 2.75874 22.8026 2.68355 22.8948C2.60836 22.9871 2.55209 23.0933 2.51793 23.2073C2.48377 23.3213 2.47241 23.4409 2.48448 23.5593C2.49656 23.6777 2.53183 23.7926 2.5883 23.8974C2.64477 24.0021 2.72132 24.0947 2.81358 24.1699C2.90584 24.2451 3.01201 24.3014 3.12602 24.3356L11.3593 26.806L9.71084 33.379C9.68096 33.4948 9.67428 33.6153 9.69118 33.7337C9.70809 33.852 9.74824 33.9659 9.80934 34.0686C9.87043 34.1714 9.95126 34.2611 10.0472 34.3324C10.1431 34.4038 10.2521 34.4556 10.3681 34.4846C10.4841 34.5137 10.6046 34.5195 10.7229 34.5017C10.8411 34.484 10.9547 34.443 11.057 34.3812C11.1593 34.3194 11.2484 34.2379 11.3191 34.1415C11.3898 34.0451 11.4407 33.9356 11.469 33.8195L12.6344 29.1677L15.3722 29.9797C17.0723 30.4826 18.8821 30.5289 20.6058 30.112L22.0648 29.7586C22.7434 29.5921 23.4601 29.6954 24.064 30.0467L25.6599 30.9684C24.1561 32.1491 22.4615 33.064 20.6493 33.6736C20.2625 33.8024 19.9096 34.0164 19.6166 34.2999C19.3236 34.5834 19.098 34.929 18.9565 35.3113C18.815 35.6936 18.7611 36.1028 18.7989 36.5087C18.8367 36.9147 18.9651 37.3069 19.1748 37.6565C19.7108 38.5554 20.5793 39.207 21.5923 39.4703C22.6052 39.7335 23.6811 39.5872 24.5869 39.063L27.9237 37.1581L28.2681 37.2949C29.4837 37.7797 30.7915 37.9895 32.0977 37.9095C33.4039 37.8294 34.6762 37.4614 35.8235 36.8318L38.2831 38.2528C38.4908 38.3674 38.7351 38.396 38.9636 38.3324C39.1921 38.2689 39.3866 38.1183 39.5053 37.913C39.624 37.7076 39.6576 37.464 39.5986 37.2342C39.5397 37.0045 39.3931 36.807 39.1902 36.6841L36.2721 34.9985C36.1288 34.9156 35.9655 34.8736 35.8 34.8769C35.6345 34.8803 35.4731 34.9289 35.3332 35.0175C34.3904 35.6151 33.3193 35.9804 32.2079 36.0836C31.0964 36.1868 29.9764 36.0249 28.9396 35.6111L28.1875 35.3121C28.061 35.262 27.9249 35.241 27.7892 35.2506C27.6536 35.2602 27.5218 35.3001 27.4036 35.3673L23.687 37.488C23.1917 37.7746 22.6035 37.8549 22.0495 37.7115C21.4955 37.568 21.0202 37.2123 20.7263 36.7213C20.6558 36.6059 20.6125 36.476 20.5998 36.3414C20.587 36.2068 20.6052 36.0711 20.6529 35.9446C20.749 35.6827 20.9583 35.4815 21.2238 35.3918C23.5091 34.6308 25.6251 33.4335 27.4543 31.8665L29.3121 30.2715C29.7674 29.8809 30.3125 29.6096 30.8986 29.482C31.4847 29.3543 32.0933 29.3743 32.6698 29.5401C35.4465 30.3304 38.3819 30.3322 41.1604 29.5401L46.8363 27.9216L49.6973 39.3657L44.9812 40.0264L42.3241 38.4966C42.2209 38.4372 42.107 38.3988 41.9889 38.3834C41.8709 38.368 41.751 38.376 41.636 38.407C41.5211 38.438 41.4133 38.4913 41.319 38.5639C41.2246 38.6365 41.1455 38.7269 41.0861 38.8301C41.0267 38.9333 40.9882 39.0472 40.9729 39.1652C40.9575 39.2833 40.9655 39.4032 40.9965 39.5182C41.0275 39.6331 41.0808 39.7408 41.1534 39.8352C41.226 39.9295 41.3164 40.0087 41.4196 40.0681L44.393 41.7827ZM14.2647 48.9919C13.9531 48.8111 13.7257 48.5142 13.6325 48.1662C13.5392 47.8182 13.5877 47.4474 13.7672 47.135L15.1266 44.7806C15.3072 44.4687 15.6041 44.2412 15.9522 44.1479C16.3003 44.0547 16.6712 44.1033 16.9835 44.283C17.6324 44.6573 17.8553 45.4901 17.481 46.139L16.1207 48.4953C15.9403 48.8071 15.6435 49.0345 15.2955 49.1277C14.9475 49.2208 14.5768 49.1719 14.2647 48.9919ZM19.5038 46.2605C19.6844 45.9486 19.9813 45.7211 20.3294 45.6279C20.6775 45.5346 21.0483 45.5832 21.3607 45.7629C22.0096 46.1381 22.2325 46.971 21.8582 47.6198L19.5926 51.5439C19.4578 51.7761 19.2572 51.9632 19.0163 52.0816C18.7753 52.2 18.5047 52.2445 18.2385 52.2094C17.9723 52.1744 17.7225 52.0613 17.5204 51.8845C17.3184 51.7077 17.1732 51.475 17.1031 51.2158C17.0562 51.0435 17.0441 50.8636 17.0674 50.6865C17.0908 50.5095 17.1491 50.3388 17.2391 50.1845L19.5038 46.2605ZM23.9698 53.0256C23.7882 53.3353 23.4916 53.5606 23.1445 53.6523C22.7975 53.7441 22.4282 53.6949 22.1174 53.5154C21.8065 53.3359 21.5792 53.0407 21.4852 52.6943C21.3911 52.3479 21.4379 51.9783 21.6153 51.6662L22.9747 49.3118C23.1553 49 23.4522 48.7725 23.8003 48.6792C24.1484 48.5859 24.5193 48.6345 24.8316 48.8143C25.4805 49.1895 25.7034 50.0223 25.3291 50.6712L23.9698 53.0256ZM26.4456 52.3622C26.6272 52.0526 26.9239 51.8273 27.2709 51.7355C27.6179 51.6438 27.9872 51.693 28.2981 51.8725C28.6089 52.052 28.8362 52.3471 28.9302 52.6936C29.0243 53.04 28.9775 53.4096 28.8001 53.7216L28.347 54.5064C28.1665 54.8185 27.8696 55.0461 27.5215 55.1394C27.1733 55.2327 26.8023 55.184 26.4901 55.004C26.1788 54.824 25.9514 54.5281 25.8579 54.1809C25.7643 53.8337 25.812 53.4636 25.9907 53.1516L26.4456 52.3622ZM42.9095 20.7486L42.5189 21.9186L41.4477 22.4542L40.3765 21.9186L39.9859 20.7486H42.9095ZM37.3542 6.4933L40.4635 7.73758C40.9987 7.95186 41.57 8.06168 42.1464 8.06112C42.7982 8.06198 43.4312 8.28004 43.9452 8.68082C44.4592 9.0816 44.825 9.64226 44.9848 10.2742L43.5266 9.64977C42.5056 9.20815 41.389 9.03382 40.282 9.14322C39.1749 9.25262 38.114 9.64215 37.1992 10.2751C36.9636 9.66794 36.8558 9.01874 36.8825 8.36804C36.9091 7.71734 37.0697 7.07914 37.3542 6.4933ZM37.8227 20.7486H38.0756L38.7752 22.8475C38.8513 23.075 39.0144 23.2635 39.2292 23.3713L40.5415 24.0274V27.8282C39.6488 28.0738 38.738 28.2288 37.8227 28.2904V22.5611C37.8227 21.9358 37.7112 21.3377 37.5164 20.7785C37.6188 20.7695 37.7212 20.7486 37.8227 20.7486ZM25.1352 8.06112V6.24862H29.6665C30.8482 6.24862 31.856 7.00624 32.2302 8.06112H25.1352ZM29.6665 18.8546V20.1886L28.7602 20.6417L27.854 20.1886V18.8546C28.1494 18.9044 28.4512 18.9361 28.7602 18.9361C29.0692 18.9361 29.371 18.9044 29.6665 18.8546ZM16.0727 22.0011L15.1665 22.4542L14.2602 22.0011V20.7486H16.0727V22.0011ZM11.5415 15.3111V11.6861H18.7915V15.3111C18.7915 17.3103 17.1656 18.9361 15.1665 18.9361C13.1673 18.9361 11.5415 17.3103 11.5415 15.3111ZM14.2602 8.06112H16.0727C17.2545 8.06112 18.2622 8.81874 18.6365 9.87362H11.6973C11.8852 9.3439 12.2324 8.88531 12.6912 8.56079C13.1501 8.23627 13.6982 8.06172 14.2602 8.06112ZM7.96449 23.8951C8.20193 22.1243 9.7063 20.7486 11.5415 20.7486H12.4477V22.5611C12.4477 22.9046 12.6416 23.2181 12.9489 23.3722L13.1673 23.481L12.9697 25.4557C12.8908 25.3959 12.8026 25.3493 12.7087 25.3179L7.96449 23.8951ZM14.552 27.8455L14.9055 24.312C14.9916 24.3383 15.0767 24.3736 15.1665 24.3736C15.2562 24.3736 15.3414 24.3383 15.4275 24.312L15.8181 28.2206L14.552 27.8455ZM17.6731 28.5469L17.1666 23.481L17.385 23.3722C17.6913 23.2181 17.8852 22.9046 17.8852 22.5611V20.7486H18.7915C19.1848 20.7486 19.5681 20.822 19.9406 20.9534C19.7792 21.474 19.6973 22.0161 19.6977 22.5611V28.4336C19.0301 28.5545 18.3501 28.5926 17.6731 28.5469ZM21.6407 27.9968L21.5102 28.0285V22.5611C21.5102 20.5619 23.136 18.9361 25.1352 18.9361H26.0415V20.7486C26.0415 21.0921 26.2354 21.4056 26.5426 21.5597L26.7411 21.6585L26.0478 27.8989C26.0241 28.1108 26.0761 28.3243 26.1946 28.5016L26.9332 29.6099L24.9721 28.478C23.9653 27.8938 22.7717 27.7214 21.6407 27.9968ZM28.4675 28.6448L27.8848 27.7711L28.4711 22.4931C28.5663 22.5258 28.6614 22.5611 28.7602 22.5611C28.859 22.5611 28.9541 22.5258 29.0493 22.4931L29.6592 27.9823C29.2387 28.15 28.84 28.372 28.4675 28.6448ZM31.44 27.6026L30.7793 21.6585L30.9778 21.5597C31.285 21.4056 31.479 21.0921 31.479 20.7486V18.9361H32.3852C34.3844 18.9361 36.0102 20.5619 36.0102 22.5611V28.2904C35.0479 28.2271 34.0949 28.0622 33.1673 27.7983C32.6058 27.6406 32.0225 27.5745 31.44 27.6026ZM42.354 27.3162V24.0274L43.6653 23.3713C43.8801 23.2635 44.0432 23.075 44.1193 22.8475L44.8199 20.7486H45.0727C46.5553 20.7486 47.844 21.6512 48.3968 22.9735L46.6251 23.5054C46.4017 23.5724 46.2127 23.7228 46.0974 23.9256C45.9822 24.1283 45.9495 24.3676 46.0061 24.5938L46.3986 26.1635L42.354 27.3162Z" fill="#A452D7"/>
</svg>
