<svg width="25" height="25" viewBox="0 0 25 25" fill="none" xmlns="http://www.w3.org/2000/svg">
<path d="M3.52975 13.7891C3.36873 13.4524 3.28516 13.0839 3.28516 12.7106C3.28516 12.3374 3.36873 11.9689 3.52975 11.6321C3.66975 11.3381 3.90975 11.0561 4.38975 10.4921C4.58175 10.2671 4.67775 10.1551 4.75775 10.0351C4.94181 9.76064 5.06961 9.45236 5.13375 9.12814C5.16175 8.98614 5.17375 8.83914 5.19675 8.54514C5.25575 7.80714 5.28475 7.43814 5.39375 7.12914C5.51824 6.77733 5.71991 6.45784 5.98397 6.19413C6.24802 5.93041 6.56777 5.72916 6.91975 5.60514C7.22775 5.49614 7.59675 5.46614 8.33575 5.40814C8.62975 5.38414 8.77575 5.37214 8.91775 5.34414C9.24232 5.28012 9.55095 5.15232 9.82575 4.96814C9.94575 4.88814 10.0578 4.79314 10.2818 4.60114C10.8458 4.12114 11.1278 3.88114 11.4218 3.74014C11.7585 3.57912 12.127 3.49554 12.5003 3.49554C12.8735 3.49554 13.242 3.57912 13.5788 3.74014C13.8738 3.88014 14.1558 4.12014 14.7188 4.60114C14.9438 4.79314 15.0558 4.88814 15.1758 4.96814C15.4506 5.15232 15.7592 5.28012 16.0838 5.34414C16.2248 5.37214 16.3718 5.38414 16.6658 5.40814C17.4048 5.46614 17.7738 5.49614 18.0818 5.60514C18.4336 5.72929 18.7531 5.9306 19.017 6.1943C19.2809 6.45801 19.4824 6.77743 19.6068 7.12914M5.39375 18.2921C5.51813 18.6439 5.71965 18.9633 5.98353 19.227C6.24741 19.4907 6.56696 19.692 6.91875 19.8161C7.22675 19.9261 7.59575 19.9551 8.33475 20.0131C8.62875 20.0371 8.77475 20.0491 8.91675 20.0771C9.24132 20.1412 9.54995 20.269 9.82475 20.4531C9.94475 20.5331 10.0568 20.6281 10.2808 20.8201C10.8448 21.3001 11.1268 21.5401 11.4208 21.6811C11.7575 21.8422 12.126 21.9257 12.4993 21.9257C12.8725 21.9257 13.241 21.8422 13.5778 21.6811C13.8728 21.5411 14.1548 21.3011 14.7178 20.8201C14.8628 20.689 15.0154 20.5664 15.1748 20.4531C15.4496 20.269 15.7582 20.1412 16.0828 20.0771C16.2238 20.0491 16.3708 20.0371 16.6648 20.0131C17.4038 19.9551 17.7728 19.9251 18.0808 19.8161C18.4325 19.692 18.7521 19.4907 19.016 19.227C19.2799 18.9633 19.4814 18.6439 19.6058 18.2921C19.7148 17.9841 19.7438 17.6141 19.8028 16.8761C19.8258 16.5821 19.8378 16.4351 19.8658 16.2931C19.9298 15.9691 20.0578 15.6601 20.2418 15.3861C20.3218 15.2661 20.4178 15.1541 20.6088 14.9291C21.0888 14.3651 21.3298 14.0831 21.4708 13.7891C21.6318 13.4524 21.7154 13.0839 21.7154 12.7106C21.7154 12.3374 21.6318 11.9689 21.4708 11.6321M9.49975 15.7111L15.4998 9.71114" stroke="#A452D7" stroke-width="1.5" stroke-linecap="round"/>
<path d="M16 15.2111C16 15.4763 15.8946 15.7306 15.7071 15.9182C15.5196 16.1057 15.2652 16.2111 15 16.2111C14.7348 16.2111 14.4804 16.1057 14.2929 15.9182C14.1054 15.7306 14 15.4763 14 15.2111C14 14.9458 14.1054 14.6915 14.2929 14.504C14.4804 14.3164 14.7348 14.2111 15 14.2111C15.2652 14.2111 15.5196 14.3164 15.7071 14.504C15.8946 14.6915 16 14.9458 16 15.2111ZM11 10.2111C11 10.4763 10.8946 10.7306 10.7071 10.9182C10.5196 11.1057 10.2652 11.2111 10 11.2111C9.73478 11.2111 9.48043 11.1057 9.29289 10.9182C9.10536 10.7306 9 10.4763 9 10.2111C9 9.94584 9.10536 9.69149 9.29289 9.50395C9.48043 9.31642 9.73478 9.21106 10 9.21106C10.2652 9.21106 10.5196 9.31642 10.7071 9.50395C10.8946 9.69149 11 9.94584 11 10.2111Z" fill="#A452D7"/>
</svg>
