<svg width="100" height="100" viewBox="0 0 100 100" fill="none" xmlns="http://www.w3.org/2000/svg">
<rect width="100" height="100" rx="50" fill="#E1B7FB"/>
<path d="M38.4956 47.1C38.6156 45.34 39.1956 43.82 40.2356 42.54C41.2756 41.24 42.6556 40.25 44.3756 39.57C46.1156 38.87 48.0756 38.52 50.2556 38.52C52.3356 38.52 54.1456 38.84 55.6856 39.48C57.2456 40.1 58.4556 40.97 59.3156 42.09C60.1756 43.21 60.6056 44.51 60.6056 45.99C60.6056 47.13 60.2956 48.2 59.6756 49.2C59.0556 50.18 58.0856 51.15 56.7656 52.11C55.4456 53.05 53.7156 54.04 51.5756 55.08L45.3956 58.17L45.1556 56.58H61.2356V61.5H38.9756V57.18L48.6356 51.75C50.1356 50.89 51.2956 50.17 52.1156 49.59C52.9556 48.99 53.5456 48.44 53.8856 47.94C54.2456 47.44 54.4256 46.91 54.4256 46.35C54.4256 45.73 54.2556 45.2 53.9156 44.76C53.5956 44.3 53.1056 43.94 52.4456 43.68C51.7856 43.42 50.9756 43.29 50.0156 43.29C48.8156 43.29 47.8356 43.47 47.0756 43.83C46.3156 44.17 45.7456 44.63 45.3656 45.21C44.9856 45.77 44.7556 46.4 44.6756 47.1H38.4956Z" fill="white"/>
</svg>
