<svg width="40" height="41" viewBox="0 0 40 41" fill="none" xmlns="http://www.w3.org/2000/svg">
<rect x="0.5" y="0.572205" width="39" height="39" rx="7.5" fill="white"/>
<rect x="0.5" y="0.572205" width="39" height="39" rx="7.5" stroke="#A452D7"/>
<path d="M10.5124 18.805C16.418 16.2321 20.3559 14.5358 22.3263 13.7163C27.9521 11.3763 29.1211 10.9698 29.883 10.9562C30.0506 10.9534 30.4253 10.995 30.668 11.1919C30.873 11.3582 30.9294 11.5829 30.9563 11.7405C30.9833 11.8982 31.0169 12.2574 30.9902 12.538C30.6854 15.7412 29.3662 23.5147 28.6951 27.1024C28.4111 28.6204 27.852 29.1294 27.3107 29.1793C26.1343 29.2875 25.2409 28.4018 24.1015 27.6549C22.3186 26.4862 21.3113 25.7586 19.5807 24.6181C17.5806 23.3001 18.8772 22.5757 20.017 21.3918C20.3153 21.082 25.4986 16.3674 25.5989 15.9397C25.6115 15.8862 25.6231 15.6868 25.5046 15.5815C25.3862 15.4762 25.2114 15.5123 25.0852 15.5409C24.9064 15.5815 22.0581 17.4641 16.5403 21.1887C15.7319 21.7439 14.9996 22.0144 14.3435 22.0002C13.6202 21.9846 12.2288 21.5912 11.1945 21.255C9.92583 20.8426 8.91753 20.6246 9.00533 19.9242C9.05106 19.5594 9.55341 19.1864 10.5124 18.805Z" fill="#0088CC"/>
</svg>
