<svg width="40" height="41" viewBox="0 0 40 41" fill="none" xmlns="http://www.w3.org/2000/svg">
<rect y="0.5" width="40" height="40" rx="7.27273" fill="#0088CC"/>
<path d="M11.3749 19.348C16.7436 17.009 20.3236 15.4669 22.1148 14.7219C27.2292 12.5946 28.2919 12.2251 28.9846 12.2128C29.1369 12.2102 29.4776 12.248 29.6982 12.427C29.8845 12.5782 29.9358 12.7824 29.9603 12.9257C29.9848 13.0691 30.0154 13.3956 29.9911 13.6507C29.714 16.5628 28.5147 23.6295 27.9046 26.891C27.6465 28.2711 27.1382 28.7339 26.6461 28.7791C25.5766 28.8776 24.7645 28.0724 23.7287 27.3934C22.1078 26.3309 21.1921 25.6695 19.6188 24.6327C17.8005 23.4345 18.9792 22.7759 20.0154 21.6996C20.2866 21.418 24.9987 17.132 25.0899 16.7432C25.1013 16.6945 25.1119 16.5133 25.0042 16.4176C24.8965 16.3219 24.7376 16.3546 24.6229 16.3806C24.4604 16.4175 21.871 18.129 16.8549 21.515C16.1199 22.0197 15.4542 22.2656 14.8577 22.2527C14.2001 22.2385 12.9353 21.8809 11.995 21.5753C10.8417 21.2004 9.92503 21.0022 10.0048 20.3655C10.0464 20.0339 10.5031 19.6947 11.3749 19.348Z" fill="white"/>
</svg>
