<svg width="100" height="100" viewBox="0 0 100 100" fill="none" xmlns="http://www.w3.org/2000/svg">
<rect width="100" height="100" rx="50" fill="#E1B7FB"/>
<path d="M38.827 46.26C38.947 44.84 39.457 43.55 40.357 42.39C41.257 41.21 42.557 40.27 44.257 39.57C45.957 38.87 48.027 38.52 50.467 38.52C52.547 38.52 54.357 38.78 55.897 39.3C57.457 39.82 58.657 40.55 59.497 41.49C60.357 42.43 60.787 43.54 60.787 44.82C60.787 45.82 60.477 46.74 59.857 47.58C59.257 48.42 58.297 49.09 56.977 49.59C55.677 50.07 53.977 50.3 51.877 50.28V49.65C53.837 49.57 55.517 49.71 56.917 50.07C58.317 50.43 59.387 51.02 60.127 51.84C60.887 52.66 61.267 53.7 61.267 54.96C61.267 56.32 60.827 57.53 59.947 58.59C59.067 59.65 57.787 60.48 56.107 61.08C54.447 61.68 52.407 61.98 49.987 61.98C47.647 61.98 45.607 61.66 43.867 61.02C42.127 60.38 40.767 59.47 39.787 58.29C38.827 57.09 38.317 55.69 38.257 54.09H44.437C44.597 55.09 45.117 55.86 45.997 56.4C46.897 56.94 48.227 57.21 49.987 57.21C51.587 57.21 52.807 56.97 53.647 56.49C54.507 56.01 54.937 55.34 54.937 54.48C54.937 53.98 54.797 53.56 54.517 53.22C54.257 52.88 53.787 52.63 53.107 52.47C52.427 52.29 51.477 52.2 50.257 52.2H46.387V48H50.257C51.837 48 52.937 47.79 53.557 47.37C54.197 46.95 54.517 46.39 54.517 45.69C54.517 44.93 54.147 44.34 53.407 43.92C52.687 43.5 51.597 43.29 50.137 43.29C48.577 43.29 47.377 43.55 46.537 44.07C45.697 44.59 45.197 45.32 45.037 46.26H38.827Z" fill="white"/>
</svg>
