<svg width="58" height="59" viewBox="0 0 58 59" fill="none" xmlns="http://www.w3.org/2000/svg">
<g clip-path="url(#clip0_2018_3028)">
<path d="M20.6465 13.8105L27.1197 20.2839" stroke="#A452D7" stroke-miterlimit="10" stroke-linecap="round" stroke-linejoin="round"/>
<path d="M20.6463 22.9652C25.7022 22.9652 29.8009 18.8665 29.8009 13.8106C29.8009 8.75466 25.7022 4.65601 20.6463 4.65601C15.5904 4.65601 11.4917 8.75466 11.4917 13.8106C11.4917 18.8665 15.5904 22.9652 20.6463 22.9652Z" stroke="#A452D7" stroke-miterlimit="10" stroke-linecap="round" stroke-linejoin="round"/>
<path d="M20.6463 4.65601V13.8106H29.8009M40.3287 15.6416H33.2339M46.5081 11.9798H33.2339M46.5081 19.3034H33.2339M40.3287 22.9652H33.2339M11.4917 26.627H29.8009M50.17 26.6275V17.6295M45.5925 8.31782H34.1493C34.0291 8.31782 33.9101 8.29414 33.799 8.24814C33.6879 8.20214 33.587 8.1347 33.502 8.0497C33.417 7.96469 33.3496 7.86378 33.3036 7.75271C33.2576 7.64165 33.2339 7.52261 33.2339 7.4024V5.57154C33.2339 5.45133 33.2576 5.33229 33.3036 5.22123C33.3496 5.11016 33.417 5.00925 33.502 4.92424C33.587 4.83924 33.6879 4.77181 33.799 4.7258C33.9101 4.6798 34.0291 4.65612 34.1493 4.65612H45.5925C45.8353 4.65612 46.0682 4.75257 46.2398 4.92424C46.4115 5.09592 46.508 5.32876 46.508 5.57154V7.40251C46.508 7.52272 46.4843 7.64175 46.4383 7.75281C46.3923 7.86387 46.3248 7.96478 46.2398 8.04977C46.1548 8.13477 46.0539 8.20219 45.9428 8.24818C45.8318 8.29417 45.7127 8.31784 45.5925 8.31782Z" stroke="#A452D7" stroke-miterlimit="10" stroke-linecap="round" stroke-linejoin="round"/>
<path d="M7.83019 24.6393V2.82477C7.83019 1.81316 8.64922 0.994141 9.66082 0.994141H48.3396C49.3512 0.994141 50.1702 1.81316 50.1702 2.82477V13.6533M7.83019 33.5444V28.6155M7.83008 54.0389V55.4641C7.83008 56.4757 8.64944 57.295 9.66104 57.295H38.727M36.7815 52.7177V38.9857C36.7815 38.7429 36.8779 38.5101 37.0496 38.3384C37.2213 38.1667 37.4541 38.0703 37.6969 38.0703H51.4289C51.6716 38.0703 51.9045 38.1667 52.0762 38.3384C52.2478 38.5101 52.3443 38.7429 52.3443 38.9857V52.7177C52.3443 52.9605 52.2478 53.1933 52.0762 53.365C51.9045 53.5367 51.6716 53.6331 51.4289 53.6331H37.6969C37.4541 53.6331 37.2213 53.5367 37.0496 53.365C36.8779 53.1933 36.7815 52.9605 36.7815 52.7177ZM36.7815 33.4929V31.2043C36.7815 31.0841 36.8052 30.9651 36.8512 30.854C36.8972 30.7429 36.9646 30.642 37.0496 30.557C37.1346 30.472 37.2355 30.4046 37.3466 30.3586C37.4576 30.3126 37.5767 30.2889 37.6969 30.2889H51.4289C51.5491 30.2889 51.6681 30.3126 51.7792 30.3586C51.8902 30.4046 51.9912 30.472 52.0762 30.557C52.1612 30.642 52.2286 30.7429 52.2746 30.854C52.3206 30.9651 52.3443 31.0841 52.3443 31.2043V33.4929C52.3443 33.7357 52.2478 33.9686 52.0762 34.1402C51.9045 34.3119 51.6716 34.4084 51.4289 34.4084H37.6969C37.4541 34.4084 37.2213 34.3119 37.0496 34.1402C36.8779 33.9686 36.7815 33.7357 36.7815 33.4929Z" stroke="#A452D7" stroke-miterlimit="10" stroke-linecap="round" stroke-linejoin="round"/>
<path d="M56.0063 46.6238V55.6931C56.0063 56.5779 55.2892 57.2949 54.4045 57.2949H34.7219C33.8372 57.2949 33.119 56.5779 33.119 55.6931V28.2292C33.119 27.3445 33.8372 26.6274 34.7219 26.6274H54.4045C55.2892 26.6274 56.0063 27.3445 56.0063 28.2292V42.6477M44.5627 38.0703V53.6331M52.3441 45.8517H36.7813M28.1728 41.9763L24.4954 41.6206C24.2704 40.6828 23.8993 39.7863 23.3959 38.9638L25.7441 36.1127C25.8888 35.9371 25.9628 35.7139 25.9519 35.4866C25.9409 35.2593 25.8457 35.0443 25.6848 34.8834L24.4056 33.6042C24.2447 33.4433 24.0297 33.3481 23.8024 33.3371C23.5751 33.3262 23.3519 33.4002 23.1763 33.5448L20.3252 35.8931C19.5027 35.3896 18.6062 35.0185 17.6684 34.7935L17.3127 31.1162C17.2908 30.8897 17.1853 30.6795 17.0168 30.5266C16.8484 30.3737 16.629 30.2889 16.4015 30.2889H14.5925C14.365 30.2889 14.1456 30.3737 13.9771 30.5266C13.8087 30.6795 13.7032 30.8897 13.6813 31.1162L13.3256 34.7935C12.3878 35.0186 11.4913 35.3896 10.6688 35.8931L7.8177 33.5448C7.64207 33.4002 7.41885 33.3261 7.19158 33.3371C6.9643 33.3481 6.74926 33.4433 6.58838 33.6042L5.30943 34.8834C5.14855 35.0443 5.05334 35.2593 5.04237 35.4866C5.03139 35.7138 5.10544 35.9371 5.25007 36.1127L7.59828 38.9638C7.0948 39.7863 6.72376 40.6828 6.49877 41.6206L2.82143 41.9763C2.59495 41.9982 2.38475 42.1036 2.2318 42.2721C2.07885 42.4406 1.99413 42.66 1.99414 42.8875V44.6965C1.99415 44.924 2.07889 45.1434 2.23183 45.3118C2.38477 45.4803 2.59496 45.5858 2.82143 45.6077L6.49877 45.9634C6.72383 46.9011 7.09486 47.7977 7.59828 48.6202L5.25007 51.4713C5.10541 51.6469 5.03135 51.8701 5.04233 52.0974C5.0533 52.3247 5.14852 52.5397 5.30943 52.7006L6.5886 53.9798C6.7495 54.1406 6.96454 54.2359 7.1918 54.2468C7.41907 54.2578 7.64228 54.1838 7.81793 54.0391L10.669 51.6909C11.4915 52.1944 12.388 52.5654 13.3258 52.7904L13.6815 56.4678C13.7034 56.6942 13.8089 56.9044 13.9773 57.0574C14.1458 57.2103 14.3652 57.295 14.5927 57.2951H16.4017C16.6292 57.295 16.8486 57.2103 17.0171 57.0574C17.1855 56.9044 17.291 56.6942 17.3129 56.4678L17.6686 52.7904C18.6064 52.5654 19.5029 52.1943 20.3254 51.6909L23.1765 54.0391C23.3521 54.1838 23.5753 54.2578 23.8026 54.2469C24.0299 54.2359 24.2449 54.1407 24.4058 53.9798L25.685 52.7006C25.8459 52.5397 25.9411 52.3247 25.9521 52.0974C25.963 51.8701 25.889 51.6469 25.7443 51.4713L23.3961 48.6202C23.8996 47.7977 24.2707 46.9012 24.4956 45.9634L28.173 45.6077C28.3995 45.5858 28.6097 45.4803 28.7626 45.3119C28.9156 45.1434 29.0003 44.924 29.0003 44.6965V42.8875C29.0003 42.6599 28.9155 42.4405 28.7625 42.2721C28.6095 42.1036 28.3993 41.9981 28.1728 41.9763ZM15.497 48.4204C12.9408 48.4204 10.8686 46.3481 10.8686 43.7919C10.8686 41.2357 12.9408 39.1635 15.497 39.1635C18.0532 39.1635 20.1255 41.2357 20.1255 43.7919C20.1255 46.3481 18.0533 48.4204 15.497 48.4204Z" stroke="#A452D7" stroke-miterlimit="10" stroke-linecap="round" stroke-linejoin="round"/>
</g>
<defs>
<clipPath id="clip0_2018_3028">
<rect width="58" height="58" fill="white" transform="translate(0 0.144531)"/>
</clipPath>
</defs>
</svg>
