<svg width="40" height="41" viewBox="0 0 40 41" fill="none" xmlns="http://www.w3.org/2000/svg">
<rect x="0.5" y="0.572205" width="39" height="39" rx="7.5" fill="white"/>
<rect x="0.5" y="0.572205" width="39" height="39" rx="7.5" stroke="#A452D7"/>
<g clip-path="url(#clip0_2018_44)">
<path d="M9.46937 19.9396C9.46886 21.8025 9.95561 23.6214 10.8812 25.2247L9.38086 30.7025L14.9867 29.2326C16.5373 30.0767 18.2745 30.519 20.0399 30.5191H20.0445C25.8724 30.5191 30.6164 25.7768 30.6189 19.948C30.62 17.1234 29.521 14.4675 27.5243 12.4692C25.528 10.4712 22.873 9.37025 20.0441 9.36896C14.2155 9.36896 9.47187 14.111 9.46946 19.9396" fill="url(#paint0_linear_2018_44)"/>
<path d="M9.09195 19.9361C9.09135 21.866 9.59555 23.75 10.5541 25.4106L9 31.0848L14.8069 29.5623C16.4069 30.4346 18.2083 30.8946 20.0413 30.8953H20.0461C26.083 30.8953 30.9974 25.9824 31 19.9448C31.001 17.0188 29.8625 14.2674 27.7945 12.1976C25.7263 10.128 22.9763 8.98747 20.0461 8.98627C14.0081 8.98627 9.09436 13.8985 9.09195 19.9361ZM12.5502 25.1246L12.3333 24.7805C11.4219 23.3312 10.9408 21.6565 10.9415 19.9368C10.9434 14.9184 15.0275 10.8356 20.0495 10.8356C22.4815 10.8367 24.7671 11.7847 26.4862 13.5049C28.2052 15.2252 29.1511 17.512 29.1505 19.9442C29.1483 24.9625 25.0641 29.0458 20.0461 29.0458H20.0425C18.4085 29.0449 16.806 28.6061 15.4085 27.7769L15.076 27.5797L11.63 28.4832L12.5502 25.1246Z" fill="url(#paint1_linear_2018_44)"/>
<path d="M17.3082 15.3583C17.1031 14.9026 16.8873 14.8934 16.6924 14.8854C16.5327 14.8785 16.3502 14.879 16.1678 14.879C15.9853 14.879 15.6887 14.9477 15.438 15.2214C15.1871 15.4954 14.48 16.1574 14.48 17.504C14.48 18.8506 15.4608 20.152 15.5975 20.3348C15.7344 20.5172 17.491 23.369 20.2729 24.4661C22.585 25.3778 23.0555 25.1964 23.5573 25.1507C24.0592 25.1052 25.1767 24.4888 25.4047 23.8497C25.6329 23.2107 25.6329 22.6629 25.5645 22.5484C25.4961 22.4344 25.3135 22.3659 25.0398 22.2291C24.7661 22.0923 23.4204 21.4301 23.1695 21.3387C22.9186 21.2474 22.7362 21.2019 22.5536 21.4759C22.3711 21.7496 21.847 22.3659 21.6872 22.5484C21.5276 22.7314 21.3679 22.7542 21.0942 22.6173C20.8204 22.48 19.9389 22.1913 18.8931 21.259C18.0795 20.5335 17.5302 19.6376 17.3705 19.3635C17.2108 19.0899 17.3534 18.9416 17.4906 18.8052C17.6136 18.6825 17.7644 18.4856 17.9014 18.3258C18.0379 18.166 18.0834 18.0519 18.1747 17.8694C18.266 17.6867 18.2203 17.5269 18.152 17.39C18.0834 17.2531 17.5516 15.8995 17.3082 15.3583Z" fill="white"/>
</g>
<defs>
<linearGradient id="paint0_linear_2018_44" x1="1071.28" y1="2142.72" x2="1071.28" y2="9.36896" gradientUnits="userSpaceOnUse">
<stop stop-color="#1FAF38"/>
<stop offset="1" stop-color="#60D669"/>
</linearGradient>
<linearGradient id="paint1_linear_2018_44" x1="1109" y1="2218.84" x2="1109" y2="8.98627" gradientUnits="userSpaceOnUse">
<stop stop-color="#F9F9F9"/>
<stop offset="1" stop-color="white"/>
</linearGradient>
<clipPath id="clip0_2018_44">
<rect width="22" height="22.1719" fill="white" transform="translate(9 8.98627)"/>
</clipPath>
</defs>
</svg>
