<svg width="59" height="59" viewBox="0 0 59 59" fill="none" xmlns="http://www.w3.org/2000/svg">
<path d="M15.5842 10.2712C8.3315 14.583 2.22703 18.2738 2.00441 18.4729C1.67634 18.7659 1.62947 18.883 1.68806 19.1525C1.80522 19.6212 2.05128 19.8204 2.4848 19.8204C2.77772 19.8087 6.01157 17.934 16.0295 11.9935L29.1875 4.16669L42.158 11.8764C49.2936 16.1179 55.2692 19.6563 55.4449 19.7384C55.9019 19.9727 56.3354 19.8204 56.5697 19.3517C56.7455 18.9768 56.7455 18.9299 56.5229 18.637C56.3705 18.4495 51.0277 15.1922 42.9899 10.4118C32.2104 3.99094 29.6093 2.5029 29.2343 2.47947C28.8008 2.44431 27.8049 3.00672 15.5842 10.2712Z" fill="#A452D7"/>
<path d="M23.962 11.7952C22.4739 12.4631 22.0521 14.326 23.1066 15.6032C23.8331 16.4937 23.8331 16.4937 29.176 16.4937C33.8744 16.4937 33.933 16.4937 34.4485 16.2242C35.4796 15.6969 36.042 14.5369 35.7608 13.4707C35.5616 12.756 35.093 12.1701 34.4485 11.8304C33.933 11.5726 33.8744 11.5726 29.176 11.5726C24.8407 11.5726 24.3955 11.596 23.962 11.7952ZM33.8744 13.4238C34.0502 13.5762 34.1322 13.7753 34.1322 14.0331C34.1322 14.2909 34.0502 14.4901 33.8744 14.6424C33.6166 14.8416 33.3003 14.8533 29.176 14.8533C25.0516 14.8533 24.7353 14.8416 24.4775 14.6424C24.3017 14.4901 24.2197 14.2909 24.2197 14.0331C24.2197 13.7753 24.3017 13.5762 24.4775 13.4238C24.7353 13.2247 25.0516 13.2129 29.176 13.2129C33.3003 13.2129 33.6166 13.2247 33.8744 13.4238Z" fill="#A452D7"/>
<path d="M5.2734 20.126C5.03906 20.3604 5.03906 20.5127 5.03906 37.3263C5.03906 52.4879 5.0625 54.3158 5.22653 54.5501L5.40228 54.8079H9.56176C13.5572 54.8079 13.7212 54.7961 13.9439 54.5735C14.1782 54.3392 14.1782 54.1869 14.1782 40.8648V27.3905H20.974H27.7814L28.0626 27.0975C28.4142 26.7578 28.4376 26.3008 28.1212 25.9844C27.8869 25.7501 27.7346 25.7501 20.3998 25.7501H12.9011L12.7253 26.0079C12.5613 26.2422 12.5378 27.742 12.5378 39.7166V53.1675H9.60863H6.67942V36.7874V20.3955L6.40993 20.1495C6.07014 19.8331 5.57804 19.8214 5.2734 20.126Z" fill="#A452D7"/>
<path d="M30.2423 20.1945C29.9962 20.4992 29.9962 20.5929 29.9962 28.5135V36.5278H26.1296H22.2514L21.9702 36.8207L21.6772 37.1019V45.7255C21.6772 54.1851 21.6772 54.3374 21.9116 54.5717C22.1694 54.8295 21.689 54.8295 47.5715 54.8061H56.1833L56.4528 54.5014L56.7106 54.1968L56.6872 45.5849L56.652 36.973L56.3708 36.7504C56.113 36.5395 55.867 36.5278 52.2465 36.5278H48.3916L48.3682 28.4549C48.3331 20.7101 48.3213 20.3703 48.1104 20.136C47.8878 19.8899 47.8878 19.8899 39.1822 19.8899H30.4766L30.2423 20.1945ZM35.8546 24.1665V26.8146L36.1475 27.0958L36.4287 27.3887H39.1939H41.9591L42.2403 27.0958L42.5332 26.8146V24.1665V21.5303H44.5837H46.6341V29.029V36.5278H39.1353H31.6366V29.029V21.5303H33.7456H35.8546V24.1665ZM40.8694 23.6041L40.8343 25.6897H39.1939H37.5536L37.5184 23.6041L37.495 21.5303H39.1939H40.8929L40.8694 23.6041ZM27.5357 40.8279C27.5357 43.3939 27.5474 43.4876 27.7934 43.7571C28.0395 44.0266 28.0746 44.0266 30.8281 44.0266C33.3824 44.0266 33.6284 44.0031 33.8745 43.804C34.1557 43.5813 34.1557 43.5579 34.1908 40.8748L34.226 38.1682H36.2764H38.3152V45.6669V53.1657H30.8164H23.3176V45.6669V38.1682H25.4266H27.5357V40.8279ZM32.4567 40.2772V42.3862H30.8164H29.176V40.2772V38.1682H30.8164H32.4567V40.2772ZM44.1736 40.8045V43.4525L44.4665 43.7337L44.7477 44.0266H47.5129H50.278L50.5593 43.7337L50.8522 43.4525V40.8045V38.1682H52.9026H54.9531V45.6669V53.1657H47.5129H40.0727V45.6669V38.1682H42.1231H44.1736V40.8045ZM49.1884 40.3006L49.2118 42.3862H47.5129H45.8139V40.3592C45.8139 39.2344 45.8491 38.2853 45.896 38.2385C45.9428 38.2033 46.6927 38.1799 47.5597 38.1916L49.1532 38.2267L49.1884 40.3006Z" fill="#A452D7"/>
<path d="M51.9301 20.1593L51.6724 20.4288V27.7869V35.1334L51.9653 35.4146C52.3168 35.7661 52.598 35.7778 53.0081 35.4615L53.3127 35.2271V27.7869C53.3127 20.5108 53.3127 20.3585 53.0784 20.1241C52.762 19.8078 52.2465 19.8195 51.9301 20.1593Z" fill="#A452D7"/>
</svg>
