<svg width="64" height="66" viewBox="0 0 64 66" fill="none" xmlns="http://www.w3.org/2000/svg">
<path d="M49.2243 11.0163L29.6546 5.7726C22.0028 3.7223 15.417 7.71541 13.276 15.7058L8.3341 34.1492C6.19912 42.117 9.90664 48.8658 17.5585 50.9161L37.1282 56.1598C44.78 58.2101 51.3426 54.2132 53.4776 46.2453L58.4195 27.802C60.5605 19.8116 56.8761 13.0666 49.2243 11.0163V11.0163Z" fill="url(#paint0_linear_370_9577)"/>
<g filter="url(#filter0_f_370_9577)">
<path d="M43.356 18.4039L31.0342 15.1023C26.2164 13.8114 22.0698 16.3256 20.7217 21.3566L17.6101 32.9692C16.2659 37.986 18.6002 42.2353 23.4181 43.5262L35.7398 46.8278C40.5577 48.1187 44.6897 45.6021 46.034 40.5853L49.1455 28.9728C50.4936 23.9417 48.1738 19.6949 43.356 18.4039V18.4039Z" fill="#E31352" fill-opacity="0.5"/>
</g>
<g data-figma-bg-blur-radius="14.9999">
<mask id="path-3-outside-1_370_9577" maskUnits="userSpaceOnUse" x="1" y="15.7512" width="49" height="49" fill="black">
<rect fill="white" x="1" y="15.7512" width="49" height="49"/>
<path d="M35.5097 16.7512H15.2496C7.3279 16.7512 2 22.3128 2 30.5851V49.6791C2 57.928 7.3279 63.4872 15.2496 63.4872H35.5097C43.4314 63.4872 48.736 57.928 48.736 49.6791V30.5851C48.736 22.3128 43.4314 16.7512 35.5097 16.7512V16.7512Z"/>
</mask>
<path d="M35.5097 16.7512H15.2496C7.3279 16.7512 2 22.3128 2 30.5851V49.6791C2 57.928 7.3279 63.4872 15.2496 63.4872H35.5097C43.4314 63.4872 48.736 57.928 48.736 49.6791V30.5851C48.736 22.3128 43.4314 16.7512 35.5097 16.7512V16.7512Z" fill="#FF4156"/>
<path d="M35.5097 16.1262C35.1645 16.1262 34.8847 16.4061 34.8847 16.7512C34.8847 17.0964 35.1645 17.3762 35.5097 17.3762V16.7512V16.1262ZM35.5097 16.7512V16.1262H15.2496V16.7512V17.3762H35.5097V16.7512ZM15.2496 16.7512V16.1262C11.137 16.1262 7.65523 17.5734 5.20282 20.1337C2.75264 22.6918 1.375 26.3135 1.375 30.5851H2H2.625C2.625 26.5844 3.91131 23.2892 6.10552 20.9984C8.2975 18.7099 11.4405 17.3762 15.2496 17.3762V16.7512ZM2 30.5851H1.375V49.6791H2H2.625V30.5851H2ZM2 49.6791H1.375C1.375 53.9395 2.75293 57.5548 5.20313 60.1091C7.6555 62.6658 11.1371 64.1122 15.2496 64.1122V63.4872V62.8622C11.4404 62.8622 8.29723 61.529 6.10521 59.2438C3.91102 56.9564 2.625 53.6676 2.625 49.6791H2ZM15.2496 63.4872V64.1122H35.5097V63.4872V62.8622H15.2496V63.4872ZM35.5097 63.4872V64.1122C39.6223 64.1122 43.0984 62.6657 45.5451 60.1086C47.9894 57.5539 49.361 53.9387 49.361 49.6791H48.736H48.111C48.111 53.6683 46.8303 56.9572 44.6419 59.2444C42.4559 61.5291 39.3188 62.8622 35.5097 62.8622V63.4872ZM48.736 49.6791H49.361V30.5851H48.736H48.111V49.6791H48.736ZM48.736 30.5851H49.361C49.361 26.3142 47.9897 22.6926 45.5454 20.1343C43.0987 17.5735 39.6224 16.1262 35.5097 16.1262V16.7512V17.3762C39.3187 17.3762 42.4556 18.7098 44.6416 20.9978C46.83 23.2884 48.111 26.5837 48.111 30.5851H48.736Z" fill="url(#paint1_linear_370_9577)" mask="url(#path-3-outside-1_370_9577)"/>
</g>
<g filter="url(#filter2_d_370_9577)" data-figma-bg-blur-radius="9.37497">
<path d="M32.4006 44.2586C33.1952 45.0531 33.1952 46.3384 32.4006 47.1305C32.0034 47.5278 31.4893 47.7404 30.9518 47.7404C30.4377 47.7404 29.9236 47.5535 29.5264 47.1305L25.3669 42.9967L21.2074 47.1305C20.8101 47.5278 20.296 47.7404 19.7586 47.7404C19.2445 47.7404 18.707 47.5278 18.3098 47.1305C17.5152 46.3384 17.5152 45.0531 18.3098 44.2352L22.4693 40.0991L18.3098 35.9373C17.5152 35.1451 17.5152 33.8365 18.3098 33.042C19.1043 32.2451 20.3895 32.2451 21.2074 33.042L25.3669 37.1991L29.503 33.042C30.3209 32.2451 31.6061 32.2451 32.4006 33.042C33.1952 33.8365 33.1952 35.1451 32.4006 35.9373L28.2411 40.0991L32.4006 44.2586Z" fill="url(#paint2_linear_370_9577)"/>
<path d="M29.5898 33.1318C30.3599 32.3816 31.5675 32.3827 32.3125 33.1299C33.0582 33.8756 33.0578 35.1054 32.3125 35.8486L28.1523 40.0107L28.0645 40.0996L28.1523 40.1875L32.3125 44.3467C33.0582 45.0924 33.0579 46.2987 32.3125 47.042C31.9382 47.4163 31.4556 47.6152 30.9521 47.6152C30.5294 47.6152 30.109 47.4811 29.7617 47.1826L29.6172 47.0449L29.6143 47.042L25.4551 42.9082L25.3672 42.8203L25.2783 42.9082L21.1191 47.042C20.7449 47.4163 20.2623 47.6152 19.7588 47.6152C19.2779 47.6152 18.7722 47.4157 18.3984 47.042C17.6543 46.3001 17.6512 45.0945 18.3975 44.3242L22.5576 40.1875L22.6465 40.0996L22.5576 40.0107L18.3984 35.8486C17.653 35.1054 17.6527 33.8757 18.3984 33.1299C19.0969 32.4296 20.201 32.3848 20.9707 33L21.1201 33.1318L25.2783 37.2871L25.3672 37.376L25.4551 37.2871L29.5898 33.1318Z" stroke="url(#paint3_linear_370_9577)" stroke-width="0.249999"/>
</g>
<defs>
<filter id="filter0_f_370_9577" x="6.60892" y="4.14232" width="53.5409" height="53.6454" filterUnits="userSpaceOnUse" color-interpolation-filters="sRGB">
<feFlood flood-opacity="0" result="BackgroundImageFix"/>
<feBlend mode="normal" in="SourceGraphic" in2="BackgroundImageFix" result="shape"/>
<feGaussianBlur stdDeviation="5.31248" result="effect1_foregroundBlur_370_9577"/>
</filter>
<clipPath id="bgblur_0_370_9577_clip_path" transform="translate(13.6249 -1.1263)"><path d="M35.5097 16.7512H15.2496C7.3279 16.7512 2 22.3128 2 30.5851V49.6791C2 57.928 7.3279 63.4872 15.2496 63.4872H35.5097C43.4314 63.4872 48.736 57.928 48.736 49.6791V30.5851C48.736 22.3128 43.4314 16.7512 35.5097 16.7512V16.7512Z"/>
</clipPath><filter id="filter2_d_370_9577" x="8.3389" y="23.0694" width="34.0326" height="34.046" filterUnits="userSpaceOnUse" color-interpolation-filters="sRGB">
<feFlood flood-opacity="0" result="BackgroundImageFix"/>
<feColorMatrix in="SourceAlpha" type="matrix" values="0 0 0 0 0 0 0 0 0 0 0 0 0 0 0 0 0 0 127 0" result="hardAlpha"/>
<feOffset dx="3.12499" dy="3.12499"/>
<feGaussianBlur stdDeviation="3.12499"/>
<feColorMatrix type="matrix" values="0 0 0 0 1 0 0 0 0 0.321569 0 0 0 0 0.54902 0 0 0 0.5 0"/>
<feBlend mode="normal" in2="BackgroundImageFix" result="effect1_dropShadow_370_9577"/>
<feBlend mode="normal" in="SourceGraphic" in2="effect1_dropShadow_370_9577" result="shape"/>
</filter>
<clipPath id="bgblur_1_370_9577_clip_path" transform="translate(-8.3389 -23.0694)"><path d="M32.4006 44.2586C33.1952 45.0531 33.1952 46.3384 32.4006 47.1305C32.0034 47.5278 31.4893 47.7404 30.9518 47.7404C30.4377 47.7404 29.9236 47.5535 29.5264 47.1305L25.3669 42.9967L21.2074 47.1305C20.8101 47.5278 20.296 47.7404 19.7586 47.7404C19.2445 47.7404 18.707 47.5278 18.3098 47.1305C17.5152 46.3384 17.5152 45.0531 18.3098 44.2352L22.4693 40.0991L18.3098 35.9373C17.5152 35.1451 17.5152 33.8365 18.3098 33.042C19.1043 32.2451 20.3895 32.2451 21.2074 33.042L25.3669 37.1991L29.503 33.042C30.3209 32.2451 31.6061 32.2451 32.4006 33.042C33.1952 33.8365 33.1952 35.1451 32.4006 35.9373L28.2411 40.0991L32.4006 44.2586Z"/>
</clipPath><linearGradient id="paint0_linear_370_9577" x1="35.8935" y1="34.8767" x2="-8.94151" y2="43.5349" gradientUnits="userSpaceOnUse">
<stop stop-color="#FF759F"/>
<stop offset="1" stop-color="#FF196E"/>
</linearGradient>
<linearGradient id="paint1_linear_370_9577" x1="9.43961" y1="22.196" x2="45.5194" y2="61.0487" gradientUnits="userSpaceOnUse">
<stop stop-color="white" stop-opacity="0.25"/>
<stop offset="1" stop-color="white" stop-opacity="0"/>
</linearGradient>
<linearGradient id="paint2_linear_370_9577" x1="31.913" y1="35.2065" x2="14.8895" y2="35.7611" gradientUnits="userSpaceOnUse">
<stop stop-color="white"/>
<stop offset="1" stop-color="white" stop-opacity="0.2"/>
</linearGradient>
<linearGradient id="paint3_linear_370_9577" x1="20.1466" y1="34.2264" x2="29.9057" y2="46.3026" gradientUnits="userSpaceOnUse">
<stop stop-color="white" stop-opacity="0.25"/>
<stop offset="1" stop-color="white" stop-opacity="0"/>
</linearGradient>
</defs>
</svg>
