<svg width="40" height="41" viewBox="0 0 40 41" fill="none" xmlns="http://www.w3.org/2000/svg">
<rect y="0.5" width="40" height="40" rx="7.27273" fill="#60D669"/>
<g clip-path="url(#clip0_543_258)">
<path d="M10.4267 20.3795C10.4262 22.073 10.8687 23.7266 11.7101 25.1841L10.3462 30.1639L15.4424 28.8277C16.852 29.595 18.4313 29.9971 20.0362 29.9972H20.0404C25.3385 29.9972 29.6512 25.686 29.6535 20.387C29.6545 17.8193 28.6554 15.4048 26.8403 13.5882C25.0254 11.7718 22.6117 10.7709 20.04 10.7698C14.7413 10.7698 10.4289 15.0807 10.4267 20.3795" fill="white"/>
<path d="M10.0836 20.3763C10.083 22.1307 10.5414 23.8434 11.4128 25.3531L10 30.5115L15.279 29.1273C16.7335 29.9204 18.3712 30.3385 20.0376 30.3391H20.0419C25.53 30.3391 29.9977 25.8729 30 20.3842C30.0009 17.7242 28.9659 15.2229 27.0859 13.3412C25.2057 11.4598 22.7057 10.423 20.0419 10.4219C14.5528 10.4219 10.0858 14.8875 10.0836 20.3763ZM13.2274 25.0931L13.0303 24.7802C12.2017 23.4627 11.7644 21.9402 11.765 20.3769C11.7667 15.8148 15.4795 12.1031 20.045 12.1031C22.2559 12.1041 24.3337 12.9659 25.8966 14.5297C27.4593 16.0936 28.3192 18.1725 28.3187 20.3836C28.3166 24.9457 24.6037 28.6578 20.0419 28.6578H20.0386C18.5532 28.657 17.0964 28.2581 15.8259 27.5043L15.5236 27.325L12.3909 28.1463L13.2274 25.0931Z" fill="url(#paint0_linear_543_258)"/>
<path d="M17.553 16.2146C17.3666 15.8003 17.1704 15.792 16.9932 15.7847C16.848 15.7785 16.6821 15.7789 16.5163 15.7789C16.3504 15.7789 16.0808 15.8414 15.8529 16.0902C15.6247 16.3393 14.9819 16.9411 14.9819 18.1653C14.9819 19.3894 15.8736 20.5725 15.9979 20.7387C16.1223 20.9046 17.7192 23.4971 20.2483 24.4944C22.3501 25.3232 22.7779 25.1584 23.234 25.1168C23.6903 25.0754 24.7062 24.5151 24.9135 23.9341C25.1209 23.3532 25.1209 22.8552 25.0587 22.7511C24.9965 22.6475 24.8306 22.5852 24.5818 22.4608C24.3329 22.3364 23.1096 21.7344 22.8815 21.6514C22.6534 21.5684 22.4876 21.527 22.3216 21.7761C22.1557 22.0249 21.6792 22.5852 21.534 22.7511C21.3889 22.9175 21.2437 22.9382 20.9949 22.8137C20.7459 22.6889 19.9446 22.4264 18.9939 21.5789C18.2542 20.9193 17.7548 20.1049 17.6097 19.8557C17.4645 19.607 17.5941 19.4721 17.7189 19.3482C17.8307 19.2367 17.9678 19.0576 18.0923 18.9124C18.2164 18.7671 18.2578 18.6634 18.3408 18.4975C18.4238 18.3314 18.3822 18.186 18.3201 18.0616C18.2578 17.9371 17.7743 16.7066 17.553 16.2146Z" fill="#60D669"/>
</g>
<defs>
<linearGradient id="paint0_linear_543_258" x1="1010" y1="2019.38" x2="1010" y2="10.4219" gradientUnits="userSpaceOnUse">
<stop stop-color="#F9F9F9"/>
<stop offset="1" stop-color="white"/>
</linearGradient>
<clipPath id="clip0_543_258">
<rect width="20" height="20.1562" fill="white" transform="translate(10 10.4219)"/>
</clipPath>
</defs>
</svg>
